<svg xmlns="http://www.w3.org/2000/svg" width="284" height="173" fill="none" viewBox="0 0 284 173"><path fill="#EBEBEB" d="M178.763 172.999c41.847 0 75.77-2.819 75.77-6.298 0-3.478-33.923-6.298-75.77-6.298-41.847 0-75.771 2.82-75.771 6.298 0 3.479 33.924 6.298 75.771 6.298Z"/><path fill="#263238" d="m0 145.179 35.497-.106 35.5-.039 71.003-.075 70.998.075 35.501.039 35.501.106-35.501.109-35.501.035-70.998.075-71.002-.075-35.501-.035L0 145.179Z"/><path fill="#263238" d="M246.141 0H41.199c-3.108 0-5.628 2.53-5.628 5.65v133.879c0 3.12 2.52 5.649 5.628 5.649h204.942c3.108 0 5.628-2.529 5.628-5.649V5.649c0-3.12-2.52-5.649-5.628-5.649Z"/><path fill="#fff" d="M236.775 6.126H50.706v132.758h186.069V6.126Z"/><path fill="#455A64" d="M44.934 56.792h-1.158a.547.547 0 0 0-.546.548v30.5c0 .302.245.547.546.547h1.157a.547.547 0 0 0 .546-.548v-30.5a.547.547 0 0 0-.545-.547ZM248.057 73.54a4.086 4.086 0 0 0-3.021-4.918 4.069 4.069 0 0 0-4.899 3.032 4.085 4.085 0 0 0 3.021 4.917 4.07 4.07 0 0 0 4.899-3.032Z"/><path fill="#fff" d="M236.775 6.126H50.706v132.758h186.069V6.126Z"/><path fill="#7F8A9D" d="M75.67 82.009H63.54v9.462h12.13V82.01Z"/><path fill="#fff" d="M75.67 82.009H63.54v9.462h12.13V82.01Z" opacity=".6"/><path fill="#EBEBEB" d="M91.548 82.009H79.417v9.462h12.13V82.01ZM107.529 82.009h-12.13v9.462h12.13V82.01ZM123.46 82.009h-12.131v9.462h12.131V82.01ZM139.389 82.009h-12.131v9.462h12.131V82.01Z"/><path fill="#7F8A9D" d="M155.314 82.009h-12.13v9.462h12.13V82.01Z"/><path fill="#fff" d="M155.314 82.009h-12.13v9.462h12.13V82.01Z" opacity=".6"/><path fill="#EBEBEB" d="M171.244 82.009h-12.131v9.462h12.131V82.01Z"/><path fill="#7F8A9D" d="M75.67 95.115H63.54v9.462h12.13v-9.462Z"/><path fill="#fff" d="M75.67 95.115H63.54v9.462h12.13v-9.462Z" opacity=".6"/><path fill="#EBEBEB" d="M91.6 95.115H79.47v9.462H91.6v-9.462ZM107.529 95.115h-12.13v9.462h12.13v-9.462ZM123.46 95.115h-12.131v9.462h12.131v-9.462ZM139.389 95.115h-12.131v9.462h12.131v-9.462ZM155.314 95.115h-12.13v9.462h12.13v-9.462ZM171.244 95.115h-12.131v9.462h12.131v-9.462ZM123.46 68.91h-12.131v9.463h12.131V68.91ZM139.389 68.91h-12.131v9.463h12.131V68.91ZM155.314 68.91h-12.13v9.463h12.13V68.91ZM171.244 68.91h-12.131v9.463h12.131V68.91Z"/><path fill="#7F8A9D" d="M75.67 108.219H63.54v9.463h12.13v-9.463Z"/><path fill="#fff" d="M75.67 108.219H63.54v9.463h12.13v-9.463Z" opacity=".6"/><path fill="#EBEBEB" d="M91.6 108.219H79.47v9.463H91.6v-9.463ZM107.529 108.219h-12.13v9.463h12.13v-9.463Z"/><path fill="#7F8A9D" d="M123.46 108.219h-12.131v9.463h12.131v-9.463Z"/><path fill="#fff" d="M123.46 108.219h-12.131v9.463h12.131v-9.463Z" opacity=".6"/><path fill="#EBEBEB" d="M139.389 108.219h-12.131v9.463h12.131v-9.463ZM155.314 108.219h-12.13v9.463h12.13v-9.463ZM171.244 108.219h-12.131v9.463h12.131v-9.463Z"/><path fill="#7F8A9D" d="M75.67 121.318H63.54v9.462h12.13v-9.462Z"/><path fill="#fff" d="M75.67 121.318H63.54v9.462h12.13v-9.462Z" opacity=".6"/><path fill="#EBEBEB" d="M91.6 121.318H79.47v9.462H91.6v-9.462ZM107.529 121.318h-12.13v9.462h12.13v-9.462ZM123.46 121.318h-12.131v9.462h12.131v-9.462ZM139.389 121.318h-12.131v9.462h12.131v-9.462Z"/><path fill="#7F8A9D" d="M68.011 62.152a.4.4 0 0 1 .568-.053c.422.357.947.569 1.498.605.348.007.69-.096.978-.294a.708.708 0 0 0 .336-.565.439.439 0 0 0-.074-.25.686.686 0 0 0-.231-.236 3.163 3.163 0 0 0-1.075-.369 4.19 4.19 0 0 1-1.008-.306 1.643 1.643 0 0 1-.73-.614 1.196 1.196 0 0 1-.179-.64 1.46 1.46 0 0 1 .625-1.148c.397-.277.87-.423 1.353-.417.62.032 1.214.25 1.708.627a.408.408 0 0 1 .109.557.4.4 0 0 1-.559.118 2.252 2.252 0 0 0-1.258-.5 1.494 1.494 0 0 0-.873.268.621.621 0 0 0-.297.495.39.39 0 0 0 .057.22c.056.08.128.148.21.2.3.178.633.295.978.347.371.066.733.176 1.078.329.317.14.587.366.782.653.123.2.188.43.188.666a1.514 1.514 0 0 1-.673 1.218c-.423.297-.93.45-1.445.439a3.36 3.36 0 0 1-2.004-.785.412.412 0 0 1-.062-.565ZM87.893 58.453v4.633a.44.44 0 0 1-.437.438.436.436 0 0 1-.437-.438V59.78l-1.126 1.569a.437.437 0 0 1-.712 0l-1.118-1.57v3.306a.44.44 0 0 1-.436.438.436.436 0 0 1-.437-.438v-4.633a.44.44 0 0 1 .437-.438h.026a.436.436 0 0 1 .345.18l1.554 2.19 1.56-2.19a.438.438 0 0 1 .349-.18.436.436 0 0 1 .432.438ZM119.1 63.248v-4.632a.439.439 0 0 0-.436-.439.436.436 0 0 0-.437.439v3.304l-1.127-1.569a.437.437 0 0 0-.555-.136.432.432 0 0 0-.156.136l-1.118 1.57v-3.305a.439.439 0 0 0-.437-.439.436.436 0 0 0-.437.439v4.632a.439.439 0 0 0 .437.439h.026a.436.436 0 0 0 .345-.18l1.555-2.191 1.559 2.19a.43.43 0 0 0 .781-.258ZM103.438 58.895h-1.244v4.19a.439.439 0 0 1-.437.438.436.436 0 0 1-.437-.439v-4.19h-1.24a.435.435 0 0 1-.436-.438.44.44 0 0 1 .436-.438h3.341a.436.436 0 0 1 .436.438.44.44 0 0 1-.419.439ZM135.013 58.895h-1.266v4.19a.439.439 0 0 1-.437.438.439.439 0 0 1-.436-.438v-4.19h-1.223a.436.436 0 0 1-.437-.439.439.439 0 0 1 .437-.438h3.362a.436.436 0 0 1 .437.438.438.438 0 0 1-.437.439ZM147.677 63.086v-4.633a.439.439 0 0 1 .437-.438h2.559a.436.436 0 0 1 .436.438.436.436 0 0 1-.436.438h-2.122v1.429h1.825a.436.436 0 0 1 .437.438.439.439 0 0 1-.437.438h-1.825v1.885a.439.439 0 0 1-.437.438.438.438 0 0 1-.437-.434ZM163.108 62.152a.41.41 0 0 1 .433-.129.395.395 0 0 1 .139.076c.421.357.945.569 1.494.605.348.007.69-.096.978-.294a.693.693 0 0 0 .336-.565.469.469 0 0 0-.07-.25.753.753 0 0 0-.235-.236 3.16 3.16 0 0 0-1.075-.369 4.248 4.248 0 0 1-1.008-.306 1.694 1.694 0 0 1-.73-.614 1.203 1.203 0 0 1-.179-.64 1.459 1.459 0 0 1 .625-1.148 2.31 2.31 0 0 1 1.354-.417 3.08 3.08 0 0 1 1.707.627.404.404 0 0 1 .109.557.4.4 0 0 1-.252.178.392.392 0 0 1-.302-.06 2.27 2.27 0 0 0-1.262-.5 1.505 1.505 0 0 0-.874.268.62.62 0 0 0-.297.495.393.393 0 0 0 .057.22.78.78 0 0 0 .21.2c.301.177.633.295.978.347.371.065.734.175 1.078.329.317.138.589.365.782.653.123.2.188.43.188.666a1.522 1.522 0 0 1-.673 1.218 2.42 2.42 0 0 1-1.445.439 3.357 3.357 0 0 1-2.004-.785.436.436 0 0 1-.062-.565Z"/><path fill="#263238" d="M68.64 88.343a.122.122 0 0 1-.027-.135.124.124 0 0 1 .027-.04.13.13 0 0 1 .18 0 .923.923 0 0 0 1.31 0 .944.944 0 0 0 0-1.315.942.942 0 0 0-1.31 0 .12.12 0 0 1-.086.036.117.117 0 0 1-.085-.036.066.066 0 0 1-.03-.04.097.097 0 0 1 0-.04.2.2 0 0 0 0-.021l.165-1.407a.145.145 0 0 1 .131-.118h1.616a.125.125 0 0 1 .104.027.126.126 0 0 1 .046.098.128.128 0 0 1-.095.123.127.127 0 0 1-.055.002h-1.51l-.127 1.034a1.17 1.17 0 0 1 1.042-.068 1.17 1.17 0 0 1 .722 1.09 1.165 1.165 0 0 1-.345.836 1.179 1.179 0 0 1-1.668 0l-.005-.026ZM84.666 85.963a1.4 1.4 0 0 1 1.214-.758.118.118 0 0 1 .122.114.132.132 0 0 1-.118.132 1.173 1.173 0 0 0-1.013.63 2.403 2.403 0 0 0-.249.698 1.143 1.143 0 0 1 1.933.376 1.152 1.152 0 0 1-.497 1.376 1.14 1.14 0 0 1-1.44-.232 1.15 1.15 0 0 1-.284-.723 1.969 1.969 0 0 1 0-.228 2.852 2.852 0 0 1 .332-1.385Zm-.088 1.596a.263.263 0 0 0 0 .061.074.074 0 0 1 0 .035.935.935 0 0 0 .958.874.929.929 0 0 0 .9-.933.935.935 0 0 0-.9-.933.928.928 0 0 0-.958.874v.022ZM100.866 88.518l1.288-3.068h-1.681a.124.124 0 0 1-.071-.199.12.12 0 0 1 .071-.042h1.839a.113.113 0 0 1 .087.012.114.114 0 0 1 .052.071.088.088 0 0 1 0 .04.092.092 0 0 1 0 .061l-1.345 3.213a.128.128 0 0 1-.113.074.074.074 0 0 1-.048 0 .13.13 0 0 1-.073-.065.134.134 0 0 1-.013-.048.138.138 0 0 1 .007-.05ZM117.11 85.202a.725.725 0 0 1 .428 1.31 1.129 1.129 0 0 1 .668 1.266 1.127 1.127 0 1 1-2.1-.753c.121-.23.319-.412.559-.513a.74.74 0 0 1-.233-.867.728.728 0 0 1 .398-.392.717.717 0 0 1 .28-.051Zm0 3.247a.868.868 0 0 0 .807-.54.875.875 0 0 0-1.533-.822.878.878 0 0 0 .726 1.362Zm0-2.033a.494.494 0 0 0 .485-.491.487.487 0 0 0-.828-.345.477.477 0 0 0-.137.345.477.477 0 0 0 .138.345.487.487 0 0 0 .342.146ZM133.232 85.202a1.138 1.138 0 0 1 1.139 1.038v.303c.006.483-.108.96-.331 1.39a1.458 1.458 0 0 1-1.219.757.117.117 0 0 1-.086-.033.141.141 0 0 1-.027-.039.127.127 0 0 1 .109-.173 1.19 1.19 0 0 0 1.013-.631c.12-.22.204-.456.249-.701a1.149 1.149 0 0 1-1.553.164 1.148 1.148 0 0 1-.458-1.001 1.154 1.154 0 0 1 1.138-1.074h.026Zm.908 1.144a.915.915 0 0 0-.558-.846.905.905 0 0 0-1.241.662.911.911 0 0 0 1.731.533.907.907 0 0 0 .068-.35ZM147.991 85.555l-.489.285a.104.104 0 0 1-.061 0 .125.125 0 0 1-.06-.017.123.123 0 0 1-.059-.135.127.127 0 0 1 .021-.042.117.117 0 0 1 .037-.03l.672-.407a.123.123 0 0 1 .162.044c.01.028.01.059 0 .087v3.204a.123.123 0 0 1-.123.123.122.122 0 0 1-.117-.123l.017-2.989ZM149.14 86.945c-.01-.431.105-.856.332-1.223a.983.983 0 0 1 1.383-.387c.154.094.28.227.363.387.226.367.343.791.337 1.223.007.429-.11.85-.337 1.214a.976.976 0 0 1-1.746 0 2.194 2.194 0 0 1-.332-1.214Zm.244 0c-.008.38.094.755.293 1.078a.738.738 0 0 0 .655.405.728.728 0 0 0 .655-.405 2.088 2.088 0 0 0 0-2.16.735.735 0 0 0-1.038-.292.735.735 0 0 0-.272.291c-.2.325-.302.701-.293 1.083ZM164.48 85.555l-.494.285a.088.088 0 0 1-.056 0 .115.115 0 0 1-.061-.016.113.113 0 0 1-.044-.045.117.117 0 0 1-.017-.044.124.124 0 0 1 .003-.047.11.11 0 0 1 .057-.071l.669-.408a.125.125 0 0 1 .165.044.146.146 0 0 1 0 .088v3.203a.123.123 0 0 1-.007.047.123.123 0 0 1-.025.04.122.122 0 0 1-.085.036.122.122 0 0 1-.118-.123l.013-2.989ZM166.143 85.555l-.493.285a.091.091 0 0 1-.057 0 .12.12 0 0 1-.061-.016.127.127 0 0 1-.044-.045.115.115 0 0 1 .044-.162l.668-.408a.128.128 0 0 1 .092-.01c.03.008.057.027.074.054a.146.146 0 0 1 0 .088v3.203a.107.107 0 0 1-.008.047.114.114 0 0 1-.064.067.115.115 0 0 1-.046.01.122.122 0 0 1-.118-.124l.013-2.989ZM117.307 72.224l-.489.289a.147.147 0 0 1-.062 0 .12.12 0 0 1-.059-.015.121.121 0 0 1-.062-.087.128.128 0 0 1 .003-.048.115.115 0 0 1 .057-.074l.673-.407a.12.12 0 0 1 .161.043.133.133 0 0 1 0 .093v3.203a.126.126 0 0 1-.035.083.124.124 0 0 1-.083.036.124.124 0 0 1-.085-.035.125.125 0 0 1-.037-.084l.018-2.998ZM132.179 75.143l1.62-1.469a.896.896 0 0 0 .302-.67.905.905 0 0 0-.895-.877.908.908 0 0 0-.607.228l-.166.154a.117.117 0 0 1-.086.038.117.117 0 0 1-.085-.039.115.115 0 0 1-.026-.037.103.103 0 0 1-.01-.046c0-.015.003-.03.01-.045a.115.115 0 0 1 .026-.038l.171-.162c.212-.188.485-.293.768-.294a1.118 1.118 0 0 1 .834.373c.193.206.299.48.297.762a1.157 1.157 0 0 1-.371.85l-1.389 1.258h1.642c.016.001.032.005.047.011a.127.127 0 0 1 .064.07.126.126 0 0 1-.029.129.122.122 0 0 1-.082.036h-1.952a.101.101 0 0 1-.048-.007.105.105 0 0 1-.039-.028.136.136 0 0 1-.034-.045.147.147 0 0 1-.011-.055.13.13 0 0 1 .049-.097ZM150.42 72.087l-.9.943a1.16 1.16 0 0 1 .85.7 1.193 1.193 0 0 1 0 .907c-.06.144-.148.274-.26.382a1.173 1.173 0 0 1-.834.351 1.157 1.157 0 0 1-.83-.35.122.122 0 0 1-.027-.04.122.122 0 0 1 0-.093.123.123 0 0 1 .027-.038.12.12 0 0 1 .087-.04.116.116 0 0 1 .088.04.94.94 0 0 0 1.31 0 .948.948 0 0 0 .203-1.023.917.917 0 0 0-.203-.301.918.918 0 0 0-.655-.272.121.121 0 0 1-.055-.014.11.11 0 0 1-.041-.038.13.13 0 0 1-.028-.04.129.129 0 0 1 0-.096.13.13 0 0 1 .028-.04l.873-.876h-1.31a.121.121 0 0 1-.117-.075.132.132 0 0 1-.01-.048.127.127 0 0 1 .127-.127h1.62a.127.127 0 0 1 .127.127.08.08 0 0 1 0 .053.082.082 0 0 1-.07.009ZM165.803 74.637h-1.895a.108.108 0 0 1-.074 0 .124.124 0 0 1-.037-.086.124.124 0 0 1 .037-.085l2.013-2.511a.108.108 0 0 1 .128-.028.111.111 0 0 1 .038.028.165.165 0 0 1 .039.061v2.406h.236a.117.117 0 0 1 .083.035.12.12 0 0 1 .035.084.118.118 0 0 1-.118.118h-.236v.561a.123.123 0 0 1-.198.072.12.12 0 0 1-.042-.072l-.009-.583Zm0-.237v-2.042l-1.642 2.042h1.642ZM68.06 111.633l-.494.289a.13.13 0 0 1-.057.022.118.118 0 0 1-.105-.061.113.113 0 0 1-.016-.092.112.112 0 0 1 .06-.071l.673-.412a.127.127 0 0 1 .161.049.12.12 0 0 1 0 .087v3.222a.118.118 0 0 1-.008.046.12.12 0 0 1-.025.039.119.119 0 0 1-.13.024.119.119 0 0 1-.073-.109l.013-3.033ZM70.356 111.282a1.15 1.15 0 0 1 1.144 1.013v.324c.009.484-.105.962-.332 1.389a1.422 1.422 0 0 1-1.213.759.124.124 0 0 1-.047-.006.148.148 0 0 1-.04-.024.12.12 0 0 1-.04-.084.13.13 0 0 1 .118-.128 1.182 1.182 0 0 0 1.013-.635c.123-.216.208-.452.249-.697a1.14 1.14 0 0 1-.873.386 1.149 1.149 0 0 1 0-2.297h.021Zm.909 1.144a.908.908 0 0 0-1.079-.89.908.908 0 0 0 .17 1.797.897.897 0 0 0 .904-.907h.005ZM82.748 114.552l1.62-1.468a.882.882 0 0 0 .066-1.267.899.899 0 0 0-1.266-.061l-.166.153a.133.133 0 0 1-.04.035.128.128 0 0 1-.103.006.128.128 0 0 1-.072-.075.123.123 0 0 1 .049-.141l.17-.158c.211-.19.485-.294.769-.294a1.142 1.142 0 0 1 1.034 1.598 1.145 1.145 0 0 1-.275.383l-1.388 1.262h1.65a.126.126 0 0 1 .072.043.122.122 0 0 1 0 .156.126.126 0 0 1-.072.043h-1.965a.112.112 0 0 1-.048-.007.097.097 0 0 1-.04-.029.128.128 0 0 1-.025-.041.132.132 0 0 1 .002-.098.122.122 0 0 1 .028-.04ZM85.731 113.021a2.263 2.263 0 0 1 .332-1.218.987.987 0 0 1 1.747 0 2.345 2.345 0 0 1 0 2.436.982.982 0 0 1-1.747 0 2.238 2.238 0 0 1-.332-1.218Zm.245 0c-.009.382.093.758.293 1.083a.737.737 0 0 0 1.31 0 2.116 2.116 0 0 0 0-2.161.747.747 0 0 0-.655-.4.74.74 0 0 0-.656.4c-.199.323-.3.698-.292 1.078ZM99.556 114.551l1.625-1.468a.883.883 0 0 0 .27-1.001.872.872 0 0 0-.869-.56.874.874 0 0 0-.602.233l-.17.153a.108.108 0 0 1-.04.027.122.122 0 0 1-.092 0 .108.108 0 0 1-.039-.027.115.115 0 0 1-.028-.132.115.115 0 0 1 .028-.039l.166-.158a1.14 1.14 0 0 1 1.567.041c.213.213.334.5.337.801a1.148 1.148 0 0 1-.375.846l-1.39 1.262h1.643a.106.106 0 0 1 .053.002.109.109 0 0 1 .048.024.11.11 0 0 1 .032.042.117.117 0 0 1 .012.052.124.124 0 0 1-.044.095.12.12 0 0 1-.048.024.119.119 0 0 1-.053.002h-1.943a.104.104 0 0 1-.087-.035.136.136 0 0 1 0-.184ZM103.058 111.633l-.493.289a.121.121 0 0 1-.057.022.107.107 0 0 1-.061-.016.112.112 0 0 1-.044-.045.114.114 0 0 1-.018-.044.106.106 0 0 1 .024-.089.1.1 0 0 1 .038-.029l.668-.412a.127.127 0 0 1 .092-.007c.03.008.057.028.074.055.01.028.01.059 0 .088v3.221a.12.12 0 0 1-.008.046.122.122 0 0 1-.064.065.123.123 0 0 1-.046.007.12.12 0 0 1-.084-.034.121.121 0 0 1-.034-.084l.013-3.033ZM114.564 114.552l1.625-1.468a.892.892 0 0 0-.562-1.549.889.889 0 0 0-.639.234l-.17.153a.11.11 0 0 1-.083.036.122.122 0 0 1-.046-.009.098.098 0 0 1-.037-.027.133.133 0 0 1-.029-.038.128.128 0 0 1-.01-.047c0-.016.004-.032.01-.047a.124.124 0 0 1 .029-.039l.17-.158a1.137 1.137 0 0 1 1.528 1.688l-1.393 1.262h1.647c.028.005.053.02.071.042a.125.125 0 0 1 0 .157.119.119 0 0 1-.071.042h-1.957a.101.101 0 0 1-.049-.007.11.11 0 0 1-.042-.028.14.14 0 0 1-.03-.046.145.145 0 0 1 .005-.108.137.137 0 0 1 .033-.043ZM117.495 114.552l1.624-1.468a.9.9 0 0 0 .287-.619.895.895 0 0 0-.849-.93.893.893 0 0 0-.639.234l-.17.153a.11.11 0 0 1-.083.036.113.113 0 0 1-.083-.036.114.114 0 0 1-.028-.038.112.112 0 0 1-.011-.047c0-.016.004-.032.011-.047a.108.108 0 0 1 .028-.039l.17-.158a1.134 1.134 0 0 1 1.566.042c.212.212.331.5.334.8a1.168 1.168 0 0 1-.371.846l-1.393 1.262h1.646c.028.005.053.02.071.042a.125.125 0 0 1 0 .157.119.119 0 0 1-.071.042h-1.956a.121.121 0 0 1-.05-.007.124.124 0 0 1-.071-.074.143.143 0 0 1 .004-.108.14.14 0 0 1 .034-.043ZM130.721 114.552l1.625-1.468a.9.9 0 0 0 .15-1.156.889.889 0 0 0-.893-.395.886.886 0 0 0-.458.223l-.171.153a.123.123 0 0 1-.04.035.125.125 0 0 1-.103.006.128.128 0 0 1-.071-.075.124.124 0 0 1 .048-.141l.171-.158c.211-.19.485-.294.768-.294a1.14 1.14 0 0 1 .76 1.981l-1.389 1.262h1.642a.131.131 0 0 1 .072.043.122.122 0 0 1 0 .156.131.131 0 0 1-.072.043h-1.956a.112.112 0 0 1-.048-.007.093.093 0 0 1-.039-.029.134.134 0 0 1 .004-.179ZM135.756 111.502l-.9.925a1.184 1.184 0 0 1 .902 1.448 1.184 1.184 0 0 1-1.594.803 1.163 1.163 0 0 1-.378-.257.112.112 0 0 1-.028-.04.112.112 0 0 1-.01-.048.121.121 0 0 1 .038-.088.116.116 0 0 1 .039-.026.11.11 0 0 1 .093 0 .127.127 0 0 1 .039.026c.175.172.41.268.655.268a.917.917 0 0 0 .864-.571.94.94 0 0 0 .07-.358.925.925 0 0 0-.068-.357.92.92 0 0 0-.203-.301.914.914 0 0 0-.655-.276.117.117 0 0 1-.055-.013.12.12 0 0 1-.045-.035.133.133 0 0 1-.029-.041.116.116 0 0 1-.01-.049.12.12 0 0 1 .039-.09l.873-.876h-1.31a.122.122 0 0 1-.122-.123.123.123 0 0 1 .122-.123h1.625a.122.122 0 0 1 .122.123.119.119 0 0 1 0 .053l-.074.026ZM146.764 114.552l1.624-1.468a.9.9 0 0 0 .151-1.156.889.889 0 0 0-.893-.395.886.886 0 0 0-.458.223l-.171.153a.123.123 0 0 1-.04.035.125.125 0 0 1-.103.006.128.128 0 0 1-.071-.075.124.124 0 0 1 .048-.141l.171-.158c.211-.19.485-.294.768-.294a1.14 1.14 0 0 1 .76 1.981l-1.389 1.262h1.642a.131.131 0 0 1 .072.043.122.122 0 0 1 0 .156.131.131 0 0 1-.072.043h-1.956a.112.112 0 0 1-.048-.007.093.093 0 0 1-.039-.029.134.134 0 0 1 .004-.179ZM151.541 114.052h-1.895a.112.112 0 0 1-.074-.026.108.108 0 0 1-.028-.039.11.11 0 0 1-.01-.047.11.11 0 0 1 .01-.047.097.097 0 0 1 .028-.038l2.009-2.512a.103.103 0 0 1 .038-.026.099.099 0 0 1 .045-.01.122.122 0 0 1 .083.036.124.124 0 0 1 .039.057.08.08 0 0 0 0 .022v2.406h.236a.118.118 0 0 1 .053.002.12.12 0 0 1 .048.024.113.113 0 0 1 .032.043.117.117 0 0 1 0 .104.123.123 0 0 1-.08.067.118.118 0 0 1-.053.001h-.236v.596a.121.121 0 0 1-.12.1.121.121 0 0 1-.12-.1l-.005-.613Zm0-.241v-2.043l-1.646 2.043h1.646ZM162.602 114.552l1.624-1.468a.895.895 0 0 0-.561-1.549.885.885 0 0 0-.639.234l-.171.153a.098.098 0 0 1-.037.027.122.122 0 0 1-.091 0 .11.11 0 0 1-.038-.027.11.11 0 0 1-.038-.085.11.11 0 0 1 .01-.047.121.121 0 0 1 .028-.039l.166-.158a1.15 1.15 0 0 1 .773-.293 1.143 1.143 0 0 1 1.131 1.135 1.156 1.156 0 0 1-.375.846l-1.389 1.262h1.642a.118.118 0 0 1 .053.002.109.109 0 0 1 .048.024.11.11 0 0 1 .032.042.12.12 0 0 1 0 .105.11.11 0 0 1-.032.042.109.109 0 0 1-.048.024.118.118 0 0 1-.053.002h-1.952a.107.107 0 0 1-.05-.007.124.124 0 0 1-.071-.074.128.128 0 0 1-.009-.054.137.137 0 0 1 .047-.097ZM66.98 127.502l1.625-1.468a.919.919 0 0 0 .297-.67.892.892 0 0 0-.89-.89.911.911 0 0 0-.608.228l-.17.153a.118.118 0 0 1-.162-.171l.166-.162c.214-.188.489-.293.773-.293a1.104 1.104 0 0 1 .834.372 1.13 1.13 0 0 1 .198 1.227 1.154 1.154 0 0 1-.277.386l-1.388 1.258h1.642a.122.122 0 0 1 0 .245h-1.952a.116.116 0 0 1-.072-.019.122.122 0 0 1-.054-.131.126.126 0 0 1 .039-.065ZM70.3 124.992a1.416 1.416 0 0 1 1.213-.758.123.123 0 0 1 .127.114.13.13 0 0 1-.118.131 1.174 1.174 0 0 0-1.013.632 2.193 2.193 0 0 0-.249.696 1.147 1.147 0 0 1 1.441-.224 1.148 1.148 0 0 1 .49 1.378 1.145 1.145 0 0 1-2.22-.356 1.927 1.927 0 0 1 .001-.228c-.01-.482.103-.959.328-1.385Zm-.083 1.596a.336.336 0 0 0 0 .065.094.094 0 0 1 0 .035.93.93 0 1 0 1.597-.71.93.93 0 0 0-1.597.588v.022ZM83.05 127.503l1.625-1.468a.917.917 0 0 0 .297-.67.876.876 0 0 0-.236-.596.871.871 0 0 0-.66-.294.872.872 0 0 0-.602.228l-.17.153a.122.122 0 0 1-.039.029.124.124 0 0 1-.046.01.125.125 0 0 1-.047-.01.12.12 0 0 1-.038-.029.102.102 0 0 1-.027-.038.11.11 0 0 1-.01-.045.11.11 0 0 1 .01-.045.102.102 0 0 1 .027-.038l.17-.162c.212-.188.485-.292.768-.294a1.138 1.138 0 0 1 1.131 1.135 1.153 1.153 0 0 1-.37.85l-1.39 1.258h1.642a.122.122 0 0 1 .123.123.122.122 0 0 1-.122.123h-1.957a.127.127 0 0 1-.047-.008.126.126 0 0 1-.04-.028.134.134 0 0 1-.032-.093.138.138 0 0 1 .04-.091ZM86.465 127.547l1.31-3.068h-1.681a.119.119 0 0 1-.083-.202.119.119 0 0 1 .083-.035h1.838a.156.156 0 0 1 .075 0 .123.123 0 0 1 .066.075.102.102 0 0 1 0 .039.116.116 0 0 1 0 .066l-1.346 3.208a.13.13 0 0 1-.044.052.136.136 0 0 1-.065.023.079.079 0 0 1-.052 0 .137.137 0 0 1-.1-.158ZM98.831 127.502l1.625-1.468a.928.928 0 0 0 .296-.67.891.891 0 0 0-.89-.89.911.911 0 0 0-.607.228l-.17.153a.112.112 0 0 1-.087.041.13.13 0 0 1-.048-.009.116.116 0 0 1-.066-.07.117.117 0 0 1 .007-.095.114.114 0 0 1 .032-.038l.166-.162c.213-.188.488-.293.773-.293a1.115 1.115 0 0 1 .834.372 1.132 1.132 0 0 1 .199 1.226 1.161 1.161 0 0 1-.274.387l-1.392 1.258h1.646a.122.122 0 0 1 .122.122.123.123 0 0 1-.122.123h-1.957a.116.116 0 0 1-.072-.019.122.122 0 0 1-.054-.131.125.125 0 0 1 .04-.065ZM102.897 124.229a.715.715 0 0 1 .706.494.73.73 0 0 1-.27.821 1.137 1.137 0 0 1 .277 1.917 1.125 1.125 0 0 1-1.818-.651 1.137 1.137 0 0 1 .668-1.266.736.736 0 0 1-.288-.588.721.721 0 0 1 .725-.727Zm0 3.247a.875.875 0 0 0 .617-1.496.874.874 0 0 0-1.491.62.873.873 0 0 0 .874.876Zm0-2.033a.492.492 0 0 0 .484-.491.487.487 0 0 0-.484-.486.484.484 0 0 0-.485.486.493.493 0 0 0 .485.491ZM114.46 127.503l1.624-1.468a.892.892 0 0 0 .297-.67.876.876 0 0 0-.232-.596.887.887 0 0 0-.659-.294.912.912 0 0 0-.607.228l-.17.153a.116.116 0 0 1-.037.029.123.123 0 0 1-.046.01.119.119 0 0 1-.046-.01.116.116 0 0 1-.037-.029.106.106 0 0 1-.038-.083.106.106 0 0 1 .038-.083l.17-.162c.212-.189.486-.293.769-.294a1.105 1.105 0 0 1 .834.372c.191.208.297.48.297.763a1.156 1.156 0 0 1-.371.85l-1.393 1.258h1.646a.122.122 0 0 1 .122.123.122.122 0 0 1-.122.123h-1.956a.133.133 0 0 1-.073-.019.122.122 0 0 1-.047-.058.124.124 0 0 1 .032-.138l.005-.005ZM118.599 124.229a1.138 1.138 0 0 1 1.14 1.043v.298a2.92 2.92 0 0 1-.332 1.389 1.453 1.453 0 0 1-1.219.758.118.118 0 0 1-.084-.031.11.11 0 0 1-.027-.038.115.115 0 0 1-.011-.045.126.126 0 0 1 .033-.089.122.122 0 0 1 .085-.042 1.17 1.17 0 0 0 1.013-.631 2.37 2.37 0 0 0 .249-.697 1.15 1.15 0 0 1-1.029.377 1.15 1.15 0 0 1-.802-1.757 1.146 1.146 0 0 1 .958-.535h.026Zm.908 1.148a.91.91 0 0 0-1.547-.657.914.914 0 0 0 .639 1.56.897.897 0 0 0 .839-.556.899.899 0 0 0 .069-.347ZM132.633 124.449l-.899.929a1.157 1.157 0 0 1 .85.7 1.188 1.188 0 0 1-1.545 1.549 1.158 1.158 0 0 1-.379-.259.125.125 0 0 1 .087-.212c.033 0 .064.013.087.036a.93.93 0 1 0 .655-1.59.129.129 0 0 1-.054-.015.118.118 0 0 1-.042-.038.135.135 0 0 1-.035-.09c0-.033.013-.065.035-.09l.874-.876h-1.31a.13.13 0 0 1-.105-.027.13.13 0 0 1-.033-.152.118.118 0 0 1 .083-.069.113.113 0 0 1 .055-.002h1.62a.127.127 0 0 1 .126.123.08.08 0 0 1 0 .057.116.116 0 0 1-.07.026ZM133.612 125.973c-.01-.431.105-.856.332-1.223a.99.99 0 0 1 .873-.529.984.984 0 0 1 .873.529c.226.367.343.792.337 1.223.008.429-.108.851-.337 1.214a.97.97 0 0 1-.873.54.981.981 0 0 1-.873-.54 2.192 2.192 0 0 1-.332-1.214Zm.244 0c-.008.382.094.758.293 1.083a.742.742 0 0 0 .655.399.738.738 0 0 0 .655-.399 2.097 2.097 0 0 0 0-2.165.729.729 0 0 0-.272-.292.73.73 0 0 0-.766 0 .729.729 0 0 0-.272.292 1.993 1.993 0 0 0-.293 1.082ZM68.378 98.55l-.494.29a.121.121 0 0 1-.056 0 .117.117 0 0 1-.105-.062.113.113 0 0 1 .007-.132.113.113 0 0 1 .036-.03l.673-.407a.122.122 0 0 1 .161.044c.01.028.01.059 0 .087v3.204a.12.12 0 0 1-.032.087.12.12 0 0 1-.04.026.106.106 0 0 1-.046.01.121.121 0 0 1-.083-.038.122.122 0 0 1-.034-.085l.013-2.993ZM69.47 101.47l1.624-1.473a.899.899 0 0 0 .229-1.007.878.878 0 0 0-.827-.536.903.903 0 0 0-.603.228l-.17.154a.117.117 0 0 1-.17 0 .114.114 0 0 1 0-.171l.166-.158c.212-.188.485-.292.768-.294a1.142 1.142 0 0 1 1.037 1.599 1.13 1.13 0 0 1-.277.382l-1.389 1.263H71.5a.122.122 0 0 1 .122.122.127.127 0 0 1-.122.123h-1.956a.13.13 0 0 1-.087-.035.134.134 0 0 1-.021-.154.133.133 0 0 1 .034-.043ZM84.255 98.551l-.493.29a.117.117 0 0 1-.166-.044.12.12 0 0 1 .048-.163l.668-.407a.127.127 0 0 1 .166.043.16.16 0 0 1 0 .088v3.204a.12.12 0 0 1-.008.047.12.12 0 0 1-.064.066.122.122 0 0 1-.046.01.122.122 0 0 1-.084-.038.122.122 0 0 1-.034-.085l.013-3.011ZM87.451 98.415l-.908.912a1.174 1.174 0 0 1 .939 1.157 1.16 1.16 0 0 1-.35.837c-.22.223-.52.349-.833.35a1.133 1.133 0 0 1-.826-.35.118.118 0 0 1-.028-.136.14.14 0 0 1 .067-.067.122.122 0 0 1 .093 0 .141.141 0 0 1 .039.027.936.936 0 0 0 1.318 0 .91.91 0 0 0 .271-.661.935.935 0 0 0-.93-.934.118.118 0 0 1-.096-.048.123.123 0 0 1 0-.18l.873-.876h-1.31a.126.126 0 0 1-.09-.216.122.122 0 0 1 .09-.034h1.62a.122.122 0 0 1 .127.123.088.088 0 0 1 0 .057.114.114 0 0 1-.066.039ZM99.901 98.55l-.493.29a.121.121 0 0 1-.057 0 .117.117 0 0 1-.105-.062.116.116 0 0 1 .008-.132.113.113 0 0 1 .036-.03l.668-.407a.126.126 0 0 1 .166.043.163.163 0 0 1 0 .088v3.204a.126.126 0 0 1-.008.047.108.108 0 0 1-.025.039.119.119 0 0 1-.085.037.126.126 0 0 1-.084-.038.122.122 0 0 1-.034-.085l.013-2.993ZM102.988 100.965h-1.895a.078.078 0 0 1-.04-.005.075.075 0 0 1-.034-.021.11.11 0 0 1-.039-.083c0-.016.004-.032.01-.046a.12.12 0 0 1 .029-.038l2.013-2.511a.109.109 0 0 1 .166 0 .194.194 0 0 1 .043.061v2.407h.232a.119.119 0 0 1 .133.068.117.117 0 0 1 0 .104.113.113 0 0 1-.032.043.135.135 0 0 1-.048.024.135.135 0 0 1-.053.002h-.232v.596a.126.126 0 0 1-.126.122.12.12 0 0 1-.118-.122l-.009-.601Zm0-.241v-2.042l-1.642 2.042h1.642ZM115.836 98.55l-.489.29a.147.147 0 0 1-.062 0 .128.128 0 0 1-.06-.018.128.128 0 0 1-.06-.089.107.107 0 0 1 .004-.047.11.11 0 0 1 .06-.07l.668-.408a.118.118 0 0 1 .161.044c.01.029.01.06 0 .088v3.204a.123.123 0 0 1-.007.046.12.12 0 0 1-.026.04.11.11 0 0 1-.085.036.125.125 0 0 1-.085-.037.13.13 0 0 1-.037-.085l.018-2.994ZM131.848 98.551l-.489.29a.12.12 0 0 1-.093.013.118.118 0 0 1-.073-.058.12.12 0 0 1-.016-.044.107.107 0 0 1 .004-.047.126.126 0 0 1 .022-.042.128.128 0 0 1 .038-.029l.668-.407a.126.126 0 0 1 .166.044.163.163 0 0 1 0 .087v3.204a.109.109 0 0 1-.008.047.108.108 0 0 1-.025.039.119.119 0 0 1-.085.037.128.128 0 0 1-.122-.123l.013-3.011ZM133.328 98.957a1.416 1.416 0 0 1 1.218-.758.12.12 0 0 1 .085.032.116.116 0 0 1 .037.082.126.126 0 0 1-.033.089.131.131 0 0 1-.084.043 1.173 1.173 0 0 0-1.014.63 2.397 2.397 0 0 0-.248.698 1.142 1.142 0 0 1 1.268-.32 1.151 1.151 0 0 1 .745 1.078 1.152 1.152 0 0 1-2.302.039 2.168 2.168 0 0 1 0-.228 2.9 2.9 0 0 1 .328-1.385Zm-.061 1.596a.208.208 0 0 0 0 .061.07.07 0 0 1 0 .035.928.928 0 0 0 1.596.591.935.935 0 0 0-.639-1.583.93.93 0 0 0-.957.874v.022ZM148.149 98.551l-.494.29a.115.115 0 0 1-.092.013.117.117 0 0 1-.074-.058.124.124 0 0 1-.012-.092.128.128 0 0 1 .023-.04.113.113 0 0 1 .037-.03l.668-.407a.128.128 0 0 1 .092-.01.124.124 0 0 1 .074.053.146.146 0 0 1 0 .088v3.204a.125.125 0 0 1-.007.047.127.127 0 0 1-.064.066.128.128 0 0 1-.047.01.122.122 0 0 1-.117-.123l.013-3.011ZM149.799 101.519l1.288-3.068h-1.663a.124.124 0 0 1-.083-.036.126.126 0 0 1-.035-.083.123.123 0 0 1 .118-.122h1.838a.107.107 0 0 1 .074 0 .135.135 0 0 1 .066.074.13.13 0 0 1 0 .04.104.104 0 0 1-.022.065l-1.345 3.209a.133.133 0 0 1-.043.054.122.122 0 0 1-.066.02.079.079 0 0 1-.048 0 .131.131 0 0 1-.07-.061.134.134 0 0 1-.009-.092ZM163.755 98.55l-.489.29a.166.166 0 0 1-.062 0 .129.129 0 0 1-.06-.017.128.128 0 0 1-.044-.044.116.116 0 0 1-.017-.044.123.123 0 0 1 .003-.047.11.11 0 0 1 .057-.072l.673-.407a.12.12 0 0 1 .161.044c.01.028.01.059 0 .087v3.204a.126.126 0 0 1-.035.087.123.123 0 0 1-.087.036.122.122 0 0 1-.118-.123l.018-2.993ZM165.978 98.196a.72.72 0 0 1 .707.95.726.726 0 0 1-.271.365 1.137 1.137 0 0 1 .277 1.917 1.119 1.119 0 0 1-1.427 0 1.134 1.134 0 0 1 .277-1.917.736.736 0 0 1-.288-.587.725.725 0 0 1 .446-.675.712.712 0 0 1 .279-.053Zm0 3.248a.876.876 0 1 0-.335-1.687.88.88 0 0 0-.283 1.43.874.874 0 0 0 .618.257Zm0-2.034a.494.494 0 0 0 .489-.49.487.487 0 0 0-.485-.487.486.486 0 0 0-.485.486.489.489 0 0 0 .481.49Z"/><path fill="#EBEBEB" d="M152.629 48.665h-70.47v1.262h70.47v-1.262ZM65.562 50.989v-3.38l-2.022 1.688 2.022 1.692ZM169.222 47.61v3.379l2.021-1.692-2.021-1.687Z"/><path fill="#7F8A9D" d="M237 6H51v35h186V6Z"/><path fill="#EBEBEB" d="M236.731 41.001h-52.654v97.884h52.654V41.001Z"/><path fill="#A6A6A6" d="M198.344 48.39h-9.07v20.52h9.07V48.39ZM231.539 48.39h-30.388v20.52h30.388V48.39Z"/><path fill="#fff" d="m191.693 50.288-.494.285a.096.096 0 0 1-.061.022.113.113 0 0 1-.1-.061.117.117 0 0 1-.017-.044.123.123 0 0 1 .003-.047.11.11 0 0 1 .057-.071l.668-.408a.128.128 0 0 1 .092-.01.125.125 0 0 1 .074.054.146.146 0 0 1 0 .087v3.213a.123.123 0 0 1-.007.047.127.127 0 0 1-.064.066.12.12 0 0 1-.047.01.122.122 0 0 1-.117-.123l.013-3.02ZM192.837 51.676a2.226 2.226 0 0 1 .336-1.223.987.987 0 0 1 .873-.534.98.98 0 0 1 .874.534c.227.367.345.791.34 1.223.006.43-.112.85-.34 1.214a.975.975 0 0 1-1.747 0 2.196 2.196 0 0 1-.336-1.214Zm.244 0c-.008.38.094.755.293 1.078a.737.737 0 0 0 1.332 0 2.116 2.116 0 0 0 0-2.16.74.74 0 0 0-1.332 0 1.981 1.981 0 0 0-.284 1.082h-.009ZM226.478 50.173h-23.039v1.117h23.039v-1.117ZM222.36 53.417h-18.921v.557h18.921v-.557ZM222.36 54.829h-18.921v.556h18.921v-.556ZM222.36 56.235h-18.921v.557h18.921v-.557ZM222.36 59.054h-18.921v.556h18.921v-.556ZM222.36 60.46h-18.921v.557h18.921v-.557ZM222.36 61.87h-18.921v.557h18.921v-.557ZM222.36 63.279h-18.921v.556h18.921v-.556ZM222.36 64.689h-18.921v.557h18.921v-.557Z"/><path fill="#F7A9A0" d="M120.843 167.137c1.196.438 35.929 1.095 37.291.315.149-.087.105-1.626.616-5.605.026-.193.821-.929 2.057-1.973 4.646-3.905 15.563-12.144 15.563-12.144l-17.34-15.094-16.799 16.571-4.367 4.308s-14.191 7.692-15.598 8.709c-1.406 1.016-2.62 4.453-1.423 4.913Z"/><path fill="#EBEBEB" d="M120.844 167.136c1.196.464 35.933 1.095 37.291.315.144-.087.105-1.626.62-5.605.022-.189.817-.929 2.052-1.972 1.616-1.359 2.385-1.977 4.804-3.857l-22.039-8.135-1.31 1.315-4.366 4.308s-14.192 7.688-15.594 8.709c-1.402 1.021-2.655 4.462-1.458 4.922Z"/><path fill="#7F8A9D" d="M118.45 167.619c1.206.438 38.218.828 39.549 0 .31-.193.599-2.354.83-5.308.026-.372 3.777-3.379 4.288-3.944l-22.676-7.666-2.865 2.704s-16.689 7.793-18.056 8.853c-1.367 1.061-2.279 4.94-1.07 5.361Z"/><path fill="#455A64" d="m142 148.26 21.427 11.145s22.323-20.279 24.366-20.432c2.044-.153 32.074 20.305 47.217 20.367 15.659.065 16.45-16.401 16.45-16.401l-22.843-5.259c-16.466-8.148-33.623-22.79-44.837-21.41-12.204 1.464-41.78 31.99-41.78 31.99Z"/><path fill="#455A64" d="M251.481 142.938s2.564 14.867-4.842 20.709c-7.406 5.842-61.68 5.141-69.915 2.467-8.236-2.673-8.489-16.005.511-19.095 8.563-2.941 44.976-4.383 45.885-4.729.227-.092-3.232-2.17-3.214-2.297l8.297-2.542 23.278 5.487Z"/><path fill="#263238" d="M240.25 142.563c0-.062.109-.04.109 0 0 1.727.606 3.4 1.712 4.724 1.262 1.46 3.122 2.279 4.803 3.134.162.083.04.337-.131.289a15.066 15.066 0 0 1-2.973-1.288 7.212 7.212 0 0 1-2.236-1.867 6.434 6.434 0 0 1-1.284-4.992ZM223.718 140.721c.375-.482.786-.943 1.179-1.407.926-1.109 1.856-2.222 2.829-3.292.092-.1.271.044.188.154-.655.876-1.349 1.691-2.03 2.529-.35.438-.699.876-1.053 1.284a8.122 8.122 0 0 0-.982 1.249c-.253.478.078.876.572.938.436.011.859-.146 1.183-.439a15.305 15.305 0 0 0 2.009-2.156c.393-.438.782-.876 1.179-1.315.397-.438.873-.903 1.31-1.367.026-.031.079 0 .052.044-.366.508-.703 1.038-1.074 1.542-.371.504-.742 1.008-1.122 1.508-.38.5-.729.929-1.114 1.385-.317.399-.7.741-1.131 1.012-.703.417-1.925.509-2.301-.407a1.281 1.281 0 0 1 .306-1.262ZM195.71 144.305c1.786-.263 3.563-.517 5.358-.705a302.04 302.04 0 0 1 5.445-.509c3.589-.302 7.187-.578 10.786-.745 2.048-.096 4.091-.109 6.139-.083.066 0 .057.096 0 .101-3.598.328-7.2.556-10.803.797-3.603.241-7.192.557-10.781.899-2.035.197-4.074.346-6.114.513-.135.013-.161-.246-.03-.268Z"/><path fill="#263238" d="M219.482 139.813a27.49 27.49 0 0 1 4.131 2.218 33.183 33.183 0 0 1 3.825 2.686c.035.027 0 .07-.043.053-1.406-.649-2.751-1.464-4.088-2.244a38.935 38.935 0 0 1-3.93-2.525c-.087-.065-.017-.241.105-.188Z"/><path fill="#F7A9A0" d="M230.032 114.73c-2.703 4.756-13.476 19.359-16.855 19.841-3.529.508-16.533-.609-18.904-3.414-1.161-1.372.712-13.148 2.515-12.482 1.804.666 12.93 3.357 14.354 3.147 1.423-.211 12.96-11.396 17.209-13.832 7.318-4.168 3.139 4.189 1.681 6.74Z"/><path fill="#7F8A9D" d="m199.64 119.048-2.742 14.577s13.021 2.678 16.864 1.552c3.843-1.127 14.576-16.444 17.703-22.501 3.126-6.057.397-7.653-5.24-3.879-5.638 3.774-14.629 12.237-15.502 12.272-.873.035-11.083-2.021-11.083-2.021Z"/><path fill="#263238" d="M201.994 127.002c.223-1.157 1.074-5.776 1.201-6.942h-.035c-.337 1.087-1.31 5.623-1.533 6.78a63.394 63.394 0 0 0-1.135 6.956c0 .039.061.061.074 0 .624-2.222.991-4.519 1.428-6.794Z"/><path fill="#000" d="M231.584 112.899c-3.135 6.062-13.864 21.375-17.707 22.506-2.912.854-11.078-.474-14.877-1.171L231.392 107c1.821.136 2.114 2.191.192 5.899Z" opacity=".1"/><path fill="#7F8A9D" d="m220.115 141.585 32.025 1.867c-.039-.658-5.052-19.096-8.655-26.113-4.619-9.002-6.667-10.374-8.039-10.834-1.746-.587-5.353-.587-6.414 1.113-5.721 9.178-9.354 33.559-8.917 33.967Z"/><path fill="#F7A9A0" d="M240.792 110.598c8.092 9.988 16.934 26.573 12.602 29.781-3.952 2.932-17.628-.789-26.139-4.668-1.624-.736 5.869-15.076 7.511-14.108a48.72 48.72 0 0 0 5.371 2.779c.472.158-1.974-3.191-4.476-11.049-2.541-7.985.507-8.441 5.131-2.735Z"/><path fill="#F7A9A0" d="M213.692 119.377c-.1 1.71 4.118 1.596 4.118 1.596a3.164 3.164 0 0 0-1.371 1.648c-.384 1.244 1.388 2.393 1.388 2.393a3.874 3.874 0 0 0-1.157 1.967c-.249 1.228 1.376 2.63 1.376 2.63a3.426 3.426 0 0 0 .057 2.38c.873 1.998 4.248 2.217 6.296 2.765a44.38 44.38 0 0 1 6.681 2.538l4.668-15.142s-8.711-5.821-11.218-5.834c-2.135-.013-10.685.447-10.838 3.059Z"/><path fill="#263238" d="M217.845 120.929c2.257-.53 4.637-.517 6.934-.482.052 0 .052.083 0 .079-2.284-.061-4.642.486-6.921.513a.059.059 0 0 1-.033-.017.052.052 0 0 1-.016-.033.05.05 0 0 1 .008-.036.055.055 0 0 1 .028-.024ZM217.897 124.842a5.978 5.978 0 0 1 1.581 0c.559.039 1.118.083 1.677.14 1.113.114 2.227.25 3.336.438.052 0 .052.083 0 .079a76.342 76.342 0 0 0-3.345-.263l-1.677-.083a7.066 7.066 0 0 1-1.576-.136.087.087 0 0 1-.085-.09c0-.023.01-.045.027-.061a.085.085 0 0 1 .062-.024ZM218.08 129.623a4.367 4.367 0 0 1 1.424.075l1.524.175c1.017.114 2.035.223 3.056.298a.04.04 0 0 1 .022.016.038.038 0 0 1 .008.026.038.038 0 0 1-.008.025.04.04 0 0 1-.022.016c-1.039-.074-2.074-.131-3.109-.215a75.705 75.705 0 0 1-1.524-.127 3.913 3.913 0 0 1-1.371-.236.043.043 0 0 1-.011-.012.033.033 0 0 1-.004-.015c0-.005.002-.01.004-.015a.057.057 0 0 1 .011-.011Z"/><path fill="#7F8A9D" d="m236.149 122.015-4.196 16.317s20.301 6.495 22.707 1.376c2.406-5.119-8.664-25.174-15.349-31.087-6.685-5.912-4.533 2.954-4.367 3.664.778 3.152 4.743 11.47 4.743 11.47l-3.538-1.74Z"/><path fill="#263238" d="M236.504 122.046c2.318.964 8.353 4.383 9.646 5.741.035.04 0 .101-.053.071-1.288-1.022-8.733-5.194-9.921-5.698a1.693 1.693 0 0 1-.092.18c-.043.057-.074 0-.069-.031a5.16 5.16 0 0 1 .109-.399l.38.136ZM237.774 131.377c.284-1.14 1.389-5.698 1.577-6.863 0 0-.027-.031-.031 0-.397 1.065-1.616 5.539-1.904 6.683a64.135 64.135 0 0 0-1.511 6.881c0 .04.057.066.07.022.751-2.204 1.24-4.475 1.799-6.723Z"/><path fill="#263238" d="M239.87 123.868c-.572-1.442-1.31-2.822-1.921-4.233-.611-1.412-1.31-2.81-1.882-4.234h-.035c.354.968.703 1.937 1.079 2.892a11.184 11.184 0 0 1-.345-.473c-.206-.293-.389-.6-.572-.907h-.031c.137.34.313.664.524.964.159.222.331.435.515.636.158.39.319.775.489 1.165.629 1.425 1.101 2.832 1.939 4.151.031.083.258.092.24.039ZM251.656 141.432c-4.192.591-17.371-2.472-19.615-3.068.039-.241.035-.329.096-.666 0-.044-.061-.07-.074-.022-.083.32-.332.951-.245.995 1.07.486 15.751 3.848 19.838 2.853.061-.005.065-.101 0-.092ZM219.12 135.203l-17.152 1.942-5.983-23.996 17.153-1.941 5.982 23.995Z"/><path fill="#37474F" d="m218.277 135.299-17.152 1.942-5.982-23.996 17.152-1.941 5.982 23.995Z"/><path fill="#F7A9A0" d="M195.208 118.171c-.751 1.99-2.847 4.558-2.908 6.136a1.822 1.822 0 0 0 1.153 1.837s-1.498.902-1.31 2.349c.096.745 1.358 1.249 1.358 1.249s-1.166.78-.926 2.055c.188 1.017 1.428 1.372 1.428 1.372s-.773 1.271-.249 2.244c1.066 1.972 9.882 1.262 10.987-2.108.511-1.569-1.634-1.28-1.634-1.28s2.983-1.166 2.887-2.993c-.096-1.828-2.865-1.28-2.865-1.28s2.882-1.157 2.59-3.042c-.306-1.963-2.978-.942-2.978-.942s1.856-1.49 1.31-2.884c-.917-2.296-4.393.965-6.367.662l-1.31-3.125-1.166-.25Z"/><path fill="#F7A9A0" d="M193.667 121.099c.55-1.95-1.974-4.098-1.716-6.039.353-2.63 3.445-.329 4.388 3.366l.232 2.997-2.904-.324Z"/><path fill="#263238" d="M194.182 133.256a.035.035 0 0 0-.011.01.024.024 0 0 0-.004.015c0 .005.001.01.004.014a.035.035 0 0 0 .011.01c3.072.504 6.225.059 9.039-1.276.092-.044.057-.206-.052-.175a31.309 31.309 0 0 1-8.987 1.402ZM193.452 129.768c-.034 0-.034.057 0 .066 3.057.473 6.865-.07 9.777-2.007.101-.066.127-.228 0-.158-2.03 1.14-6.916 2.117-9.777 2.099ZM202.902 123.567c-2.869 1.754-6.009 2.402-9.327 2.604-.04 0-.035.066 0 .074 1.65.342 3.751 0 5.362-.438a8.83 8.83 0 0 0 4.017-2.156c.053-.027.009-.123-.052-.084Z"/><path fill="#F7A9A0" d="M230.84 112.948c1.873.07 4.406-3.283 5.183-5.746.048-.171-.498-1.753-1.074-3.66-.349-1.174-.703-2.485-.943-3.707-.048-.25-7.271 3.374-7.271 3.374a19.936 19.936 0 0 1 1.66 4.545c.031.168.046.338.043.509v.087c.022.982.59 4.528 2.402 4.598Z"/><path fill="#263238" d="M233.543 99.957c.048 2.139-.249 7.381-4.306 8.279a4.573 4.573 0 0 1-.79.114.324.324 0 0 1 0-.088c-.004-.17-.02-.34-.048-.508a19.882 19.882 0 0 0-1.659-4.549s5.214-2.612 6.803-3.248Z"/><path fill="#F7A9A0" d="M232.425 90.082c1.62 2.398 2.59 10.471 1.24 12.759-1.951 3.317-6.331 4.935-9.432 2.309-3.008-2.55-4.087-13.095-2.471-15.296 2.38-3.238 8.27-3.308 10.663.228Z"/><path fill="#263238" d="M226.412 97.074c0-.022.044.022.048.044.031.547.153 1.17.664 1.315v.03c-.611-.04-.769-.868-.712-1.39Z"/><path fill="#263238" d="M226.849 96.46c.873-.145 1.091 1.612.284 1.752-.808.14-1.013-1.635-.284-1.753ZM223.386 97.472s-.039.03-.039.053c.087.543.096 1.179-.371 1.42v.03c.593-.162.576-1.003.41-1.503Z"/><path fill="#263238" d="M222.827 96.968c-.873.043-.724 1.805.092 1.753.817-.053.646-1.793-.092-1.754ZM227.338 95.276a6.554 6.554 0 0 1-.707-.148 1.173 1.173 0 0 1-.694-.29.389.389 0 0 1 0-.46.92.92 0 0 1 .912-.215c.342.044.654.216.874.482.047.064.074.14.077.22a.398.398 0 0 1-.462.412ZM221.91 96.193c.234-.059.464-.13.69-.215a1.19 1.19 0 0 0 .664-.355.374.374 0 0 0-.044-.438.918.918 0 0 0-.93-.127c-.33.072-.622.266-.816.543a.393.393 0 0 0 .022.442.396.396 0 0 0 .414.15ZM227.181 100.454a1.898 1.898 0 0 1-1.127.982 2.378 2.378 0 0 1-.659.113h-.254a.132.132 0 0 1-.078-.032.138.138 0 0 1-.044-.073.271.271 0 0 1 0-.057v-.048c-.061-.416-.1-1.056-.1-1.056-.144.092-.874.543-.874.324a27.96 27.96 0 0 1 0-5.697c.004-.011.01-.02.019-.028a.052.052 0 0 1 .063 0 .052.052 0 0 1 .019.028c.183 1.753.061 3.506.218 5.259.261-.164.543-.29.839-.377.061 0 .052 1.245.096 1.429a2.57 2.57 0 0 0 1.834-.837c.017-.009.074.022.048.07Z"/><path fill="#263238" d="M225.84 101.446c.281.216.614.353.965.399a.957.957 0 0 0 .55-.114c.363-.21.275-.574.118-.876a2.22 2.22 0 0 0-.306-.438c-.318.48-.784.841-1.327 1.029Z"/><path fill="#FF9BBC" d="M226.797 101.845a.959.959 0 0 0 .55-.114c.362-.21.275-.574.118-.877a.949.949 0 0 0-.668.991Z"/><path fill="#263238" d="M234.687 95.903c-1.965.767-3.755-1.315-3.886-3.397 0 0-5.123 2.376-6.712-1.854a4.41 4.41 0 0 1-2.878 3.015l-.104 1.776c-.599 0-1.664-1.372-.704-3.016 0 0-.567-2.191.612-3.944a3.059 3.059 0 0 1 3.004-1.42 4.627 4.627 0 0 1 2.978-1.801 3.915 3.915 0 0 1 3.415 1.192s2.803-.316 3.838 1.428a4.108 4.108 0 0 1 .437 3.318s.873.535 1.052 2.248c.118 1.096-.463 2.223-1.052 2.455Z"/><path fill="#263238" d="M224.094 90.235c.066.362.17.716.31 1.057.13.338.302.659.511.955a2.824 2.824 0 0 0 1.711 1.162 4.618 4.618 0 0 0 2.127-.119c.341-.118.694-.21 1.035-.35.34-.14.672-.294 1.013-.439-.314.189-.642.368-.961.552-.318.184-.69.28-1.035.439a4.536 4.536 0 0 1-2.235.18 2.972 2.972 0 0 1-1.821-1.315 4.465 4.465 0 0 1-.655-2.122Z"/><path fill="#263238" d="M222.106 93.58c.522-.382.978-.849 1.35-1.38.183-.262.33-.548.436-.85.102-.308.168-.627.197-.951.072.33.072.673 0 1.004a2.638 2.638 0 0 1-.402.942 3.202 3.202 0 0 1-1.581 1.236Z"/><path fill="#F7A9A0" d="M232.722 96.819s1.017-2.985 2.318-2.691c1.302.293 1.035 4.273-.144 5.15a1.39 1.39 0 0 1-1.579.157 1.396 1.396 0 0 1-.425-.364l-.17-2.252Z"/><path fill="#263238" d="M234.936 95.268v.03c-.817.644-1.057 1.648-1.14 2.63a.772.772 0 0 1 .403-.506.766.766 0 0 1 .645-.016c.031 0 0 .053 0 .053a.87.87 0 0 0-.825.552 4.213 4.213 0 0 0-.227.877c0 .096-.179.096-.175 0v-.022c-.354-1.192.083-3.116 1.319-3.598Z"/><path fill="#fff" d="m90.1 17.876-2.469.116c-.154 0-.313-.101-.476-.303-.164-.203-.246-.4-.246-.592 0-.174.275-.284.823-.332.559-.049 1.776-.073 3.653-.073.972 0 1.77.106 2.396.318.635.212.953.447.953.707 0 .183-.159.275-.476.275-.318 0-.76-.02-1.328-.058a33.22 33.22 0 0 0-1.632-.072 1.1 1.1 0 0 1 .043.317c0 .356-.375 2.012-1.125 4.966-.078.308-.193.79-.347 1.444-.154.655-.27 1.112-.347 1.372-.134.51-.255.765-.36.765-.145 0-.308-.106-.491-.318-.174-.221-.26-.443-.26-.664 0-.221.26-1.357.78-3.407.52-2.06.822-3.547.909-4.46Zm7.856 1.747c.433 0 .832.221 1.198.664.366.433.549.828.549 1.184 0 .346-.12.702-.361 1.068.115.144.173.27.173.375 0 .27-.063.732-.188 1.386a51.385 51.385 0 0 0-.216 1.285c-.02.202-.039.366-.058.491-.02.116-.043.231-.072.346-.039.241-.125.361-.26.361-.173 0-.318-.149-.433-.447-.106-.308-.169-.703-.188-1.184-.856 1.088-1.65 1.631-2.382 1.631-.443 0-.88-.187-1.314-.563-.423-.384-.635-.78-.635-1.183 0-.578.212-1.29.635-2.137a8.417 8.417 0 0 1 1.646-2.28c.674-.665 1.309-.997 1.906-.997Zm.664 2.54c0-.894-.178-1.342-.534-1.342-.376 0-.814.27-1.314.809-.5.529-.924 1.13-1.27 1.804-.347.674-.52 1.208-.52 1.603 0 .163.067.298.202.404a.798.798 0 0 0 .476.144c.453 0 .963-.303 1.53-.91.568-.615.963-1.361 1.184-2.237.03-.144.111-.23.246-.26v-.014Zm5.049-5.37c0 1.81-.375 4.158-1.126 7.045-.481 1.964-.818 2.945-1.011 2.945-.134 0-.293-.105-.476-.317-.173-.212-.26-.376-.26-.491 0-.116.14-.712.419-1.79.279-1.078.558-2.401.837-3.97.279-1.578.419-2.998.419-4.259 0-.135.019-.23.057-.289.039-.057.121-.086.246-.086s.303.14.534.418c.241.27.361.534.361.794Zm7.018 3.61c0 .086-.429.539-1.285 1.357a6.028 6.028 0 0 0-.881 1.097c-.26.414-.39.794-.39 1.14 0 .347.102.67.304.968.211.288.438.51.678.663.25.145.477.29.679.434.211.144.317.264.317.36 0 .241-.192.361-.577.361-.376 0-.828-.211-1.357-.635-.52-.433-.842-.914-.967-1.443a2.013 2.013 0 0 1-.116-.275c-.654.886-1.131 1.502-1.429 1.848-.289.337-.505.506-.65.506-.144 0-.303-.111-.476-.333-.173-.23-.26-.418-.26-.563 0-.154.154-.774.462-1.862.318-1.097.63-2.41.938-3.941.318-1.53.477-2.897.477-4.1 0-.154.019-.26.057-.318.049-.057.145-.086.289-.086.145 0 .323.144.534.433.212.279.318.553.318.823 0 .856-.173 2.055-.52 3.594a40.375 40.375 0 0 1-1.241 4.39c1.087-1.55 2.026-2.802 2.815-3.754.799-.963 1.289-1.444 1.472-1.444.193 0 .376.091.549.274.173.183.26.352.26.506Zm7.682 4.937c0 .183.106.274.317.274.366 0 .809-.101 1.328-.303.53-.212.823-.318.881-.318.173 0 .26.092.26.275 0 .279-.289.601-.866.967-.568.366-1.088.549-1.559.549-.462 0-.847-.126-1.155-.376-.308-.26-.462-.524-.462-.794s.057-.611.173-1.025c.115-.423.279-.977.491-1.66.221-.693.394-1.266.519-1.718-.452.106-.755.159-.909.159-.154 0-.308-.077-.462-.231-.144-.164-.217-.318-.217-.462 0-.231.626-.453 1.877-.664.173-.8.26-1.507.26-2.122 0-.29.096-.433.289-.433.163 0 .366.105.606.317.241.202.361.433.361.693 0 .26-.082.717-.245 1.372.548-.049.986-.073 1.313-.073.578 0 .867.125.867.376 0 .144-.159.264-.477.36-.308.097-.962.246-1.963.448a62.25 62.25 0 0 1-.765 2.613c-.308.972-.462 1.564-.462 1.776Zm8.268-3.263a2.66 2.66 0 0 0-.159-.924c-.106-.298-.26-.515-.462-.65-.664.183-1.237.698-1.718 1.545-.472.838-.707 1.627-.707 2.368 0 .74.182 1.203.548 1.386.693-.135 1.28-.607 1.761-1.415.491-.818.737-1.588.737-2.31Zm-3.797.13c.337-.75.775-1.367 1.314-1.848.548-.49 1.106-.736 1.674-.736.578 0 1.059.245 1.444.736.385.481.577 1.073.577 1.776 0 .693-.168 1.405-.505 2.136a5.005 5.005 0 0 1-1.4 1.805c-.587.472-1.213.707-1.877.707-.491 0-.9-.226-1.227-.678-.327-.452-.491-1.025-.491-1.718 0-.703.164-1.43.491-2.18Zm16.017-.13a2.66 2.66 0 0 0-.159-.924c-.106-.298-.26-.515-.462-.65-.664.183-1.236.698-1.718 1.545-.471.838-.707 1.627-.707 2.368 0 .74.183 1.203.549 1.386.693-.135 1.28-.607 1.761-1.415.491-.818.736-1.588.736-2.31Zm-3.797.13c.337-.75.775-1.367 1.314-1.848.549-.49 1.107-.736 1.675-.736.577 0 1.058.245 1.443.736.385.481.578 1.073.578 1.776 0 .693-.169 1.405-.506 2.136a4.983 4.983 0 0 1-1.4 1.805c-.587.472-1.213.707-1.877.707-.49 0-.899-.226-1.227-.678-.327-.452-.491-1.025-.491-1.718 0-.703.164-1.43.491-2.18Zm11.032-2.18a1.12 1.12 0 0 1 .115-.317c.039-.058.12-.087.245-.087.135 0 .294.125.477.375.192.25.289.491.289.722 0 .125-.212.866-.636 2.223-.423 1.357-.75 2.435-.981 3.234-.116.404-.279.607-.491.607a.398.398 0 0 1-.318-.16c-.086-.105-.13-.298-.13-.577 0-.279.111-.784.332-1.516-.404.655-.842 1.194-1.313 1.617-.472.424-.905.636-1.3.636-.385 0-.75-.183-1.097-.55-.346-.365-.519-.74-.519-1.125 0-.915.264-2.055.794-3.422.538-1.376.986-2.064 1.342-2.064.173 0 .323.082.448.245a.79.79 0 0 1 .202.535c0 .086-.13.399-.39.938-.26.53-.52 1.155-.78 1.877-.259.712-.389 1.337-.389 1.876a.56.56 0 0 0 .144.39.472.472 0 0 0 .346.144c.366 0 .799-.322 1.3-.967.51-.645.972-1.395 1.386-2.252.413-.856.721-1.65.924-2.382Zm2.648 1.357-.043-1.082c0-.453.105-.679.317-.679.183 0 .356.12.52.36.173.232.26.511.26.838 0 .318-.01.558-.029.722.837-1.27 1.631-1.906 2.382-1.906.471 0 .707.116.707.347 0 .115-.053.221-.159.317a2.65 2.65 0 0 1-.505.333c-.51.22-.943.563-1.299 1.024-.347.453-.63.968-.852 1.545a44.588 44.588 0 0 0-.534 1.458c-.125.395-.221.703-.289.924a7.188 7.188 0 0 1-.231.65c-.154.385-.332.577-.534.577-.163 0-.298-.091-.404-.274a1.232 1.232 0 0 1-.144-.549c0-.182.081-.538.245-1.068.395-1.212.592-2.392.592-3.537Zm15.352.635c0 .51-.279.93-.837 1.256-.549.318-1.175.477-1.877.477a7.22 7.22 0 0 1-1.891-.231 3.799 3.799 0 0 0-.202 1.14c0 .327.101.583.303.765.212.183.553.275 1.025.275.481 0 .972-.082 1.472-.246.51-.173.789-.26.838-.26.25 0 .375.097.375.29 0 .259-.294.543-.881.85-.587.3-1.159.448-1.718.448-.75 0-1.361-.22-1.833-.664-.472-.452-.707-1.02-.707-1.703s.182-1.396.548-2.137a5.98 5.98 0 0 1 1.415-1.89c.577-.511 1.15-.766 1.718-.766.568 0 1.083.27 1.545.808.471.54.707 1.069.707 1.588Zm-2.18-1.256c-.356 0-.727.188-1.112.563a4.752 4.752 0 0 0-.981 1.372c.385.087.823.13 1.313.13.491 0 .92-.077 1.285-.231.366-.164.549-.376.549-.635 0-.26-.12-.525-.361-.794-.231-.27-.462-.405-.693-.405Zm5.402 1.704c.78-1.05 1.357-1.785 1.733-2.209.384-.423.668-.635.851-.635.183 0 .361.077.534.23.183.155.275.29.275.405a.405.405 0 0 1-.101.274 4.883 4.883 0 0 1-.332.29c-.145.124-.284.259-.419.403-.125.135-.289.328-.491.578-.202.24-.447.544-.736.91-.279.355-.51.644-.693.866.058.086.144.23.26.433.125.202.226.37.303.505.087.135.192.308.318.52.134.202.245.37.332.505.086.125.168.255.245.39.154.25.231.423.231.52a.335.335 0 0 1-.101.245.364.364 0 0 1-.246.087c-.433 0-1.126-.775-2.078-2.325-1.261 1.55-2.026 2.325-2.296 2.325-.154 0-.313-.078-.476-.232-.164-.163-.246-.312-.246-.447 0-.048.106-.178.318-.39.934-.933 1.631-1.694 2.093-2.28-.442-.79-.818-1.521-1.126-2.195-.308-.674-.462-1.078-.462-1.213 0-.144.005-.236.015-.274.019-.087.125-.13.317-.13.193 0 .429.058.708.173.279.116.418.255.418.419 0 .404.284 1.155.852 2.252Zm8.283-2.887c.414 0 .77.264 1.068.794a3.23 3.23 0 0 1 .462 1.645c0 .559-.163 1.122-.49 1.69a6.517 6.517 0 0 1-1.213 1.5 7.098 7.098 0 0 1-1.603 1.113c-.577.288-1.111.433-1.602.433-.192 0-.375-.024-.549-.073l-.202.881c-.096.424-.178.775-.245 1.054s-.144.577-.231.895c-.173.654-.327.982-.462.982s-.274-.106-.419-.318c-.154-.202-.231-.385-.231-.549 0-.163.154-.866.462-2.107.924-3.744 1.386-6.266 1.386-7.565 0-.289.106-.433.318-.433.173 0 .38.13.621.39.25.25.375.529.375.837 0 .154-.019.322-.058.505.857-1.116 1.728-1.674 2.613-1.674Zm-3.522 6.049c.51 0 1.058-.174 1.645-.52a4.91 4.91 0 0 0 1.516-1.372c.424-.577.635-1.15.635-1.718 0-.798-.187-1.198-.563-1.198-.375 0-.885.323-1.53.967-.635.645-1.14 1.483-1.516 2.512l-.332 1.328h.145Zm11.398-3.61c0 .51-.279.93-.837 1.256-.549.318-1.175.477-1.877.477a7.214 7.214 0 0 1-1.891-.231 3.803 3.803 0 0 0-.203 1.14c0 .327.102.583.304.765.211.183.553.275 1.025.275.481 0 .972-.082 1.472-.246.51-.173.789-.26.837-.26.251 0 .376.097.376.29 0 .259-.294.543-.881.85-.587.3-1.16.448-1.718.448-.75 0-1.362-.22-1.833-.664-.472-.452-.708-1.02-.708-1.703s.183-1.396.549-2.137a5.98 5.98 0 0 1 1.415-1.89c.577-.511 1.15-.766 1.718-.766.568 0 1.082.27 1.544.808.472.54.708 1.069.708 1.588Zm-2.18-1.256c-.356 0-.727.188-1.112.563a4.752 4.752 0 0 0-.981 1.372c.385.087.823.13 1.313.13.491 0 .919-.077 1.285-.231.366-.164.549-.376.549-.635 0-.26-.121-.525-.361-.794-.231-.27-.462-.405-.693-.405Zm3.727.621-.043-1.082c0-.453.106-.679.318-.679.183 0 .356.12.519.36.174.232.26.511.26.838 0 .318-.009.558-.029.722.838-1.27 1.632-1.906 2.382-1.906.472 0 .708.116.708.347 0 .115-.053.221-.159.317a2.683 2.683 0 0 1-.505.333c-.51.22-.943.563-1.3 1.024-.346.453-.63.968-.851 1.545-.222.578-.4 1.064-.534 1.458-.126.395-.222.703-.289.924a7.86 7.86 0 0 1-.231.65c-.154.385-.332.577-.534.577-.164 0-.299-.091-.405-.274a1.232 1.232 0 0 1-.144-.549c0-.182.082-.538.245-1.068.395-1.212.592-2.392.592-3.537Zm5.473 3.956c0 .183.105.274.317.274.366 0 .809-.101 1.328-.303.53-.212.823-.318.881-.318.173 0 .26.092.26.275 0 .279-.289.601-.866.967-.568.366-1.088.549-1.559.549-.462 0-.847-.126-1.155-.376-.308-.26-.462-.524-.462-.794s.057-.611.173-1.025c.115-.423.279-.977.491-1.66.221-.693.394-1.266.519-1.718-.452.106-.755.159-.909.159-.154 0-.308-.077-.462-.231-.144-.164-.217-.318-.217-.462 0-.231.626-.453 1.877-.664.173-.8.26-1.507.26-2.122 0-.29.096-.433.289-.433.163 0 .365.105.606.317.241.202.361.433.361.693 0 .26-.082.717-.245 1.372.548-.049.986-.073 1.313-.073.578 0 .866.125.866.376 0 .144-.158.264-.476.36-.308.097-.962.246-1.963.448a62.25 62.25 0 0 1-.765 2.613c-.308.972-.462 1.564-.462 1.776Zm8.037-5.717c.327 0 .635.183.924.549.288.356.433.668.433.938 0 .163-.077.245-.231.245-.106 0-.27-.082-.491-.245-.221-.173-.448-.26-.679-.26-.231 0-.596.135-1.097.404-.491.27-.736.554-.736.852 0 .221.443.601 1.328 1.14.337.212.64.487.91.823.279.328.418.684.418 1.069 0 .375-.264.746-.794 1.111-.519.356-1.131.535-1.833.535-.693 0-1.309-.169-1.848-.506-.529-.337-.794-.654-.794-.953a.43.43 0 0 1 .087-.288.313.313 0 0 1 .245-.116c.096 0 .231.063.404.188.52.375 1.059.563 1.617.563.568 0 .977-.063 1.227-.188.25-.135.376-.308.376-.52 0-.22-.14-.452-.419-.692a5.363 5.363 0 0 0-.924-.665 4.573 4.573 0 0 1-.91-.707c-.279-.28-.418-.563-.418-.852 0-.51.399-1.04 1.198-1.588.808-.558 1.477-.837 2.007-.837Z"/></svg>