<svg xmlns="http://www.w3.org/2000/svg" width="224" height="391" fill="none" viewBox="0 0 224 391"><path fill="#E95454" d="M-158 395.211c62.075 2.592 123.374-14.732 175.175-49.507 51.3-34.636 80.843-91.836 102.1-150.489l43.014 14.967S135.017 342.684 60.481 403.908H-158v-8.697Z"/><g opacity=".6"><path fill="#fff" d="M-158 395.211c62.075 2.592 123.374-14.732 175.175-49.507 51.3-34.636 80.843-91.836 102.1-150.489l43.014 14.967s-27.272 138.58-101.808 193.726H-158v-8.697Z"/></g><path fill="#E95454" d="M114.41 210.744c.321.115.189 1.386-.358 3.708a108.153 108.153 0 0 1-1.122 4.253l-.792 2.686c-.301.956-.66 1.911-1.037 3.02a445.058 445.058 0 0 1-2.564 7.053c-.961 2.571-2.196 5.285-3.45 8.229-1.254 2.944-2.828 6.021-4.355 9.309-1.527 3.288-3.431 6.642-5.345 10.197l-1.461 2.696c-.537.888-1.065 1.787-1.612 2.695l-3.328 5.553-.857 1.424-.943 1.405-1.885 2.867c-1.273 1.911-2.517 3.88-3.894 5.82-2.828 3.823-5.57 7.904-8.776 11.823-1.574 1.978-3.12 4.042-4.807 6.021a1882.703 1882.703 0 0 1-5.147 6.002l-1.31 1.529-1.377 1.481-2.743 2.963-2.828 3.02c-.943 1.013-1.951 1.911-2.941 2.953-1.999 1.959-3.978 3.976-6.052 5.935l-6.391 5.811a275.19 275.19 0 0 1-28.497 21.877 291.258 291.258 0 0 1-61.65 31.004l-7.41 2.59-7.305 2.246-3.582 1.089-3.563.956-6.957 1.806c-2.291.535-4.563.956-6.778 1.482a90.959 90.959 0 0 1-6.599 1.309l-6.325 1.061c-1.037.162-2.055.363-3.073.497l-3.007.363c-3.978.468-7.749.956-11.312 1.185-3.563.229-6.966.564-10.143.554-3.177-.009-6.118.144-8.833.106-2.715-.039-5.194-.211-7.419-.325-1.112-.067-2.158-.106-3.139-.192l-2.762-.324a91.05 91.05 0 0 1-4.298-.622c-2.319-.392-3.526-.774-3.507-1.118.019-.344 1.263-.631 3.582-.879 1.169-.124 2.602-.239 4.289-.344l2.724-.134 3.102-.268c2.187-.178 4.609-.36 7.268-.544 2.649-.239 5.524-.593 8.606-.899 3.083-.306 6.363-.841 9.842-1.309 3.478-.468 7.164-1.233 10.935-1.864l2.912-.525c.943-.182 1.961-.421 2.951-.641l6.108-1.338c2.084-.411 4.167-1.013 6.307-1.558l6.532-1.701 6.684-1.997 3.422-1.023 3.44-1.166 7.023-2.38 7.127-2.704a313.605 313.605 0 0 0 59.388-30.718 290.931 290.931 0 0 0 27.62-20.949l6.25-5.524c2.026-1.864 3.968-3.823 5.938-5.639.943-.956 1.97-1.835 2.894-2.8.924-.966 1.886-1.912 2.772-2.868l2.752-2.867 1.367-1.395 1.301-1.443 5.128-5.687c1.688-1.911 3.234-3.823 4.817-5.734 3.224-3.699 6.033-7.551 8.899-11.163 1.404-1.826 2.687-3.708 3.997-5.505l1.942-2.676.942-1.329.943-1.338 3.497-5.247 1.697-2.532 1.565-2.543c2.055-3.354 4.11-6.499 5.816-9.614 1.706-3.116 3.507-5.954 4.921-8.755 1.414-2.8 2.828-5.352 4.119-7.722 1.292-2.37 2.291-4.626 3.3-6.604.509-.956.942-1.912 1.432-2.8.491-.889.83-1.711 1.198-2.485.754-1.539 1.423-2.868 1.989-3.823 1.121-2.046 1.876-3.078 2.196-2.963ZM116.786 231.131a51.338 51.338 0 0 0-9.955 17.318 4.64 4.64 0 0 0-.031 2.815 4.582 4.582 0 0 0 1.601 2.301 4.476 4.476 0 0 0 2.625.917 4.47 4.47 0 0 0 2.658-.815l.095-.067a190.987 190.987 0 0 0-7.721 23.463 5.713 5.713 0 0 0 .155 3.391 5.632 5.632 0 0 0 2.047 2.686 5.504 5.504 0 0 0 6.386-.027c16.805-12.078 28.719-29.926 33.53-50.233l-31.39-1.749Z"/><g opacity=".3"><path fill="#000" d="M118.286 239.33a8.67 8.67 0 0 0-1.886 2.867 3.033 3.033 0 0 0-.14 1.689c.116.565.39 1.084.791 1.494 1.291 1.108 3.507.439 4.713 1.615 1.207 1.176.528 3.45-.33 5.056l-2.715 5.094c-.659 1.242-1.31 2.867-.452 3.976.858 1.108 2.884.803 4.27.095a22.347 22.347 0 0 0 7.997-7.126 22.748 22.748 0 0 0 3.815-10.077l-16.063-4.683Z"/></g><path fill="#E95454" d="m193.04 170.986.254.373a88.776 88.776 0 0 1 13.778 36.457 89.216 89.216 0 0 1-3.126 38.912l-4.949 15.97-24.462-31.988 18.505-59.724Z"/><path fill="#263238" d="m193.038 170.985-.084.296-.264.87c-.236.765-.566 1.912-1 3.307-.886 2.867-2.168 7.091-3.77 12.377-3.243 10.513-7.806 25.451-13.198 42.931v-.21l22.304 29.15 2.159 2.867-.425.086a4714.98 4714.98 0 0 0 2.923-9.414c.942-3.097 1.951-6.136 2.752-9.147a89.572 89.572 0 0 0 3.054-17.7c.39-5.415.27-10.855-.358-16.247-.226-2.542-.716-4.951-1.103-7.273a49.263 49.263 0 0 0-1.583-6.585 87.846 87.846 0 0 0-7.683-18.885c-1.094-2.141-2.14-3.68-2.772-4.779l-.989-1.653s.094.114.292.391l.773 1.205c.66 1.08 1.744 2.609 2.828 4.778a85.735 85.735 0 0 1 7.796 18.857c.66 2.064 1.084 4.301 1.631 6.604.395 2.332.895 4.779 1.131 7.302a85.83 85.83 0 0 1 .405 16.304 90.082 90.082 0 0 1-3.035 17.806c-.802 3.039-1.82 6.059-2.753 9.156a497.689 497.689 0 0 1-2.913 9.414l-.141.458-.292-.382c-.679-.889-1.424-1.854-2.159-2.867l-22.285-29.169-.066-.096v-.114l13.48-43.056c1.65-5.237 2.951-9.395 3.856-12.262.443-1.405.792-2.485 1.027-3.24l.415-.841c.009-.081.025-.161.047-.239Z"/><path fill="#E95454" d="m103.703 142.554-.424.162a85.607 85.607 0 0 0-31.425 21.623 87.121 87.121 0 0 0-19.111 33.274l-4.874 15.751 37.584-11.909 18.25-58.901Z"/><path fill="#263238" d="M103.703 142.552s0 .086-.076.268c-.075.182-.141.478-.245.822-.226.745-.556 1.825-.943 3.211l-3.714 12.109-13.037 42.54v.124h-.113L51.32 212.502l-3.328 1.052-.443.143.142-.459 2.828-9.28c.942-3.049 1.828-6.069 2.828-8.984a88.717 88.717 0 0 1 7.447-16.152 83.171 83.171 0 0 1 9.426-12.959c1.612-1.912 3.356-3.604 4.977-5.266a47.853 47.853 0 0 1 4.987-4.416 82.452 82.452 0 0 1 16.808-10.761c2.093-1.09 3.77-1.702 4.949-2.199l1.301-.535.462-.153-1.726.774c-1.121.526-2.828 1.166-4.901 2.275A85.246 85.246 0 0 0 80.4 156.477c-1.66 1.31-3.243 2.867-4.95 4.425-1.705 1.558-3.336 3.336-4.93 5.257a83.26 83.26 0 0 0-9.322 12.931 88.906 88.906 0 0 0-7.372 16.027c-1.027 2.868-1.885 5.936-2.828 8.975-.942 3.039-1.885 6.155-2.828 9.289l-.301-.315 3.327-1.051 34.266-10.838-.15.153c5.382-17.203 9.982-31.874 13.196-42.263 1.631-5.199 2.932-9.328 3.828-12.176.443-1.405.792-2.494 1.027-3.249.113-.363.208-.64.274-.851a1.66 1.66 0 0 1 .066-.239Z"/><path fill="#F5F5F5" d="M196.762.389c-7.07-2.246-25.81 12.147-47.482 39.261-21.333 26.703-30.165 53.13-30.165 53.13l-41.28 133.257 34.634 11.029 20.069 6.384 34.634 11.029 37.461-120.919a196.645 196.645 0 0 0 7.626-36.26 235.586 235.586 0 0 0 1.367-37.178C211.91 25.41 203.879 2.644 196.8.389"/><path fill="#263238" d="m196.761.388.311.115.387.153.499.287a10.75 10.75 0 0 1 2.781 2.676c2.084 2.723 4.318 7.34 6.269 13.59a143.873 143.873 0 0 1 4.949 23.406 221.166 221.166 0 0 1 1.499 14.957c.358 5.323.575 10.962.509 16.897-.066 5.935-.377 12.157-.943 18.637a204.601 204.601 0 0 1-2.696 20.128 199.882 199.882 0 0 1-5.184 21.198c-2.219 7.174-4.503 14.568-6.854 22.182-9.426 30.412-19.843 64.12-30.928 99.941l-.066.239-.236-.077-44.663-14.221-44.673-14.231-.236-.067.075-.238c11.105-35.821 21.56-69.53 30.995-99.941a124667.6 124667.6 0 0 1 6.872-22.173l3.29-10.59c1.16-3.46 2.545-6.757 3.959-9.968a207.17 207.17 0 0 1 19.061-33.804 249.167 249.167 0 0 1 20.032-24.62 157.835 157.835 0 0 1 17.269-16.371C184.12 4.44 188.466 1.86 191.737.78c1.209-.44 2.487-.65 3.771-.621l.565.048.405.095.312.086-.321-.057-.396-.086-.565-.048a10.676 10.676 0 0 0-3.771.67c-3.205 1.098-7.541 3.698-12.622 7.77a160.28 160.28 0 0 0-17.129 16.361 250.87 250.87 0 0 0-19.899 24.677 206.961 206.961 0 0 0-18.976 33.766c-1.405 3.211-2.828 6.509-3.931 9.94l-3.28 10.589c-2.219 7.175-4.503 14.569-6.854 22.183-9.426 30.411-19.796 64.129-30.938 99.959l-.16-.315 44.635 14.24 44.663 14.231-.311.163 30.986-99.931 6.872-22.164a199.776 199.776 0 0 0 5.166-21.169c1.31-6.901 2.139-13.62 2.724-20.07.584-6.452.886-12.683.943-18.618a220.05 220.05 0 0 0-.472-16.869c-.358-5.314-.848-10.303-1.47-14.938a144.432 144.432 0 0 0-4.865-23.386c-1.885-6.251-4.119-10.867-6.174-13.591A10.919 10.919 0 0 0 197.911 1l-.49-.296-.377-.153-.283-.163Z"/><path fill="#fff" d="M187.785 129.017c19.743-10.778 27.13-35.742 16.5-55.759-10.631-20.016-35.253-27.506-54.996-16.728-19.743 10.778-27.13 35.742-16.5 55.758 10.631 20.017 35.253 27.506 54.996 16.729Z"/><path fill="#263238" d="M200.353 73.252a1.689 1.689 0 0 1-1.287-.408 1.742 1.742 0 0 1-.598-1.226 3.938 3.938 0 0 1 .886-2.58c.586-.72 1.083-1.51 1.48-2.352a4.041 4.041 0 0 0 .057-2.491 3.985 3.985 0 0 0-1.414-2.039c.452-.2.859-.492 1.198-.856a3.735 3.735 0 0 0 .993-2.731 3.76 3.76 0 0 0-.362-1.44 15.042 15.042 0 0 0-1.792-2.17 8.434 8.434 0 0 1-.876-1.347 5.063 5.063 0 0 0 2.008.707 3.407 3.407 0 0 0 1.694-.282 3.453 3.453 0 0 0 1.35-1.075 3.189 3.189 0 0 0 .236-3.326 2.841 2.841 0 0 0-1.236-1.19 2.795 2.795 0 0 0-1.686-.253 5.427 5.427 0 0 0-2.762 1.912l-.717.793c-.791-2.256-1.489-4.54-3.384-5.85-1.715-1.184-3.949-1.184-5.882-1.91-1.404-.565-2.621-1.53-4.006-2.151-1.386-.621-3.12-.822-4.327.096-.716.535-1.15 1.385-1.885 1.911-1.48 1.1-3.771.583-5.11 1.854-1.084 1.042-1.046 2.8-1.781 4.11-.736 1.31-2.395 2.15-3.771 3-1.376.851-2.771 2.19-2.649 3.824.104 1.433 1.367 2.6 1.452 4.042a8.492 8.492 0 0 1-.848 3.01c-.33.957-.302 2.323.593 2.868l10.087 6.442c3.299 2.771 6.712 5.6 10.803 6.9 4.091 1.3 9.078.698 11.868-2.6a2.484 2.484 0 0 1-1.358-1.223 4.092 4.092 0 0 0 1.736-.633 4.156 4.156 0 0 0 1.29-1.336Z"/><path fill="#263238" d="M190.257 73.875a54.342 54.342 0 0 0 4.883-7.914 19.15 19.15 0 0 0 2.027-9.022c0-.468-.462-3.727-.943-3.823-.32-.066-.33 2.868-.575 3.059a16.125 16.125 0 0 0-4.459 8.382 42.4 42.4 0 0 0-.942 9.318"/><path fill="#EB9481" d="M172.602 96.374c8.173 2.867 13.141-7.952 13.141-7.952l8.314-25.805c2.545-7.378.433-15.033-6.91-17.413l-.688-.182a13.615 13.615 0 0 0-9.964 1.235A13.923 13.923 0 0 0 170 54.016c-2.177 6.413-4.496 13.514-5.345 17.04-1.744 7.293 5.138 10.284 5.138 10.284s-.472 1.663-1.103 3.775c-1.414 4.779-.292 10.303 1.574 10.724l2.338.535Z"/><path fill="#896357" d="M169.793 81.386c3.313.85 6.796.72 10.039-.372 0 0-3.611 4.692-10.596 2.179l.557-1.807Z"/><path fill="#263238" d="M171.311 60.36c-.073.27-.037.558.099.801.136.244.361.423.627.499a.994.994 0 0 0 1.098-.304c.087-.105.153-.225.193-.356.073-.27.037-.557-.099-.801a1.048 1.048 0 0 0-.627-.498.993.993 0 0 0-1.097.304 1.01 1.01 0 0 0-.194.355ZM170.763 57.436c.094.172 1.018-.21 2.121.076 1.103.287 1.763 1.061 1.885.956.123-.105 0-.325-.282-.679a2.922 2.922 0 0 0-1.499-.955 2.792 2.792 0 0 0-1.725.105c-.368.21-.547.42-.5.497ZM181.161 63.371c-.07.27-.033.557.103.8.135.242.359.422.623.5a.994.994 0 0 0 .783-.053 1.024 1.024 0 0 0 .508-.607 1.073 1.073 0 0 0-.095-.798 1.049 1.049 0 0 0-.621-.501 1.008 1.008 0 0 0-1.104.303 1.032 1.032 0 0 0-.197.356ZM181.444 60.695c.094.163 1.018-.21 2.112.077 1.093.286 1.772 1.051 1.885.955.113-.095 0-.315-.283-.669a2.822 2.822 0 0 0-1.489-.955 2.652 2.652 0 0 0-1.725.105c-.368.153-.547.41-.5.487ZM175.326 68.244a8.184 8.184 0 0 0-1.706-.793c-.274-.096-.528-.23-.528-.43a1.53 1.53 0 0 1 .405-.803l1.376-1.911a38.467 38.467 0 0 0 3.309-5.2 38.798 38.798 0 0 0-3.714 4.913l-1.348 1.978c-.262.299-.412.68-.424 1.08a.729.729 0 0 0 .358.545c.144.079.296.143.452.191.587.221 1.198.366 1.82.43ZM178.371 69.86c-.179-.057-.48 1.157-1.725 1.75-1.244.592-2.479.133-2.535.296-.057.162.226.315.763.468.697.19 1.438.125 2.093-.182a2.698 2.698 0 0 0 1.376-1.49c.17-.488.113-.784.028-.842ZM182.622 56.174c0 .335 1.168.478 2.422.956 1.254.478 2.206 1.128 2.442.898.235-.23 0-.44-.349-.85a4.247 4.247 0 0 0-1.687-1.138 4.238 4.238 0 0 0-2.018-.277c-.499.077-.81.258-.81.411ZM172.158 53.842c.132.305.943.239 1.886.468.942.23 1.64.602 1.885.382.245-.22.047-.392-.226-.717a2.68 2.68 0 0 0-1.414-.812 2.578 2.578 0 0 0-1.612.124c-.424.172-.575.383-.519.555Z"/><path fill="#EB9481" d="M192.114 67.853c.132 0 5.298-.201 3.884 4.778-1.414 4.98-5.995 2.476-5.967 2.332.028-.143 2.083-7.11 2.083-7.11Z"/><path fill="#896357" d="M192.049 73.481s.066.086.188.191c.18.142.404.214.632.201.565 0 1.235-.736 1.517-1.615.134-.42.173-.864.114-1.3a1.032 1.032 0 0 0-.444-.85.464.464 0 0 0-.575.086c-.103.124-.094.229-.122.229-.028 0-.085-.115 0-.306a.611.611 0 0 1 .283-.248.67.67 0 0 1 .509 0 1.244 1.244 0 0 1 .66 1.023c.084.487.052.989-.095 1.462-.32.955-1.084 1.768-1.885 1.768a.937.937 0 0 1-.735-.364c-.047-.152-.047-.277-.047-.277Z"/><path fill="#263238" d="M175.543 46.837c-.651-.679 2.46-2.542 4.656-2.867 3.309-.45 8.004.076 10.464 1.663 2.951 1.911 5.156 4.367 5.901 7.846.66 3.513.39 7.14-.782 10.513a6.2 6.2 0 0 1-1.575 2.79c-.999.88-2.498 1.167-2.884 2.687a2.172 2.172 0 0 1-.943 1.347c-1.178.688-1.989-.545-2.224-1.596-.5-2.246.066-4.578.622-6.814a15.273 15.273 0 0 1 1.687-4.588c.481-.745 1.094-1.405 1.537-2.17a3.129 3.129 0 0 0 .377-2.56 2.882 2.882 0 0 0-.274-.526 5.302 5.302 0 0 0-2.024-1.893 5.218 5.218 0 0 0-2.689-.602c-3.017.153-8.107.191-9.05-1.118a7.796 7.796 0 0 1-1.508-2.867l-1.291.755Z"/><path fill="#263238" d="M190.607 44.917a11.067 11.067 0 0 0-3.961-1.862 10.986 10.986 0 0 0-4.363-.174 5.742 5.742 0 0 0-2.187.786 5.82 5.82 0 0 0-1.706 1.594 3.398 3.398 0 0 0 .462 4.3l.075.086c1.886 1.339 3.29 1.463 5.562 1.367 1.885-.086 3.771-.698 5.656-.764 2.05-.074 4.076.475 5.816 1.577a16.975 16.975 0 0 0-5.354-6.91Z"/><path fill="#455A64" d="M198.29 52.715c-.057 0-.302-.574-.943-1.377a7.921 7.921 0 0 0-1.216-1.261 4.632 4.632 0 0 0-1.885-.956 6.859 6.859 0 0 0-3.771.335c-.943.363-1.433.755-1.47.707-.038-.048.103-.134.33-.306a5.074 5.074 0 0 1 1.046-.621 6.517 6.517 0 0 1 3.969-.45 4.696 4.696 0 0 1 1.989 1.052c.463.392.869.85 1.206 1.357.352.447.606.965.745 1.52ZM198.231 54.568a4.598 4.598 0 0 1-.801 1.281 10.577 10.577 0 0 1-2.734 2.399 10.587 10.587 0 0 1-3.374 1.319 4.058 4.058 0 0 1-1.49.105 15.432 15.432 0 0 0 4.714-1.72 15.927 15.927 0 0 0 3.685-3.384ZM199.949 55.984a1.867 1.867 0 0 1-.151.564c-.189.498-.416.98-.679 1.443a10.854 10.854 0 0 1-3.61 3.737 10.431 10.431 0 0 1-4.921 1.557 8.692 8.692 0 0 1-1.574 0 1.923 1.923 0 0 1-.566-.114c0-.067.82 0 2.121-.086a11.047 11.047 0 0 0 4.763-1.617c1.446-.9 2.67-2.122 3.58-3.573.679-1.147.98-1.93 1.037-1.911ZM185.215 42.71c-.476.055-.954.083-1.433.085a10.906 10.906 0 0 0-6.241 2.562c-.669.564-1.036.956-1.074.956.244-.431.563-.814.942-1.128a9.502 9.502 0 0 1 6.382-2.619c.479-.034.961.015 1.424.143ZM203.692 49.273a5.825 5.825 0 0 1-2.075 2.339 5.71 5.71 0 0 1-2.969.91c.982-.3 1.93-.703 2.828-1.203a14.715 14.715 0 0 0 2.216-2.046ZM203.558 99.545c-2.027-4.368-16.968-11.344-16.968-11.344a18.28 18.28 0 0 1-5.703 6.116c-3.771 2.38-8.229 1.53-11.595-1.041-3.176-2.438-2.083-7.197-2.083-7.197s-16.431-.841-21.163 1.778c-4.732 2.618-7.371 10.293-7.371 10.293l-5.911 13.59 6.212 9.213 2.725 2.676s7.192 7.426 20.465 9.749c12.386 2.169 23.133-3.173 23.133-3.173 6.598-2.246 12.358-7.646 17.656-15.082.019.029 2.96-10.455.603-15.578Z"/><path fill="#EB9481" d="M138.741 90.228s3.865-4.912 4.166-6.881l1.527-10.513s-.565-1.185-2.036.162c-1.47 1.348-1.122 3.938-1.122 3.938l-1.234 2.217-.707-2.15.546-7.168s.509-5.152-.386-4.865c-.896.287-1.508 1.653-1.735 3.88-.226 2.227-.49 5.037-.49 5.037s-.141.87-.518-.765c-.377-1.634.443-7.78.367-8.659-.075-.879.406-3.03-.81-3.259-1.216-.229-1.292 2.657-1.292 2.657l-1.329 9.06s-.123-3.822-.16-4.491c-.038-.67.169-2.676.066-3.823-.104-1.147-.556-1.912-1.103-1.969a1.008 1.008 0 0 0-.747.119 1.033 1.033 0 0 0-.46.607l-.349 7.98s0 3.69-.113 3.881c-.113.191-.942-1.797-.942-1.797l-.264-2.695s.188-3.66-.698-4.024c-.886-.363-1.112.325-1.112.325l-.283 6.69.735 7.904 1.772 7.952 2.885.573 5.826.077Z"/><path fill="#896357" d="M131.718 84.255c.462-.459.89-.95 1.282-1.472a6.075 6.075 0 0 1 3.771-2.284 3.186 3.186 0 0 1 2.092.44l.208.133.132-.239c.565-1.051 1.206-1.978 1.565-2.647.358-.67.565-1.09.509-1.109a5.194 5.194 0 0 0-.745.956 31.052 31.052 0 0 0-1.753 2.619l.339-.106a3.58 3.58 0 0 0-2.394-.544 4.943 4.943 0 0 0-2.48 1.013 8.26 8.26 0 0 0-1.517 1.538 5.616 5.616 0 0 0-1.009 1.702Z"/><path fill="#455A64" d="m166.917 86.089 2.375-3.775 6.175 8.219-.679 3.698 1.47-3.555 11.162-6.594-.472 4.72-5.052 6.634-6.675 2.81-4.92-1.864s-3.837-1.415-3.771-1.73c.066-.315.387-8.563.387-8.563Z"/><path fill="#E95454" d="m172.328 94.421.565 3.145 2.281.602 2.065-2.323-.519-2.742-2.705-.765-1.687 2.083Z"/><path fill="#263238" d="M175.467 90.532a6.932 6.932 0 0 1-.942 1.444c-.651.87-1.584 2.083-2.678 3.46l-.235.296-.16-.344a30.088 30.088 0 0 0-.943-1.912c-.943-2.064-1.801-3.947-2.385-5.323a12.602 12.602 0 0 1-.858-2.265c.479.65.887 1.352 1.216 2.093a194.27 194.27 0 0 1 2.517 5.266l.896 1.911-.406-.047c1.122-1.358 2.102-2.533 2.828-3.346.334-.456.72-.87 1.15-1.233ZM187.203 87.962a14.915 14.915 0 0 1-1.98 1.911 269.094 269.094 0 0 1-5.005 4.444l-2.715 2.361-.302.258-.066-.392c-.302-1.72-.547-3.182-.707-4.224a7.848 7.848 0 0 1-.17-1.653c.216.513.365 1.053.443 1.605.236 1.023.538 2.476.877 4.186l-.368-.133 2.687-2.361c1.97-1.71 3.771-3.24 5.1-4.33a15.894 15.894 0 0 1 2.206-1.672Z"/><path fill="#E95454" d="m211.175 116.988 1.207-6.738a31.517 31.517 0 0 0-5.062-6.202 12.556 12.556 0 0 0-7.608-3.823c-3.77-.306-7.324 1.701-10.435 3.889-3.111 2.189-6.165 4.684-9.832 5.601a5.996 5.996 0 0 1-4.223-.229c-1.951-1.013-2.734-3.546-2.404-5.735a16.217 16.217 0 0 1 2.725-6.02l-2.47-.775a42.41 42.41 0 0 0-3.941 6.786 10.749 10.749 0 0 0-.546 6.69 9.57 9.57 0 0 0 2.772 4.197 9.381 9.381 0 0 0 4.496 2.178 14.52 14.52 0 0 0 9.747-1.788c2.686-1.452 5.118-3.545 8.088-4.272a10.243 10.243 0 0 1 6.109.585 10.41 10.41 0 0 1 4.713 3.984l6.664 1.672Z"/><path fill="#263238" d="M141.031 123.439c-.131 0 .943-5.811 2.338-12.922 1.395-7.11 2.696-12.854 2.828-12.825.132.028-.942 5.81-2.347 12.921s-2.705 12.893-2.819 12.826Z"/><path fill="#455A64" d="m128.07 89.358 12.716.956-.584 29.733-.161 2.045s-10.472-11.631-11.311-21.026c-.18-1.997-.604-3.584-.707-4.989-.33-5.237.047-6.719.047-6.719Z"/><path fill="#263238" d="M140.004 119.616a4.658 4.658 0 0 1 0-1.156c0-.842.048-1.912.076-3.135.066-2.648.085-6.318.122-10.36.038-4.043.104-7.723.246-10.38.066-1.319.132-2.398.207-3.134.006-.388.06-.773.16-1.147.037.384.037.772 0 1.156v3.145c0 2.762-.066 6.365-.104 10.36-.037 3.995-.113 7.722-.263 10.369-.076 1.329-.151 2.399-.236 3.145a5.851 5.851 0 0 1-.208 1.137Z"/><path fill="#263238" d="M128.627 85.21a.98.98 0 0 1 0 .296c0 .22-.057.507-.095.86-.075.755-.245 1.912-.367 3.307a42.49 42.49 0 0 0 3.648 20.071 41 41 0 0 0 12.452 15.683 40.98 40.98 0 0 0 9.88 5.496 38.518 38.518 0 0 0 10.972 2.561c3.499.332 7.025.178 10.483-.459a38.734 38.734 0 0 0 9.106-2.781 42.05 42.05 0 0 0 3.874-1.912c1.197-.697 2.319-1.443 3.375-2.15a21.875 21.875 0 0 0 2.828-2.255c.82-.775 1.687-1.472 2.385-2.208l1.951-2.074 1.489-1.864.632-.793.509-.736.783-1.156.499-.708c.052-.085.112-.165.179-.239 0 0 0 .096-.141.268l-.453.726-.754 1.195-.481.755c-.198.249-.405.526-.622.812l-1.47 1.912-1.886 2.103c-.697.755-1.546 1.452-2.385 2.255-.838.803-1.885 1.491-2.828 2.303-.942.813-2.177 1.482-3.384 2.199a38.483 38.483 0 0 1-3.902 1.978 40.024 40.024 0 0 1-30.901.774 41.357 41.357 0 0 1-10.03-5.601 41.072 41.072 0 0 1-12.537-15.903 42.082 42.082 0 0 1-3.488-20.28c.151-1.434.358-2.543.462-3.298l.132-.86c.019-.095.047-.188.085-.277ZM207.726 103.512a7.96 7.96 0 0 1 .245-1.462c.207-.956.433-2.303.641-3.986a43.165 43.165 0 0 0-.491-13.236 46.073 46.073 0 0 0-1.998-7.025 46.584 46.584 0 0 0-2.517-5.41c-.386-.754-.801-1.404-1.15-1.978-.349-.573-.66-1.07-.943-1.462-.291-.4-.553-.822-.782-1.262.347.353.663.737.943 1.147.357.457.691.932.999 1.424.377.564.811 1.204 1.225 1.912a41.07 41.07 0 0 1 2.63 5.41 43.55 43.55 0 0 1 2.074 7.1c.854 4.41.972 8.932.349 13.38a33.158 33.158 0 0 1-.801 3.976c-.098.503-.24.995-.424 1.472ZM167.756 51.588a6.516 6.516 0 0 1-1.367.162c-.443 0-.942.077-1.602.163-.66.086-1.339.143-2.112.296a42.839 42.839 0 0 0-5.401 1.242 44.7 44.7 0 0 0-6.316 2.485 46.084 46.084 0 0 0-5.835 3.48 43.76 43.76 0 0 0-4.308 3.526c-.603.525-1.094 1.051-1.546 1.49-.453.44-.82.851-1.112 1.176a7.529 7.529 0 0 1-.943.956c.244-.399.525-.773.839-1.118.273-.354.622-.774 1.056-1.243.433-.468.942-1.013 1.498-1.558a40.783 40.783 0 0 1 4.29-3.64 39.358 39.358 0 0 1 12.254-6.032 38.492 38.492 0 0 1 5.477-1.146c.792-.134 1.508-.163 2.14-.23a14.95 14.95 0 0 1 1.621-.076c.457-.014.914.008 1.367.067Z"/><path fill="#263238" d="M162.931 133.809c-.132 0 1.244-4.846 3.064-10.733 1.819-5.887 3.403-10.628 3.535-10.589.131.038-1.245 4.845-3.064 10.732-1.819 5.888-3.413 10.628-3.535 10.59ZM203.888 42.43v.278c-.066.267-.181.52-.339.745a2.958 2.958 0 0 1-1.137 1 2.913 2.913 0 0 1-1.474.3 3.629 3.629 0 0 1-1.886-.85 3.454 3.454 0 0 0-1.951-.88 3.524 3.524 0 0 0-2.206.765 12.751 12.751 0 0 0-1.885 1.911 16.918 16.918 0 0 1-4.063 3.48 9.94 9.94 0 0 1-4.138 1.356 7.502 7.502 0 0 1-2.913-.315 2.959 2.959 0 0 1-.943-.459 9.464 9.464 0 0 0 3.846.42 9.815 9.815 0 0 0 3.95-1.404c1.47-.93 2.792-2.08 3.922-3.412a12.846 12.846 0 0 1 1.979-1.912 3.97 3.97 0 0 1 2.517-.831 3.841 3.841 0 0 1 2.159 1.003 3.367 3.367 0 0 0 1.687.832c.451.017.899-.076 1.308-.27a2.828 2.828 0 0 0 1.039-.848c.206-.284.383-.588.528-.908ZM203.795 49.418s.226 0 .603.105a5.44 5.44 0 0 1 1.546.698c.376.239.685.57.901.963a2.7 2.7 0 0 1 .334 1.283 3.763 3.763 0 0 1-.561 1.509c-.293.455-.681.84-1.136 1.129a5.257 5.257 0 0 1-2.941.955 5.054 5.054 0 0 1-2.451-.63 4.734 4.734 0 0 1-1.31-1.07c-.254-.316-.349-.517-.33-.536.548.5 1.153.933 1.801 1.29.712.34 1.493.507 2.281.488a4.97 4.97 0 0 0 2.658-.956c.396-.25.738-.58 1.002-.97s.446-.83.535-1.295a2.365 2.365 0 0 0-.264-1.08 2.315 2.315 0 0 0-.726-.832 7.279 7.279 0 0 0-1.405-.803c-.348-.114-.546-.22-.537-.248ZM172.969 232.554c0 .134-19.909-5.954-44.372-13.581-24.462-7.627-44.305-13.925-44.23-14.059.076-.134 19.91 5.954 44.381 13.581 24.472 7.627 44.258 13.897 44.221 14.059ZM171.311 236.462c0 .134-19.91-5.944-44.372-13.571S82.7 208.966 82.7 208.832c0-.134 19.9 5.945 44.371 13.581 24.472 7.636 44.296 13.925 44.24 14.049ZM170.075 240.754c0 .124-19.909-5.954-44.371-13.581-24.462-7.626-44.305-13.925-44.23-14.059.076-.133 19.9 5.945 44.372 13.581 24.471 7.637 44.267 13.925 44.229 14.059ZM168.821 245.035c0 .134-19.909-5.954-44.371-13.58-24.462-7.627-44.306-13.925-44.23-14.059.075-.134 19.909 5.954 44.381 13.581 24.471 7.626 44.258 13.925 44.22 14.058ZM167.539 249.317c-.047.133-19.909-5.945-44.371-13.581-24.462-7.637-44.305-13.925-44.23-14.05.076-.124 19.938 5.926 44.409 13.572 24.472 7.646 44.268 13.925 44.192 14.059Z"/><path fill="#E0E0E0" d="M148.507 156.89a2.652 2.652 0 0 1-.095.65c-.056.439-.245 1.041-.452 1.844-.424 1.587-1.084 3.823-1.933 6.69-1.696 5.629-4.128 13.38-6.853 21.886a2218.048 2218.048 0 0 1-7.107 21.81c-.943 2.743-1.669 4.98-2.216 6.585-.254.736-.471 1.329-.631 1.787a3.272 3.272 0 0 1-.245.612c.027-.221.078-.439.15-.65l.547-1.806c.5-1.625 1.207-3.88 2.065-6.633l6.966-21.857c2.724-8.497 5.185-16.248 6.985-21.839.877-2.752 1.584-5.008 2.093-6.623.226-.784.443-1.395.537-1.806.051-.221.114-.437.189-.65Z"/><path fill="#263238" d="M175.467 97.901c0 .134-.641.106-1.366-.066-.726-.172-1.292-.42-1.264-.555.029-.133.641-.105 1.377.067.735.172 1.282.42 1.253.555Z"/><path fill="#EBEBEB" d="M193.039 170.986c-.047.124-19.909-6.069-44.371-13.839-24.462-7.77-44.305-14.174-44.23-14.336.076-.163 19.9 6.059 44.371 13.829 24.472 7.77 44.268 14.212 44.23 14.346Z"/><path fill="#E0E0E0" d="M142.086 203.137c.198-.135.43-.211.669-.219a2.94 2.94 0 0 1 1.886.449c.43.256.787.624 1.032 1.066a2.9 2.9 0 0 1 .363 1.447 3.084 3.084 0 0 1-.523 1.769c-.35.521-.85.92-1.432 1.142a2.97 2.97 0 0 1-1.819.097 3.007 3.007 0 0 1-1.543-.982 2.9 2.9 0 0 1-.584-2.867 2.945 2.945 0 0 1 1.121-1.577c.184-.159.411-.259.651-.286 0 0-.217.143-.528.439-.46.397-.789.928-.943 1.52a2.549 2.549 0 0 0 .585 2.418c.345.403.804.69 1.314.822a2.548 2.548 0 0 0 1.542-.085 2.593 2.593 0 0 0 1.219-.962c.3-.44.46-.961.459-1.496a2.542 2.542 0 0 0-1.131-2.207 2.97 2.97 0 0 0-1.669-.545c-.452.029-.669.105-.669.057ZM150.507 177.533c.197-.138.429-.214.669-.22a2.977 2.977 0 0 1 1.885.449c.429.258.783.627 1.027 1.068.243.441.367.94.359 1.446.01.63-.173 1.248-.523 1.769-.35.521-.85.92-1.432 1.142a2.985 2.985 0 0 1-3.362-.885 2.9 2.9 0 0 1-.584-2.867 3.021 3.021 0 0 1 1.084-1.52c.185-.154.412-.251.65-.277 0 0-.207.143-.528.43a3.087 3.087 0 0 0-.942 1.529 2.54 2.54 0 0 0-.03 1.287c.101.424.309.814.605 1.131.361.372.815.637 1.313.767s1.022.119 1.515-.031a2.752 2.752 0 0 0 1.193-.985c.297-.437.465-.95.485-1.481a2.532 2.532 0 0 0-.273-1.25 2.494 2.494 0 0 0-.849-.948 3.103 3.103 0 0 0-1.678-.554c-.33-.029-.575.048-.584 0ZM137.082 136.177c.198-.135.43-.211.669-.219.66-.068 1.324.09 1.885.449a2.84 2.84 0 0 1 1.032 1.066c.246.441.371.941.364 1.447a3.092 3.092 0 0 1-.523 1.769c-.35.522-.85.92-1.432 1.142a2.97 2.97 0 0 1-1.819.097 3.007 3.007 0 0 1-1.543-.982 2.9 2.9 0 0 1-.584-2.867 2.945 2.945 0 0 1 1.121-1.577c.184-.159.411-.259.651-.286 0 0-.208.143-.528.43a3.092 3.092 0 0 0-.943 1.529 2.549 2.549 0 0 0 .585 2.418c.345.403.803.69 1.314.822a2.548 2.548 0 0 0 1.542-.085 2.587 2.587 0 0 0 1.219-.962c.3-.44.46-.961.459-1.495a2.544 2.544 0 0 0-1.131-2.208 2.975 2.975 0 0 0-1.669-.545c-.377.029-.66.105-.669.057Z"/><path fill="#EBEBEB" d="M135.611 116.997c.123 0-2.064 7.35-4.883 16.324-2.818 8.974-5.222 16.248-5.354 16.181-.132-.067 2.055-7.35 4.883-16.334s5.232-16.209 5.354-16.171Z"/><g opacity=".3"><path fill="#000" d="M85.934 199.898s12.848-38.392 17.769-57.344c-6.495 7.875-13.82 16.916-17.637 26.416a43.391 43.391 0 0 0-.132 30.928Z"/></g><path fill="#E95454" d="M100 301.922a4.782 4.782 0 0 0-2.96 2.107 4.902 4.902 0 0 0-.657 3.606 4.847 4.847 0 0 0 2.023 3.04 4.728 4.728 0 0 0 3.544.732 4.775 4.775 0 0 0 3.035-1.994 4.898 4.898 0 0 0 .788-3.579 4.861 4.861 0 0 0-1.91-3.114 4.733 4.733 0 0 0-3.515-.865"/></svg>