<svg width="141" height="37" viewBox="0 0 141 37" fill="none" xmlns="http://www.w3.org/2000/svg">
<g clip-path="url(#clip0_25121_16990)">
<path d="M81.7612 10.2538L89.7934 7.2631L81.7612 4.18697V0L95.5182 5.55415V8.97208L81.7612 14.5262V10.2538Z" fill="#A100FF"/>
<path d="M5.79781 36.7427C2.89255 36.7427 0.5 35.29 0.5 32.0431V31.8722C0.5 27.9416 3.91793 26.5744 8.1049 26.5744H10.0702V25.8054C10.0702 24.1819 9.38663 23.2419 7.67765 23.2419C6.1396 23.2419 5.37056 24.0964 5.28511 25.2927H1.01269C1.35448 21.7038 4.17427 19.9949 7.934 19.9949C11.7792 19.9949 14.599 21.6184 14.599 25.6345V36.401H10.2411V34.5211C9.38663 35.7172 7.934 36.7427 5.79781 36.7427ZM10.0702 31.1032V29.5651H8.27579C6.05415 29.5651 4.94332 30.1632 4.94332 31.6159V31.7868C4.94332 32.8976 5.62691 33.6666 7.16496 33.6666C8.70304 33.5812 10.0702 32.7267 10.0702 31.1032ZM24.7673 36.7427C20.324 36.7427 17.077 34.0084 17.077 28.5397V28.2834C17.077 22.8147 20.4949 19.9094 24.7673 19.9094C28.4416 19.9094 31.4323 21.7893 31.7741 25.9763H27.5017C27.2453 24.4382 26.3909 23.4128 24.8528 23.4128C22.9729 23.4128 21.6057 24.9509 21.6057 28.1125V28.6251C21.6057 31.8722 22.802 33.3248 24.8528 33.3248C26.3909 33.3248 27.5017 32.214 27.758 30.4196H31.8596C31.6032 34.1793 29.1252 36.7427 24.7673 36.7427ZM41.5152 36.7427C37.0721 36.7427 33.8249 34.0084 33.8249 28.5397V28.2834C33.8249 22.8147 37.2427 19.9094 41.5152 19.9094C45.1894 19.9094 48.1801 21.7893 48.5222 25.9763H44.2497C43.9931 24.4382 43.1387 23.4128 41.6007 23.4128C39.7207 23.4128 38.3538 24.9509 38.3538 28.1125V28.6251C38.3538 31.8722 39.55 33.3248 41.6007 33.3248C43.1387 33.3248 44.2497 32.214 44.5059 30.4196H48.6073C48.3511 34.1793 45.8732 36.7427 41.5152 36.7427ZM58.3485 36.7427C53.7343 36.7427 50.5729 34.0084 50.5729 28.6251V28.2834C50.5729 22.9001 53.9053 19.9094 58.2629 19.9094C62.2792 19.9094 65.6116 22.1311 65.6116 27.5143V29.4796H55.1015C55.2726 32.3849 56.5543 33.4957 58.434 33.4957C60.143 33.4957 61.083 32.5558 61.4247 31.445H65.6116C65.0989 34.4356 62.5354 36.7427 58.3485 36.7427ZM55.187 26.489H61.1685C61.083 24.0964 59.9719 23.071 58.1778 23.071C56.8105 23.1565 55.5288 23.9255 55.187 26.489ZM68.3461 20.3367H72.8748V22.7292C73.6438 21.1911 75.2672 19.9949 77.7452 19.9949C80.6507 19.9949 82.6159 21.7893 82.6159 25.6345V36.401H78.0873V26.3181C78.0873 24.4382 77.3179 23.5837 75.6945 23.5837C74.1565 23.5837 72.8748 24.5236 72.8748 26.5744V36.401H68.3461V20.3367ZM90.9043 15.4661V20.3367H93.9805V23.6692H90.9043V31.2741C90.9043 32.4704 91.417 33.0685 92.5277 33.0685C93.2115 33.0685 93.6388 32.983 94.066 32.8121V36.3155C93.5532 36.4865 92.6132 36.6572 91.5025 36.6572C87.9991 36.6572 86.3756 35.0338 86.3756 31.7868V23.6692H84.4956V20.3367H86.3756V17.346L90.9043 15.4661ZM110.899 36.401H106.456V34.0084C105.687 35.5465 104.149 36.7427 101.756 36.7427C98.8512 36.7427 96.715 34.9482 96.715 31.1886V20.3367H101.244V30.5905C101.244 32.4704 102.013 33.3248 103.551 33.3248C105.089 33.3248 106.371 32.2995 106.371 30.3341V20.3367H110.899V36.401ZM114.232 20.3367H118.76V23.3274C119.7 21.1911 121.239 20.1658 123.631 20.1658V24.6091C120.555 24.6091 118.76 25.549 118.76 28.1979V36.4865H114.232V20.3367ZM132.774 36.7427C128.16 36.7427 124.998 34.0084 124.998 28.6251V28.2834C124.998 22.9001 128.331 19.9094 132.689 19.9094C136.705 19.9094 140.037 22.1311 140.037 27.5143V29.4796H129.613C129.783 32.3849 131.065 33.4957 132.945 33.4957C134.654 33.4957 135.594 32.5558 135.936 31.445H140.123C139.439 34.4356 136.961 36.7427 132.774 36.7427ZM129.527 26.489H135.594C135.508 24.0964 134.398 23.071 132.603 23.071C131.236 23.1565 129.954 23.9255 129.527 26.489Z" fill="black"/>
</g>
<defs>
<clipPath id="clip0_25121_16990">
<rect width="139.623" height="37" fill="white" transform="translate(0.5)"/>
</clipPath>
</defs>
</svg>
