<svg width="117" height="37" viewBox="0 0 117 37" fill="none" xmlns="http://www.w3.org/2000/svg">
<g clip-path="url(#clip0_25121_18372)">
<path fill-rule="evenodd" clip-rule="evenodd" d="M14.4009 33.1248L5.49173 28.1784C3.90462 27.1171 3.51515 25.9487 3.1841 24.3616L1.54831 12.8819C1.52883 12.7163 1.71383 12.6969 1.74304 12.8332C2.98936 16.8837 9.34752 18.1398 12.4438 20.165C13.1254 20.6421 13.8751 21.2555 14.4107 21.8884C14.9365 21.2555 15.6862 20.6421 16.3775 20.165C19.4738 18.13 25.832 16.8837 27.0783 12.8332C27.1075 12.6969 27.3023 12.7261 27.273 12.8819L25.6373 24.3616C25.2965 25.9487 24.907 27.1171 23.3296 28.1784L14.4204 33.1248H14.4009Z" fill="#005EA3"/>
<path fill-rule="evenodd" clip-rule="evenodd" d="M14.401 20.5155C14.7613 20.5155 14.6347 19.4542 16.4165 18.4416C19.9705 16.1048 27.1855 15.1019 27.2439 8.59765V3.98239C27.2439 3.88502 27.1563 3.89476 27.1465 3.98239C26.2702 8.20818 19.7368 9.23054 16.4165 11.4116C15.0144 12.3366 14.5276 13.9919 14.401 15.1798C14.2647 14.0016 13.7876 12.3463 12.3855 11.4116C9.07495 9.24028 2.54153 8.21791 1.65547 3.98239C1.64574 3.89476 1.55811 3.88502 1.55811 3.98239V8.59765C1.61653 15.1019 8.82179 16.1048 12.3855 18.4416C14.1673 19.4542 14.0505 20.5155 14.401 20.5155Z" fill="#6ABD46"/>
<path fill-rule="evenodd" clip-rule="evenodd" d="M14.4006 -0.087616C16.903 -0.087616 18.938 1.95712 18.938 4.44975C18.938 6.94238 16.8933 8.98712 14.4006 8.98712C11.908 8.98712 9.86328 6.95212 9.86328 4.44975C9.86328 1.94738 11.8983 -0.087616 14.4006 -0.087616Z" fill="#F16636"/>
<path fill-rule="evenodd" clip-rule="evenodd" d="M1.20737 36.0945H0.399211V36.7274H1.30474V37.0584H0V34.8969H1.25605V35.2182H0.399211V35.7732H1.20737V36.0945Z" fill="#005EA3"/>
<path fill-rule="evenodd" clip-rule="evenodd" d="M1.89855 35.4908L2.08355 35.7829C2.13223 35.8608 2.18092 35.9484 2.2296 36.0263C2.27829 35.9387 2.31723 35.8608 2.36592 35.7829L2.54118 35.4908H2.9696L2.44381 36.2406L2.97934 37.0487H2.53144L2.34644 36.7371C2.29776 36.6495 2.24908 36.5716 2.20039 36.484C2.15171 36.5716 2.11276 36.6495 2.05434 36.7371L1.87908 37.0487H1.44092L1.98618 36.2503L1.46039 35.4811H1.89855V35.4908Z" fill="#005EA3"/>
<path fill-rule="evenodd" clip-rule="evenodd" d="M4.36204 37.0097C4.27441 37.0487 4.11862 37.0876 3.92388 37.0876C3.43704 37.0876 3.11572 36.776 3.11572 36.2892C3.11572 35.8023 3.43704 35.4615 3.9823 35.4615C4.12835 35.4615 4.27441 35.4908 4.36204 35.5297L4.29388 35.8315C4.22572 35.8023 4.13809 35.7731 3.99204 35.7731C3.6902 35.7731 3.51493 35.9971 3.51493 36.2794C3.51493 36.6008 3.71941 36.7858 3.99204 36.7858C4.12835 36.7858 4.22572 36.7566 4.30362 36.7273L4.36204 37.0194V37.0097Z" fill="#005EA3"/>
<path fill-rule="evenodd" clip-rule="evenodd" d="M4.84895 36.3865C4.84895 36.6689 5.07289 36.7858 5.32605 36.7858C5.51105 36.7858 5.63763 36.7565 5.75447 36.7176L5.81289 36.9902C5.67658 37.0487 5.49158 37.0876 5.26763 37.0876C4.76131 37.0876 4.45947 36.776 4.45947 36.2989C4.45947 35.8705 4.72237 35.4615 5.21895 35.4615C5.71553 35.4615 5.89079 35.8802 5.89079 36.221C5.89079 36.2989 5.89079 36.3573 5.88105 36.3865H4.83921H4.84895ZM5.53053 36.1139C5.53053 35.9679 5.4721 35.7342 5.20921 35.7342C4.96579 35.7342 4.86842 35.9581 4.84895 36.1139H5.53053Z" fill="#005EA3"/>
<path d="M6.62089 34.78H6.22168V37.0584H6.62089V34.78Z" fill="#005EA3"/>
<path d="M7.43901 34.78H7.03979V37.0584H7.43901V34.78Z" fill="#005EA3"/>
<path fill-rule="evenodd" clip-rule="evenodd" d="M8.13996 36.3865C8.13996 36.6689 8.36391 36.7858 8.61707 36.7858C8.80207 36.7858 8.92865 36.7565 9.04549 36.7176L9.10391 36.9902C8.96759 37.0487 8.78259 37.0876 8.55865 37.0876C8.05233 37.0876 7.75049 36.776 7.75049 36.2989C7.75049 35.8705 8.01338 35.4615 8.50996 35.4615C9.00654 35.4615 9.1818 35.8802 9.1818 36.221C9.1818 36.2989 9.1818 36.3573 9.17207 36.3865H8.13023H8.13996ZM8.83128 36.1139C8.83128 35.9679 8.77286 35.7342 8.50996 35.7342C8.26654 35.7342 8.16917 35.9581 8.1497 36.1139H8.83128Z" fill="#005EA3"/>
<path fill-rule="evenodd" clip-rule="evenodd" d="M9.51291 35.9582C9.51291 35.7829 9.51291 35.6271 9.50317 35.4908H9.84396L9.86344 35.7245C9.93159 35.5979 10.1069 35.4518 10.36 35.4518C10.6132 35.4518 10.915 35.6271 10.915 36.1237V37.0487H10.5255V36.1724C10.5255 35.9484 10.4379 35.7732 10.2237 35.7732C10.0679 35.7732 9.96081 35.89 9.91212 36.0068C9.90238 36.0361 9.89265 36.0847 9.89265 36.1334V37.0487H9.50317V35.9582H9.51291Z" fill="#005EA3"/>
<path fill-rule="evenodd" clip-rule="evenodd" d="M12.4924 37.0097C12.4048 37.0487 12.249 37.0876 12.0543 37.0876C11.5674 37.0876 11.2461 36.776 11.2461 36.2892C11.2461 35.8023 11.5674 35.4615 12.1127 35.4615C12.2587 35.4615 12.4048 35.4908 12.4924 35.5297L12.4243 35.8315C12.3561 35.8023 12.2685 35.7731 12.1224 35.7731C11.8206 35.7731 11.6453 35.9971 11.6453 36.2794C11.6453 36.6008 11.8498 36.7858 12.1224 36.7858C12.2587 36.7858 12.3561 36.7566 12.434 36.7273L12.4924 37.0194V37.0097Z" fill="#005EA3"/>
<path fill-rule="evenodd" clip-rule="evenodd" d="M13.067 36.3865C13.067 36.6689 13.2909 36.7858 13.5441 36.7858C13.7291 36.7858 13.8556 36.7565 13.9725 36.7176L14.0309 36.9902C13.8946 37.0487 13.7096 37.0876 13.4856 37.0876C12.9793 37.0876 12.6775 36.776 12.6775 36.2989C12.6775 35.8705 12.9404 35.4615 13.437 35.4615C13.9335 35.4615 14.1088 35.8802 14.1088 36.221C14.1088 36.2989 14.1088 36.3573 14.0991 36.3865H13.0572H13.067ZM13.7485 36.1139C13.7485 35.9679 13.6901 35.7342 13.4272 35.7342C13.1838 35.7342 13.0767 35.9581 13.067 36.1139H13.7485Z" fill="#005EA3"/>
<path fill-rule="evenodd" clip-rule="evenodd" d="M15.3453 35.4908L15.5108 36.2016C15.5497 36.3671 15.5887 36.5326 15.6082 36.7079C15.6374 36.5424 15.686 36.3671 15.7347 36.2016L15.9392 35.4908H16.2605L16.4553 36.1821C16.5039 36.3671 16.5429 36.5326 16.5818 36.7079C16.6013 36.5424 16.6403 36.3671 16.6792 36.1821L16.8545 35.4908H17.2439L16.7571 37.0487H16.3871L16.2021 36.4158C16.1534 36.2503 16.1242 36.1042 16.0853 35.9192C16.0463 36.1139 16.0074 36.26 15.9684 36.4158L15.7737 37.0487H15.4037L14.946 35.4908H15.355H15.3453Z" fill="#005EA3"/>
<path fill-rule="evenodd" clip-rule="evenodd" d="M17.9255 35.0624C17.9255 35.1792 17.8378 35.2766 17.7015 35.2766C17.5749 35.2766 17.4873 35.1792 17.4873 35.0624C17.4873 34.9358 17.5749 34.8481 17.7113 34.8481C17.8476 34.8481 17.9255 34.9358 17.9352 35.0624M17.497 37.0584V35.5005H17.8865V37.0584H17.497Z" fill="#005EA3"/>
<path fill-rule="evenodd" clip-rule="evenodd" d="M18.7726 35.0916V35.4908H19.1426V35.7829H18.7726V36.4742C18.7726 36.6689 18.8213 36.7663 18.9771 36.7663C19.0452 36.7663 19.0842 36.7663 19.1329 36.7468V37.0487C19.0842 37.0681 18.9771 37.0876 18.8505 37.0876C18.7044 37.0876 18.5876 37.0389 18.5097 36.961C18.4221 36.8734 18.3831 36.7273 18.3831 36.5229V35.7926H18.1592V35.5005H18.3831V35.2084L18.7726 35.1013V35.0916Z" fill="#005EA3"/>
<path fill-rule="evenodd" clip-rule="evenodd" d="M19.4445 34.78H19.8437V35.705C19.8924 35.6271 19.9606 35.5687 20.0385 35.5297C20.1164 35.4811 20.2137 35.4616 20.3111 35.4616C20.574 35.4616 20.8564 35.6368 20.8564 36.1334V37.0487H20.4572V36.1724C20.4572 35.9484 20.3793 35.7732 20.1553 35.7732C19.9995 35.7732 19.8924 35.8803 19.8437 35.9971C19.834 36.0361 19.8243 36.075 19.8243 36.1139V37.0487H19.425V34.7703L19.4445 34.78Z" fill="#005EA3"/>
<path fill-rule="evenodd" clip-rule="evenodd" d="M22.307 37.0584L21.606 34.8969H22.0344L22.3265 35.8803C22.4044 36.1529 22.4823 36.4061 22.5407 36.669C22.5991 36.4158 22.677 36.1529 22.7646 35.89L23.0762 34.9066H23.4949L22.7452 37.0682H22.2973L22.307 37.0584Z" fill="#005EA3"/>
<path fill-rule="evenodd" clip-rule="evenodd" d="M24.8094 36.6787C24.8094 36.8247 24.8094 36.9611 24.8386 37.0487H24.4783L24.4491 36.8734C24.3517 37 24.196 37.0779 23.9915 37.0779C23.6799 37.0779 23.5046 36.8539 23.5046 36.6105C23.5046 36.2211 23.8552 36.0166 24.4296 36.0263V35.9971C24.4296 35.8997 24.3907 35.7245 24.1083 35.7245C23.9525 35.7245 23.7967 35.7732 23.6896 35.8413L23.6117 35.5882C23.7286 35.52 23.9331 35.4518 24.1765 35.4518C24.6731 35.4518 24.8191 35.7732 24.8191 36.1139V36.6787H24.8094ZM24.4296 36.2892C24.1473 36.2892 23.8844 36.3476 23.8844 36.5813C23.8844 36.7371 23.9817 36.8053 24.1083 36.8053C24.2641 36.8053 24.381 36.7079 24.4199 36.5911C24.4199 36.5618 24.4199 36.5326 24.4199 36.5034V36.2892H24.4296Z" fill="#005EA3"/>
<path d="M25.6272 34.78H25.228V37.0584H25.6272V34.78Z" fill="#005EA3"/>
<path fill-rule="evenodd" clip-rule="evenodd" d="M27.4482 36.591C27.4482 36.776 27.4482 36.9318 27.458 37.0584H27.1172L27.0977 36.8247C27.0296 36.9318 26.8738 37.0974 26.5914 37.0974C26.309 37.0974 26.0461 36.9318 26.0461 36.4158V35.5005H26.4454V36.3476C26.4454 36.6105 26.5232 36.776 26.7375 36.776C26.903 36.776 27.0004 36.6689 27.0393 36.5618C27.0588 36.5326 27.0588 36.4839 27.0588 36.4353V35.4908H27.4482V36.5813V36.591Z" fill="#005EA3"/>
<path fill-rule="evenodd" clip-rule="evenodd" d="M28.159 36.3865C28.159 36.6689 28.383 36.7858 28.6361 36.7858C28.8211 36.7858 28.9477 36.7565 29.0645 36.7176L29.123 36.9902C28.9866 37.0487 28.8016 37.0876 28.5777 37.0876C28.0714 37.0876 27.7695 36.776 27.7695 36.2989C27.7695 35.8705 28.0324 35.4615 28.529 35.4615C29.0256 35.4615 29.2008 35.8802 29.2008 36.221C29.2008 36.2989 29.2008 36.3573 29.1911 36.3865H28.1493H28.159ZM28.8406 36.1139C28.8406 35.9679 28.7822 35.7342 28.5193 35.7342C28.2758 35.7342 28.1785 35.9581 28.159 36.1139H28.8406Z" fill="#005EA3"/>
<path fill-rule="evenodd" clip-rule="evenodd" d="M29.5123 36.6884C29.5999 36.7468 29.7654 36.8052 29.9115 36.8052C30.0868 36.8052 30.1646 36.7273 30.1646 36.63C30.1646 36.5326 30.0965 36.4742 29.9115 36.406C29.6096 36.3087 29.4831 36.1334 29.4831 35.9484C29.4831 35.6758 29.707 35.4615 30.077 35.4615C30.2523 35.4615 30.3983 35.5005 30.4957 35.5589L30.4178 35.8315C30.3496 35.7926 30.2231 35.7439 30.0868 35.7439C29.9504 35.7439 29.8725 35.8121 29.8725 35.9094C29.8725 36.0068 29.9504 36.0555 30.1452 36.1237C30.4275 36.221 30.5541 36.3671 30.5639 36.6008C30.5639 36.8831 30.3399 37.0876 29.931 37.0876C29.746 37.0876 29.5707 37.0389 29.4539 36.9805L29.5318 36.6884H29.5123Z" fill="#005EA3"/>
<path fill-rule="evenodd" clip-rule="evenodd" d="M37.0195 5.55974C37.8277 5.41369 39.444 5.27737 40.9922 5.27737C42.8714 5.27737 44.0203 5.46237 45.033 6.04658C45.9774 6.5529 46.6493 7.4779 46.6493 8.73395C46.6493 9.99 45.9385 11.0318 44.4098 11.6161V11.655C45.9677 12.0542 47.1166 13.2518 47.1166 14.985C47.1166 16.2313 46.5519 17.205 45.7048 17.8866C44.7116 18.6753 43.0564 19.1232 40.3593 19.1232C38.8501 19.1232 37.7206 19.0258 37.0293 18.9187V5.55974H37.0195ZM40.0672 10.7592H41.0798C42.7156 10.7592 43.5627 10.0971 43.5627 9.08448C43.5627 8.07185 42.774 7.50711 41.3816 7.50711C40.7001 7.50711 40.3106 7.54606 40.0672 7.58501V10.7495V10.7592ZM40.0672 16.7961C40.369 16.835 40.7293 16.835 41.2551 16.835C42.6474 16.835 43.884 16.2897 43.884 14.8584C43.884 13.505 42.6572 12.9597 41.1187 12.9597H40.0672V16.7961Z" fill="#005EA3"/>
<path d="M52.2966 5.37473H49.2295V18.9771H52.2966V5.37473Z" fill="#005EA3"/>
<path fill-rule="evenodd" clip-rule="evenodd" d="M66.4637 13.7679C66.4052 12.1321 66.3468 10.1555 66.3468 8.17893H66.3079C65.86 9.91209 65.2952 11.8497 64.7694 13.4466L63.1142 18.7531H60.7092L59.2584 13.505C58.8105 11.8887 58.3723 9.95104 58.0315 8.17893H57.9926C57.9342 10.0192 57.8465 12.1126 57.7687 13.8068L57.5058 18.9771H54.6626L55.5292 5.37473H59.6284L60.9623 9.91209C61.4102 11.4895 61.8094 13.1837 62.1113 14.7805H62.1892C62.5494 13.2031 63.0168 11.4116 63.4842 9.89262L64.9155 5.37473H68.9563L69.6865 18.9771H66.6973L66.4734 13.7679H66.4637Z" fill="#005EA3"/>
<path fill-rule="evenodd" clip-rule="evenodd" d="M74.4186 7.95499H70.738V5.37473H81.1954V7.95499H77.4857V18.9771H74.4186V7.95499Z" fill="#005EA3"/>
<path fill-rule="evenodd" clip-rule="evenodd" d="M90.9227 13.2226H85.9179V16.4553H91.5069V18.9771H82.8508V5.37473H91.2245V7.89657H85.9179V10.7203H90.9227V13.2226Z" fill="#005EA3"/>
<path fill-rule="evenodd" clip-rule="evenodd" d="M103.58 18.6168C103.035 18.8797 101.74 19.201 100.104 19.201C95.4015 19.201 92.9771 16.2508 92.9771 12.3755C92.9771 7.73105 96.2876 5.17026 100.406 5.17026C102.003 5.17026 103.21 5.4721 103.756 5.77394L103.113 8.19842C102.509 7.93552 101.643 7.6921 100.533 7.6921C98.1084 7.6921 96.2097 9.16236 96.2097 12.1905C96.2097 14.9168 97.826 16.6305 100.552 16.6305C101.497 16.6305 102.509 16.4455 103.133 16.1826L103.58 18.6071V18.6168Z" fill="#005EA3"/>
<path fill-rule="evenodd" clip-rule="evenodd" d="M108.702 5.37473V10.6034H113.775V5.37473H116.842V18.9771H113.775V13.281H108.702V18.9771H105.635V5.37473H108.702Z" fill="#005EA3"/>
<path fill-rule="evenodd" clip-rule="evenodd" d="M36.9124 22.2779C37.3505 22.1903 38.1489 22.1124 38.9376 22.1124C39.9502 22.1124 40.5831 22.2487 41.0895 22.5992C41.5568 22.8816 41.8781 23.3782 41.8781 24.0208C41.8781 24.7121 41.44 25.345 40.6221 25.6468V25.676C41.4205 25.8805 42.1508 26.5037 42.1508 27.5358C42.1508 28.2076 41.8587 28.7334 41.4302 29.1034C40.8947 29.5611 40.0087 29.7947 38.6163 29.7947C37.8568 29.7947 37.2824 29.7363 36.9221 29.6974V22.2682L36.9124 22.2779ZM38.2852 25.2671H38.996C39.96 25.2671 40.4858 24.8192 40.4858 24.1766C40.4858 23.4561 39.9502 23.1347 39.0739 23.1347C38.665 23.1347 38.4313 23.1542 38.2852 23.1932V25.2671ZM38.2852 28.7334C38.4605 28.7626 38.7039 28.7626 39.0155 28.7626C39.9016 28.7626 40.7 28.4316 40.7 27.5066C40.7 26.5816 39.921 26.2603 38.9668 26.2603H38.2852V28.7334Z" fill="#F16636"/>
<path d="M44.7701 22.1708H43.3875V29.7364H44.7701V22.1708Z" fill="#F16636"/>
<path fill-rule="evenodd" clip-rule="evenodd" d="M46.3474 22.2779C46.8732 22.1805 47.6424 22.1124 48.4311 22.1124C49.5216 22.1124 50.2519 22.2876 50.7679 22.7161C51.1866 23.0666 51.4203 23.5924 51.4203 24.2447C51.4203 25.2184 50.7582 25.8805 50.0376 26.1337V26.1629C50.5926 26.3674 50.914 26.8932 51.0892 27.6234C51.3326 28.5679 51.5371 29.4442 51.6832 29.7363H50.2713C50.1642 29.5124 49.9695 28.8989 49.765 27.9545C49.5411 26.971 49.1905 26.6497 48.4019 26.6303H47.7105V29.7363H46.3376V22.2779H46.3474ZM47.7203 25.6176H48.5382C49.4729 25.6176 50.0376 25.121 50.0376 24.3713C50.0376 23.5534 49.4632 23.1542 48.5674 23.1542C48.1292 23.1542 47.8469 23.1834 47.7105 23.2224V25.6176H47.7203Z" fill="#F16636"/>
<path fill-rule="evenodd" clip-rule="evenodd" d="M52.7346 22.1708H54.1173V28.5777H57.233V29.7364H52.7346V22.1708Z" fill="#F16636"/>
<path fill-rule="evenodd" clip-rule="evenodd" d="M59.7939 27.5943L59.1416 29.7364H57.72L60.1444 22.1708H61.9068L64.3702 29.7364H62.8805L62.1989 27.5943H59.8037H59.7939ZM61.9555 26.5524L61.3616 24.6927C61.2155 24.235 61.0889 23.719 60.9818 23.2808H60.9623C60.8552 23.719 60.7287 24.2448 60.6021 24.6927L60.0179 26.5524H61.9652H61.9555Z" fill="#F16636"/>
<path d="M69.1219 22.1708H67.7393V29.7364H69.1219V22.1708Z" fill="#F16636"/>
<path fill-rule="evenodd" clip-rule="evenodd" d="M70.6897 29.7364V22.1708H72.2768L74.2339 25.4132C74.7305 26.2506 75.1784 27.1269 75.5289 27.9545H75.5484C75.451 26.9419 75.4218 25.9682 75.4218 24.8095V22.1708H76.6973V29.7364H75.2563L73.2797 26.4064C72.7928 25.5787 72.306 24.6537 71.936 23.7969H71.8873C71.9457 24.7803 71.9652 25.7832 71.9652 27.0295V29.7364H70.6799H70.6897Z" fill="#F16636"/>
<path fill-rule="evenodd" clip-rule="evenodd" d="M78.2745 28.2368C78.7127 28.49 79.3942 28.7237 80.105 28.7237C80.9813 28.7237 81.4779 28.305 81.4779 27.6916C81.4779 27.1171 81.0982 26.7861 80.144 26.4355C78.8879 25.9876 78.0895 25.3255 78.0895 24.235C78.0895 22.9887 79.1216 22.054 80.7769 22.054C81.5948 22.054 82.1887 22.2292 82.5879 22.4337L82.2666 23.5437C81.9842 23.3976 81.4584 23.1834 80.7477 23.1834C79.8713 23.1834 79.5013 23.6411 79.5013 24.089C79.5013 24.6732 79.9395 24.9458 80.9521 25.3353C82.2666 25.8318 82.8898 26.494 82.8898 27.5845C82.8898 28.8113 81.9745 29.8629 80.0271 29.8629C79.219 29.8629 78.3913 29.639 77.9727 29.3761L78.2842 28.2271L78.2745 28.2368Z" fill="#F16636"/>
<path fill-rule="evenodd" clip-rule="evenodd" d="M85.5771 23.3295H83.4155V22.1708H89.1311V23.3295H86.95V29.7364H85.5771V23.3295Z" fill="#F16636"/>
<path d="M91.3997 22.1708H90.0171V29.7364H91.3997V22.1708Z" fill="#F16636"/>
<path fill-rule="evenodd" clip-rule="evenodd" d="M94.4377 23.3295H92.2761V22.1708H97.9917V23.3295H95.8106V29.7364H94.4377V23.3295Z" fill="#F16636"/>
<path fill-rule="evenodd" clip-rule="evenodd" d="M100.251 22.1708V26.5816C100.251 28.0616 100.864 28.7529 101.799 28.7529C102.802 28.7529 103.396 28.0714 103.396 26.5816V22.1708H104.778V26.494C104.778 28.8308 103.581 29.8629 101.76 29.8629C99.939 29.8629 98.8777 28.8893 98.8777 26.5037V22.1708H100.26H100.251Z" fill="#F16636"/>
<path fill-rule="evenodd" clip-rule="evenodd" d="M107.806 23.3295H105.655V22.1708H111.37V23.3295H109.189V29.7364H107.806V23.3295Z" fill="#F16636"/>
<path fill-rule="evenodd" clip-rule="evenodd" d="M116.492 26.3772H113.639V28.6069H116.823V29.7364H112.256V22.1708H116.657V23.3003H113.639V25.2574H116.492V26.3772Z" fill="#F16636"/>
<path fill-rule="evenodd" clip-rule="evenodd" d="M40.3006 34.0692C40.3006 35.3545 39.5217 36.0847 38.4701 36.0847C37.4185 36.0847 36.698 35.2571 36.698 34.1374C36.698 32.9495 37.438 32.1218 38.5188 32.1218C39.5996 32.1218 40.2909 32.9689 40.2909 34.0692M37.438 34.1179C37.438 34.9066 37.8275 35.52 38.4993 35.52C39.1712 35.52 39.5606 34.8871 39.5606 34.0887C39.5606 33.3681 39.2004 32.6866 38.4993 32.6866C37.7983 32.6866 37.438 33.3292 37.438 34.1179Z" fill="#F16636"/>
<path fill-rule="evenodd" clip-rule="evenodd" d="M40.8948 32.19H43.1148V32.7645H41.5958V33.8258H43.0077V34.3905H41.5958V36.0263H40.8948V32.19Z" fill="#F16636"/>
<path fill-rule="evenodd" clip-rule="evenodd" d="M48.2071 34.4587C48.1877 33.9621 48.1585 33.3682 48.1585 32.8521H48.139C48.0124 33.3195 47.8566 33.8355 47.6814 34.3224L47.1166 35.9776H46.5811L46.065 34.3418C45.919 33.855 45.7827 33.3292 45.6756 32.8521H45.6658C45.6464 33.3487 45.6269 33.9621 45.5977 34.4879L45.51 36.0263H44.8577L45.1108 32.19H46.0358L46.5324 33.7284C46.6687 34.1763 46.7856 34.6339 46.8829 35.0624H46.9024C46.9998 34.6437 47.1361 34.1763 47.2821 33.7284L47.8079 32.19H48.7135L48.9374 36.0263H48.2558L48.1779 34.4587H48.2071Z" fill="#F16636"/>
<path fill-rule="evenodd" clip-rule="evenodd" d="M50.4368 34.9358L50.1058 36.0263H49.3853L50.6121 32.19H51.5079L52.7542 36.0263H51.9947L51.6442 34.9358H50.4368ZM51.5371 34.41L51.2353 33.4655C51.1574 33.2318 51.0989 32.9689 51.0405 32.745H51.0308C50.9724 32.9689 50.9139 33.2318 50.8458 33.4655L50.5537 34.41H51.5371Z" fill="#F16636"/>
<path fill-rule="evenodd" clip-rule="evenodd" d="M53.28 36.0263V32.19H54.0784L55.0716 33.8355C55.3247 34.2639 55.5487 34.7021 55.7239 35.1208H55.7337C55.685 34.6145 55.6655 34.1179 55.6655 33.5337V32.1997H56.3179V36.0361H55.5876L54.5847 34.3418C54.3413 33.9232 54.0882 33.4558 53.9032 33.0274H53.8837C53.9129 33.5239 53.9226 34.0303 53.9226 34.6632V36.0361H53.2703L53.28 36.0263Z" fill="#F16636"/>
<path fill-rule="evenodd" clip-rule="evenodd" d="M57.8951 34.9358L57.564 36.0263H56.8435L58.0703 32.19H58.9661L60.2125 36.0263H59.453L59.1025 34.9358H57.8853H57.8951ZM58.9953 34.41L58.6935 33.4655C58.6156 33.2318 58.5572 32.9689 58.4988 32.745H58.489C58.4306 32.9689 58.3722 33.2318 58.304 33.4655L58.0119 34.41H58.9953Z" fill="#F16636"/>
<path fill-rule="evenodd" clip-rule="evenodd" d="M63.6595 35.8511C63.4161 35.9387 62.939 36.0653 62.4327 36.0653C61.7803 36.0653 61.2935 35.8998 60.9235 35.559C60.5827 35.2377 60.3879 34.7314 60.3879 34.1471C60.3879 32.93 61.2545 32.1608 62.5203 32.1608C62.9974 32.1608 63.3577 32.2582 63.5427 32.3458L63.3869 32.9106C63.1727 32.8132 62.9195 32.745 62.5203 32.745C61.7024 32.745 61.1279 33.2319 61.1279 34.1179C61.1279 35.004 61.6635 35.5103 62.4619 35.5103C62.715 35.5103 62.9 35.4714 62.9877 35.4324V34.4685H62.3158V33.9135H63.6693V35.8511H63.6595Z" fill="#F16636"/>
<path fill-rule="evenodd" clip-rule="evenodd" d="M66.5222 34.3224H65.0714V35.4518H66.6878V36.0263H64.3801V32.19H66.6099V32.7645H65.0714V33.7576H66.5222V34.3224Z" fill="#F16636"/>
<path fill-rule="evenodd" clip-rule="evenodd" d="M70.5433 34.4587C70.5238 33.9621 70.4946 33.3682 70.4946 32.8521H70.4752C70.3486 33.3195 70.1928 33.8355 70.0175 34.3224L69.4528 35.9776H68.9173L68.4012 34.3418C68.2552 33.855 68.1188 33.3292 68.0117 32.8521H68.002C67.9825 33.3487 67.9631 33.9621 67.9338 34.4879L67.8462 36.0263H67.1938L67.447 32.19H68.372L68.8686 33.7284C69.0049 34.1763 69.1217 34.6339 69.2191 35.0624H69.2386C69.336 34.6437 69.4723 34.1763 69.6183 33.7284L70.1441 32.19H71.0496L71.2736 36.0263H70.592L70.5141 34.4587H70.5433Z" fill="#F16636"/>
<path fill-rule="evenodd" clip-rule="evenodd" d="M74.146 34.3224H72.705V35.4518H74.3213V36.0263H72.0039V32.19H74.2336V32.7645H72.705V33.7576H74.146V34.3224Z" fill="#F16636"/>
<path fill-rule="evenodd" clip-rule="evenodd" d="M74.925 36.0263V32.19H75.7235L76.7166 33.8355C76.9698 34.2639 77.1937 34.7021 77.369 35.1208H77.3787C77.3301 34.6145 77.3203 34.1179 77.3203 33.5337V32.1997H77.9727V36.0361H77.2424L76.2395 34.3418C75.9961 33.9232 75.7429 33.4558 75.5579 33.0274H75.5385C75.5677 33.5239 75.5774 34.0303 75.5774 34.6632V36.0361H74.925V36.0263Z" fill="#F16636"/>
<path fill-rule="evenodd" clip-rule="evenodd" d="M79.5112 32.7742H78.4207V32.19H81.3125V32.7742H80.2122V36.0263H79.5112V32.7742Z" fill="#F16636"/>
<path fill-rule="evenodd" clip-rule="evenodd" d="M83.4448 32.7742H82.3542V32.19H85.2461V32.7742H84.1458V36.0263H83.4448V32.7742Z" fill="#F16636"/>
<path fill-rule="evenodd" clip-rule="evenodd" d="M87.8359 34.3224H86.3949V35.4518H88.0112V36.0263H85.6938V32.19H87.9236V32.7645H86.3949V33.7576H87.8359V34.3224Z" fill="#F16636"/>
<path fill-rule="evenodd" clip-rule="evenodd" d="M91.3707 35.9192C91.2051 35.9971 90.8449 36.0847 90.3775 36.0847C89.1604 36.0847 88.4204 35.3252 88.4204 34.1471C88.4204 32.8813 89.3065 32.1218 90.4749 32.1218C90.9325 32.1218 91.2636 32.2192 91.3999 32.2971L91.2538 32.8521C91.0688 32.7742 90.8157 32.706 90.5041 32.706C89.7251 32.706 89.1604 33.1929 89.1604 34.1179C89.1604 34.965 89.6473 35.5005 90.4944 35.5005C90.7767 35.5005 91.0688 35.4421 91.2538 35.3642L91.3707 35.9192Z" fill="#F16636"/>
<path fill-rule="evenodd" clip-rule="evenodd" d="M92.6654 32.19V33.7284H94.2817V32.19H94.9828V36.0263H94.2817V34.3321H92.6654V36.0263H91.9644V32.19H92.6654Z" fill="#F16636"/>
<path fill-rule="evenodd" clip-rule="evenodd" d="M95.7815 36.0263V32.19H96.5799L97.5731 33.8355C97.8262 34.2639 98.0502 34.7021 98.2254 35.1208H98.2352C98.1865 34.6145 98.1768 34.1179 98.1768 33.5337V32.1997H98.8291V36.0361H98.0989L97.096 34.3418C96.8525 33.9232 96.5994 33.4558 96.4144 33.0274H96.3949C96.4241 33.5239 96.4339 34.0303 96.4339 34.6632V36.0361H95.7815V36.0263Z" fill="#F16636"/>
<path fill-rule="evenodd" clip-rule="evenodd" d="M103.026 34.0692C103.026 35.3545 102.247 36.0847 101.195 36.0847C100.144 36.0847 99.4231 35.2571 99.4231 34.1374C99.4231 32.9495 100.163 32.1218 101.244 32.1218C102.325 32.1218 103.016 32.9689 103.016 34.0692M100.173 34.1179C100.173 34.9066 100.562 35.52 101.234 35.52C101.906 35.52 102.295 34.8871 102.295 34.0887C102.295 33.3681 101.935 32.6866 101.234 32.6866C100.533 32.6866 100.173 33.3292 100.173 34.1179Z" fill="#F16636"/>
<path fill-rule="evenodd" clip-rule="evenodd" d="M103.629 32.19H104.33V35.4421H105.908V36.0263H103.629V32.19Z" fill="#F16636"/>
<path fill-rule="evenodd" clip-rule="evenodd" d="M109.608 34.0692C109.608 35.3545 108.829 36.0847 107.777 36.0847C106.726 36.0847 106.005 35.2571 106.005 34.1374C106.005 32.9495 106.745 32.1218 107.826 32.1218C108.907 32.1218 109.598 32.9689 109.598 34.0692M106.755 34.1179C106.755 34.9066 107.144 35.52 107.816 35.52C108.488 35.52 108.877 34.8871 108.877 34.0887C108.877 33.3681 108.517 32.6866 107.816 32.6866C107.115 32.6866 106.755 33.3292 106.755 34.1179Z" fill="#F16636"/>
<path fill-rule="evenodd" clip-rule="evenodd" d="M113.288 35.8511C113.045 35.9387 112.568 36.0653 112.061 36.0653C111.409 36.0653 110.922 35.8998 110.552 35.559C110.211 35.2377 110.017 34.7314 110.017 34.1471C110.017 32.93 110.883 32.1608 112.149 32.1608C112.626 32.1608 112.986 32.2582 113.171 32.3458L113.016 32.9106C112.801 32.8132 112.548 32.745 112.149 32.745C111.331 32.745 110.757 33.2319 110.757 34.1179C110.757 35.004 111.292 35.5103 112.091 35.5103C112.344 35.5103 112.529 35.4714 112.616 35.4324V34.4685H111.944V33.9135H113.298V35.8511H113.288Z" fill="#F16636"/>
<path fill-rule="evenodd" clip-rule="evenodd" d="M114.866 36.0263V34.4295L113.658 32.1998H114.457L114.914 33.1832C115.041 33.4656 115.138 33.6798 115.245 33.9427H115.255C115.343 33.6992 115.45 33.4558 115.586 33.1832L116.044 32.1998H116.832L115.557 34.4198V36.0361H114.856L114.866 36.0263Z" fill="#F16636"/>
</g>
<defs>
<clipPath id="clip0_25121_18372">
<rect width="116.842" height="37" fill="white"/>
</clipPath>
</defs>
</svg>
