<svg width="150" height="37" viewBox="0 0 150 37" fill="none" xmlns="http://www.w3.org/2000/svg">
<g clip-path="url(#clip0_25121_16997)">
<path d="M48.7503 1.35696e-05C43.1816 -0.00728235 39.4936 2.92811 38.9748 7.31729C38.8537 8.33169 38.7293 9.34564 38.6007 10.3591H111.056C111.056 10.3591 111.193 9.28988 111.299 8.43167C111.844 4.01009 109.965 0.00055401 103.131 0.00055401V0.00109445C103.131 0.00109445 51.686 0.00325621 48.7503 1.35696e-05ZM4.53157 0.00136466L3.25993 10.3591H36.1186L37.3853 0.00163489H4.53104L4.53157 0.00136466ZM114.831 0.00136466L113.562 10.3591H149.183C149.183 10.3591 149.227 9.98462 149.384 8.76541C150.251 1.96667 145.865 0.00136466 141.63 0.00136466H114.831ZM113.071 14.303L110.296 36.9085L122.585 36.9042L125.363 14.3073L113.071 14.3025V14.303ZM136.418 14.303L133.638 36.9085L145.928 36.9042L148.706 14.3073L136.418 14.3025V14.303ZM2.78056 14.3063L0 36.9096H32.8566L34.0671 27.1038L13.4932 27.1017L14.0136 22.8733H34.5795L35.6322 14.3068H2.78218L2.78056 14.3063ZM38.119 14.3063C37.2173 20.2057 40.1704 22.8725 44.3555 22.8725C46.632 22.8725 60.9794 22.866 60.9794 22.866L60.4606 27.1009L36.5493 27.103L35.3453 36.9088C35.3453 36.9088 61.377 36.9174 62.4321 36.9088C63.3033 36.8461 69.3929 36.6796 71.4661 31.6989C72.1384 30.0819 72.733 24.2841 72.8993 23.067C73.8569 15.9981 68.9628 14.3127 65.1084 14.3127C62.9833 14.3127 42.3149 14.3063 38.119 14.3063ZM76.3688 14.3063L73.5934 36.9096H85.8763L87.6059 22.8733H103.034C107.41 22.8733 109.761 20.5208 110.198 17.3616C110.338 16.3451 110.464 15.3267 110.577 14.3068H76.3688V14.3063Z" fill="#E52534"/>
</g>
<defs>
<clipPath id="clip0_25121_16997">
<rect width="149.495" height="37" fill="white"/>
</clipPath>
</defs>
</svg>
