<svg width="137" height="37" viewBox="0 0 137 37" fill="none" xmlns="http://www.w3.org/2000/svg">
<g clip-path="url(#clip0_25121_18811)">
<path d="M136.379 7.34799C136.364 7.29715 136.348 7.24632 136.328 7.19548C124.285 7.20056 112.247 7.19548 100.21 7.20056C100.179 7.23615 100.159 7.27173 100.154 7.31748C100.154 16.6559 100.154 25.9892 100.148 35.3277C100.225 35.8258 100.499 36.2783 100.865 36.6189C100.881 36.624 100.916 36.6289 100.931 36.6341C101.119 36.8323 101.389 36.929 101.643 37.0205C101.831 37.0104 102.014 37.0916 102.202 37.0713H117.148C117.29 37.0662 117.438 37.0916 117.575 37.0358C117.58 37.0155 117.585 36.9799 117.59 36.9595C117.595 36.9341 117.6 36.8782 117.605 36.8477C117.926 35.0584 118.236 33.2639 118.576 31.4745L118.607 31.2457C117.224 31.2406 115.836 31.2457 114.454 31.2406C114.118 31.2304 113.772 31.2406 113.437 31.1998C112.863 31.1744 112.283 31.1948 111.709 31.1389C110.997 31.1389 110.29 31.0727 109.579 31.0727C109.019 31.0168 108.455 31.0372 107.891 31.0118C107.525 30.9661 107.149 30.9864 106.778 30.9711C106.173 30.905 105.558 30.9508 104.953 30.8847C104.312 30.8899 103.672 30.8339 103.031 30.8186C103.036 30.8135 103.041 30.7932 103.041 30.7881C103.255 30.7932 103.463 30.778 103.677 30.7729C104.149 30.7118 104.627 30.7525 105.1 30.6864C105.593 30.6864 106.081 30.6204 106.574 30.6204C107.012 30.5593 107.454 30.5949 107.891 30.5339C108.404 30.5339 108.908 30.4679 109.421 30.4627C109.843 30.4068 110.27 30.4373 110.692 30.3814C111.185 30.3865 111.673 30.3102 112.166 30.3154C112.649 30.2593 113.142 30.2745 113.625 30.2237C113.579 30.0358 113.544 29.8476 113.503 29.6594C113.468 29.5426 113.325 29.568 113.234 29.5527C112.131 29.395 111.033 29.2375 109.935 29.085C110.006 29.029 110.102 29.0544 110.184 29.0443C111.038 28.9782 111.887 28.9019 112.741 28.841C112.934 28.8309 113.122 28.7952 113.315 28.7901C113.229 28.5259 113.178 28.236 113.061 27.9921C111.236 27.7125 109.411 27.4634 107.591 27.1634C108.064 27.0872 108.542 27.0516 109.014 27.0008L109.055 26.9855C110.565 26.8278 112.08 26.6499 113.59 26.5026C115.506 26.4924 117.417 26.4974 119.334 26.5026C119.395 26.4924 119.502 26.5228 119.512 26.4364C119.669 25.6129 119.822 24.7895 119.979 23.9658C120.198 22.8221 120.544 21.6935 121.078 20.6514C121.916 18.9739 123.243 17.5505 124.86 16.605C126.369 15.7205 128.118 15.2934 129.857 15.2121C130.421 15.1613 130.99 15.1765 131.55 15.2477C131.916 15.3341 132.292 15.4358 132.582 15.6849C132.82 15.878 132.963 16.1627 133.07 16.4474C133.303 17.1235 133.436 17.825 133.547 18.5316C133.552 18.8163 133.603 19.1366 133.451 19.3958C133.308 19.65 133.024 19.772 132.754 19.8483C131.773 20.1024 130.746 19.8635 129.765 20.1024C128.957 20.2753 128.205 20.7226 127.691 21.3682C127.086 22.1206 126.766 23.0558 126.588 23.9913C126.451 24.825 126.278 25.6587 126.141 26.4975C127.107 26.5027 128.078 26.4924 129.048 26.5027C129.435 26.5027 129.831 26.7161 129.989 27.0821C130.192 27.5498 130.147 28.0786 130.08 28.5716C129.999 29.1257 129.867 29.6747 129.618 30.183C129.409 30.6151 129.064 31.0117 128.591 31.1642C128.347 31.2608 128.083 31.2405 127.823 31.2405C126.969 31.2405 126.115 31.2506 125.261 31.2405C125.124 31.8658 125.033 32.5063 124.91 33.1417C124.687 34.3769 124.468 35.6173 124.245 36.8578C124.239 36.8985 124.234 36.9848 124.234 37.0306C124.636 37.0509 125.038 37.0306 125.439 37.0407C128.418 37.0407 131.402 37.0355 134.386 37.0407C134.706 37.0509 135.032 36.9747 135.311 36.817C135.479 36.7561 135.581 36.6086 135.728 36.5273C135.871 36.446 135.911 36.2783 136.033 36.1715C136.165 35.9376 136.303 35.6937 136.313 35.4191C136.328 35.4191 136.369 35.414 136.389 35.4089C136.374 26.0554 136.389 16.7017 136.379 7.34799Z" fill="url(#paint0_linear_25121_18811)" stroke="#FCD109" stroke-width="0.0280253"/>
<path d="M104.892 1.19691C105.324 1.05966 105.776 1.15116 106.219 1.12066C114.52 1.12574 122.821 1.12066 131.123 1.12066C131.616 1.10032 132.048 1.37992 132.506 1.52226C132.872 1.66968 133.253 1.7866 133.619 1.94419C133.695 1.97469 133.751 2.04078 133.807 2.09669C133.802 2.76772 133.807 3.44383 133.807 4.11994C133.812 4.29786 133.781 4.48087 133.842 4.65371C133.949 4.66896 134.005 4.7503 134.076 4.81638C134.412 4.96889 134.696 5.21798 135.001 5.42132C135.459 5.74667 135.947 6.03134 136.394 6.36686C136.415 6.49903 136.399 6.63628 136.359 6.75829C136.313 6.90063 136.343 7.05313 136.328 7.19547C124.285 7.20055 112.248 7.19547 100.21 7.20055C100.184 7.0328 100.23 6.86504 100.159 6.70745C100.149 6.57528 100.103 6.40244 100.23 6.31094C100.738 5.95509 101.277 5.63483 101.775 5.25865C102.086 5.06039 102.385 4.85705 102.685 4.65371C102.746 4.55204 102.726 4.42495 102.726 4.31311C102.726 3.576 102.726 2.83889 102.731 2.10178C102.904 1.8781 103.204 1.85269 103.443 1.74085C103.926 1.55784 104.414 1.37992 104.892 1.19691ZM104.922 1.28333C104.272 1.53242 103.616 1.77135 102.965 2.02044C102.879 2.03569 102.833 2.11195 102.787 2.17803C102.792 2.2187 102.797 2.28987 102.797 2.33054C102.792 2.94056 102.797 3.55058 102.792 4.16061C102.797 4.31311 102.777 4.46562 102.833 4.60287C102.767 4.66896 102.696 4.73504 102.614 4.78588C101.877 5.26373 101.165 5.78225 100.428 6.25502C100.301 6.33127 100.159 6.43294 100.2 6.6007C100.174 6.6922 100.22 6.76845 100.317 6.74304C101.913 6.73287 103.504 6.7532 105.1 6.72779C107.474 6.72779 109.843 6.73287 112.217 6.72779L112.253 6.71254C112.359 6.73795 112.466 6.72779 112.578 6.72779C116.879 6.72779 121.179 6.73287 125.485 6.72779C126.837 6.73287 128.195 6.72779 129.552 6.72779C131.789 6.72779 134.03 6.74812 136.267 6.73795C136.333 6.7227 136.354 6.67695 136.328 6.59562C136.323 6.51428 136.354 6.40244 136.267 6.35161C135.911 6.18385 135.606 5.92459 135.266 5.72125C135.144 5.61958 134.986 5.56366 134.895 5.4264C134.544 5.22815 134.219 4.98414 133.873 4.76555C133.807 4.72488 133.756 4.65879 133.7 4.60287C133.731 4.49612 133.741 4.3792 133.741 4.26736C133.736 3.62175 133.741 2.97614 133.736 2.33054C133.751 2.22887 133.746 2.11195 133.654 2.04586C133.044 1.82727 132.439 1.59343 131.834 1.36975C131.646 1.27825 131.438 1.22741 131.234 1.19691H105.253C105.141 1.20199 105.034 1.25791 104.922 1.28333Z" fill="#F8F3B5" stroke="#F8F3B5" stroke-width="0.0280253"/>
<path d="M102.797 2.33055C103.245 2.51864 103.722 2.6254 104.175 2.8084C104.419 2.90499 104.495 3.16933 104.602 3.38284C104.495 3.48959 104.368 3.57601 104.241 3.65735C103.773 3.97253 103.295 4.27754 102.833 4.60289C102.777 4.46563 102.797 4.31313 102.792 4.16062C102.797 3.5506 102.792 2.94057 102.797 2.33055ZM132.358 2.8084C132.81 2.63048 133.283 2.50847 133.736 2.33055C133.741 2.97616 133.736 3.62177 133.741 4.26737C133.741 4.37921 133.73 4.49613 133.7 4.60289C133.303 4.32838 132.902 4.06912 132.505 3.79969C132.312 3.65735 132.099 3.5506 131.926 3.37776C132.033 3.16425 132.114 2.90499 132.358 2.8084Z" fill="#F7B402" stroke="#F7B402" stroke-width="0.0280253"/>
<path d="M110.555 3.01683C111.114 2.88466 111.739 3.38284 111.693 3.96745C111.698 4.54188 111.093 5.00957 110.539 4.8774C110.316 4.80114 110.102 4.68422 109.965 4.48597C109.787 4.21654 109.746 3.85561 109.889 3.56076C109.99 3.27609 110.265 3.08291 110.555 3.01683ZM125.058 3.33709C125.292 3.07783 125.663 2.93041 126.009 3.02191C126.268 3.09816 126.522 3.26592 126.634 3.5201C126.858 3.95728 126.685 4.54697 126.248 4.77573C125.861 4.98924 125.373 4.88756 125.078 4.57747C124.778 4.23687 124.758 3.67769 125.058 3.33709Z" fill="#BDA727" stroke="#BDA727" stroke-width="0.0280253"/>
<path d="M104.241 3.65734C104.368 3.576 104.495 3.48958 104.602 3.38283L104.637 3.41841C104.673 3.68276 104.648 3.95218 104.658 4.21653C104.642 5.00956 104.673 5.80767 104.637 6.6007C103.158 6.6007 101.679 6.59053 100.199 6.6007C100.159 6.43295 100.301 6.33128 100.428 6.25502C101.165 5.78225 101.877 5.26373 102.614 4.78588C102.696 4.73505 102.767 4.66896 102.833 4.60288C103.295 4.27753 103.773 3.97252 104.241 3.65734ZM131.875 3.55567C131.875 3.48958 131.89 3.43367 131.926 3.37775C132.098 3.55059 132.312 3.65734 132.505 3.79968C132.902 4.06911 133.303 4.32837 133.7 4.60288C133.756 4.65879 133.807 4.72488 133.873 4.76555C134.218 4.98414 134.544 5.22815 134.894 5.42641C134.986 5.56366 135.143 5.61958 135.266 5.72125C135.606 5.92459 135.911 6.18385 136.267 6.35161C136.353 6.40244 136.323 6.51428 136.328 6.59562C134.849 6.6007 133.374 6.59053 131.895 6.6007C131.87 6.39736 131.885 6.19402 131.88 5.99576C131.88 5.1824 131.87 4.36903 131.875 3.55567Z" fill="#F7E62D" stroke="#F7E62D" stroke-width="0.0280253"/>
<path d="M136.328 6.59562C134.849 6.6007 133.375 6.59053 131.895 6.6007C131.87 6.39736 131.885 6.19402 131.88 5.99576C131.88 5.1824 131.87 4.36903 131.875 3.55567C131.875 3.48958 131.89 3.43367 131.926 3.37775C132.033 3.16424 132.114 2.90498 132.358 2.80839C132.81 2.63047 133.283 2.50846 133.736 2.33054C133.751 2.22887 133.746 2.11195 133.654 2.04586C133.044 1.82727 132.439 1.59343 131.834 1.36975C131.646 1.27825 131.438 1.22742 131.234 1.19691H105.252C105.141 1.202 105.034 1.25792 104.922 1.28333C104.271 1.53243 103.616 1.77135 102.965 2.02045C102.878 2.0357 102.833 2.11195 102.787 2.17804C102.792 2.2187 102.797 2.28987 102.797 2.33054C103.244 2.51863 103.722 2.62539 104.175 2.80839C104.419 2.90498 104.495 3.16932 104.602 3.38283L104.637 3.41842C104.673 3.68276 104.647 3.95219 104.658 4.21653C104.642 5.00956 104.673 5.80767 104.637 6.6007C103.158 6.6007 101.679 6.59053 100.199 6.6007C100.174 6.69221 100.22 6.76846 100.316 6.74304C101.912 6.73287 103.504 6.75321 105.1 6.72779C107.474 6.72779 109.843 6.73287 112.217 6.72779L112.252 6.71254C112.359 6.73796 112.466 6.72779 112.578 6.72779C116.878 6.72779 121.179 6.73287 125.485 6.72779C126.837 6.73287 128.194 6.72779 129.552 6.72779C131.788 6.72779 134.03 6.74812 136.267 6.73796C136.333 6.72271 136.354 6.67696 136.328 6.59562ZM109.889 3.56075C109.99 3.27608 110.265 3.0829 110.555 3.01682C111.114 2.88465 111.739 3.38283 111.693 3.96744C111.698 4.54187 111.093 5.00956 110.539 4.87739C110.316 4.80113 110.102 4.68421 109.965 4.48596C109.787 4.21653 109.746 3.8556 109.889 3.56075ZM125.058 3.33708C125.292 3.07782 125.663 2.9304 126.009 3.0219C126.268 3.09815 126.522 3.26591 126.634 3.52009C126.858 3.95727 126.685 4.54696 126.248 4.77572C125.861 4.98922 125.373 4.88755 125.078 4.57746C124.778 4.23686 124.758 3.67767 125.058 3.33708Z" fill="url(#paint1_radial_25121_18811)" stroke="#FCD109" stroke-width="0.0280253"/>
<path d="M126.354 8.82963C126.425 8.84488 125.983 8.40536 126.07 8.38503C126.151 8.3952 126.46 8.15581 126.832 8.35112C127.205 8.54643 127.113 9.00349 127.07 9.17297C127.02 9.37469 126.892 9.5034 126.79 9.60507C126.734 9.65083 126.609 9.722 126.532 9.71691C126.578 9.46782 126.431 9.42715 126.421 9.17297L126.354 8.82963Z" fill="url(#paint2_linear_25121_18811)" stroke="#FCD109" stroke-width="0.0280253"/>
<path d="M110.103 9.10521C110.093 9.35939 109.946 9.40006 109.991 9.64915C109.915 9.65423 109.79 9.58306 109.734 9.53731C109.632 9.43564 109.504 9.30693 109.453 9.10521C109.411 8.93578 109.319 8.47872 109.691 8.28336C110.064 8.088 110.373 8.32738 110.454 8.31726C110.54 8.3376 110.099 8.77712 110.17 8.76187L110.103 9.10521Z" fill="url(#paint3_linear_25121_18811)" stroke="#FCD109" stroke-width="0.0280253"/>
<path d="M125.688 12.0861C125.764 12.0197 125.815 12.0197 125.917 12.0197C125.307 13.3415 124.595 14.6632 123.525 15.6922C123.411 15.7944 123.29 15.8891 123.163 15.9758C123.041 16.0654 122.921 16.1495 122.801 16.2352C122.684 16.3163 122.568 16.398 122.455 16.4831C122.165 16.6407 121.911 16.8594 121.591 16.9559C121.006 17.2355 120.376 17.4236 119.74 17.5558C119.491 17.5965 119.237 17.6574 118.983 17.6625C118.668 17.7541 118.332 17.6879 118.012 17.7083C117.834 17.7388 117.676 17.6371 117.504 17.6574C117.354 17.6362 117.204 17.6108 117.055 17.5811C116.905 17.5503 116.755 17.5147 116.606 17.4744C114.276 16.7474 111.988 14.9682 111.322 12.5619C111.292 12.3999 111.276 12.2354 111.276 12.0706C111.347 12.2129 111.421 12.3542 111.498 12.4942C112.446 14.5615 114.326 16.1882 116.549 16.6787C116.729 16.761 116.924 16.7322 117.097 16.8033C117.255 16.8033 117.407 16.7983 117.56 16.8491C118.083 16.8592 118.607 16.8542 119.13 16.8542C119.202 16.8593 119.268 16.8237 119.339 16.8084C120.212 16.7788 121.067 16.5408 121.863 16.1799C122.022 16.1077 122.179 16.0306 122.333 15.9493C122.468 15.8782 122.6 15.8012 122.728 15.7186C122.854 15.6374 122.976 15.551 123.095 15.4595C124.036 14.714 124.849 13.7481 125.402 12.6374C125.507 12.4376 125.603 12.2525 125.688 12.0861Z" fill="#BDA727" stroke="#BDA727" stroke-width="0.0280253"/>
<path d="M124.86 16.6051C126.37 15.7206 128.119 15.2935 129.857 15.2122C130.421 15.1614 130.991 15.1766 131.55 15.2478C131.916 15.3342 132.292 15.4359 132.582 15.685C132.434 15.6951 132.292 15.629 132.145 15.6087C131.728 15.5274 131.296 15.5579 130.874 15.5477C129.649 15.5477 128.413 15.6443 127.229 15.9798C126.609 16.1679 125.989 16.3865 125.424 16.7118C124.448 17.2507 123.569 17.9624 122.857 18.8164C121.586 20.2754 120.839 22.1258 120.478 24.0118C120.305 25.0234 120.107 26.0298 119.949 27.0465C119.695 27.072 119.436 27.0568 119.182 27.0568C118.063 27.0517 116.945 27.0465 115.827 27.0365C115.588 27.0465 115.354 26.9908 115.115 27.0059C113.081 27.016 111.048 27.0008 109.015 27.0008L109.055 26.9855C110.565 26.8279 112.08 26.6499 113.59 26.5026C115.506 26.4925 117.418 26.4974 119.334 26.5026C119.395 26.4925 119.502 26.5228 119.512 26.4365C119.67 25.613 119.822 24.7895 119.98 23.9659C120.198 22.8222 120.544 21.6936 121.078 20.6515C121.917 18.974 123.243 17.5506 124.86 16.6051Z" fill="#0D69B3" stroke="#0D69B3" stroke-width="0.0280253"/>
<path d="M127.229 15.9798C128.413 15.6443 129.648 15.5477 130.873 15.5477C131.295 15.5579 131.727 15.5274 132.144 15.6087C132.292 15.6291 132.434 15.6951 132.581 15.685C132.82 15.8781 132.963 16.1628 133.07 16.4475C133.303 17.1236 133.436 17.8251 133.547 18.5317C133.552 18.8164 133.603 19.1367 133.451 19.3959C133.308 19.6501 133.024 19.7721 132.754 19.8484C131.773 20.1026 130.746 19.8636 129.765 20.1026C128.957 20.2754 128.205 20.7227 127.691 21.3684C127.086 22.1207 126.766 23.0559 126.588 23.9914C126.451 24.8251 126.278 25.6588 126.141 26.4976C126.08 26.6857 126.044 26.8891 126.008 27.0874C126.969 27.1027 127.93 27.0874 128.891 27.0975C129.257 27.0874 129.623 27.1076 129.989 27.0822C130.192 27.5499 130.146 28.0787 130.08 28.5717C129.999 29.1258 129.867 29.6748 129.618 30.1831C129.409 30.6152 129.064 31.0118 128.591 31.1643C128.347 31.2609 128.083 31.2406 127.823 31.2406C126.969 31.2406 126.115 31.2507 125.261 31.2406C125.124 31.8659 125.032 32.5064 124.91 33.1418C124.687 34.377 124.468 35.6174 124.244 36.8579C124.239 36.8986 124.234 36.9849 124.234 37.0307V37.0358C122.013 37.0358 119.796 37.041 117.575 37.0358C117.58 37.0155 117.585 36.9799 117.59 36.9595C117.595 36.9341 117.6 36.8782 117.605 36.8477C117.611 36.8885 117.616 36.9647 117.621 37.0002C117.758 37.0155 118.007 37.0866 118.043 36.8885C118.388 35.0177 118.709 33.1368 119.064 31.266C118.927 31.2355 118.785 31.2355 118.643 31.2609C118.622 31.3321 118.602 31.4032 118.576 31.4743L118.607 31.2456C117.224 31.2404 115.836 31.2456 114.454 31.2404C114.118 31.2304 113.773 31.2404 113.437 31.1998C112.863 31.1744 112.283 31.1947 111.709 31.1387C110.997 31.1387 110.29 31.0727 109.579 31.0727C109.02 31.0168 108.455 31.0371 107.891 31.0116C107.525 30.966 107.149 30.9862 106.778 30.971C106.173 30.9049 105.558 30.9508 104.953 30.8846C104.312 30.8897 103.672 30.8337 103.031 30.8185C103.036 30.8134 103.041 30.7931 103.041 30.788C103.255 30.7931 103.463 30.7778 103.677 30.7727C104.15 30.7118 104.627 30.7524 105.1 30.6864C105.593 30.6864 106.081 30.6202 106.574 30.6202C107.012 30.5593 107.454 30.5948 107.891 30.5338C108.405 30.5338 108.908 30.4677 109.421 30.4627C109.843 30.4068 110.27 30.4373 110.692 30.3813C111.185 30.3864 111.673 30.3102 112.166 30.3152C112.649 30.2592 113.142 30.2745 113.625 30.2236C113.58 30.0356 113.544 29.8476 113.503 29.6594C113.468 29.5424 113.325 29.5678 113.234 29.5526C112.131 29.3949 111.033 29.2374 109.935 29.0849C110.006 29.0289 110.102 29.0543 110.184 29.0443C111.038 28.978 111.887 28.9018 112.741 28.8409C112.934 28.8307 113.122 28.7952 113.315 28.7901C113.229 28.5257 113.178 28.236 113.061 27.9919C111.236 27.7123 109.411 27.4632 107.591 27.1634C108.064 27.0871 108.542 27.0515 109.015 27.0006C111.048 27.0006 113.081 27.0159 115.115 27.0057C115.354 26.9905 115.588 27.0464 115.826 27.0363C116.945 27.0464 118.063 27.0516 119.182 27.0566C119.436 27.0566 119.695 27.0719 119.949 27.0464C120.107 26.0297 120.305 25.0232 120.478 24.0116C120.839 22.1255 121.586 20.2752 122.857 18.8163C123.569 17.9622 124.448 17.2505 125.424 16.7117C125.988 16.3865 126.608 16.1679 127.229 15.9798Z" fill="#107BD4" stroke="#107BD4" stroke-width="0.0280253"/>
<path d="M126.141 26.4976C127.107 26.5028 128.078 26.4925 129.048 26.5028C129.435 26.5028 129.831 26.7162 129.989 27.0822C129.623 27.1076 129.257 27.0874 128.891 27.0975C127.93 27.0874 126.969 27.1027 126.009 27.0874C126.044 26.8891 126.08 26.6857 126.141 26.4976ZM118.643 31.2609C118.785 31.2355 118.927 31.2355 119.064 31.266C118.709 33.1368 118.388 35.0177 118.043 36.8885C118.007 37.0866 117.758 37.0155 117.621 37.0002C117.616 36.9647 117.611 36.8885 117.605 36.8477C117.926 35.0584 118.236 33.2638 118.576 31.4745C118.602 31.4032 118.622 31.3321 118.643 31.2609Z" fill="#0D69B3" stroke="#0D69B3" stroke-width="0.0280253"/>
<path d="M126.586 8.97197C126.545 8.89572 126.54 8.80421 126.54 8.71779L126.499 8.72288C126.438 8.4992 126.25 8.28569 126.006 8.27553C125.823 8.26028 125.594 8.26536 125.488 8.4382C125.284 8.71271 125.381 9.06347 125.371 9.37357C125.371 9.3939 125.376 9.42949 125.376 9.44982C125.376 9.65825 125.35 9.86159 125.315 10.0649C125.284 10.1259 125.269 10.192 125.269 10.2632C125.183 10.741 125.01 11.2138 124.776 11.6459C124.73 11.7069 124.695 11.773 124.679 11.8442C124.527 12.1085 124.344 12.3525 124.156 12.5965C124.125 12.6219 124.1 12.6524 124.074 12.6829C123.942 12.8456 123.8 12.9829 123.652 13.1252C123.617 13.1455 123.592 13.171 123.561 13.1913C123.388 13.3591 123.195 13.5166 122.987 13.6437C122.961 13.659 122.936 13.6793 122.905 13.6996C121.604 14.5588 120.023 14.9146 118.482 14.9299C117.176 14.9705 115.859 14.6909 114.68 14.1267C114.66 14.1165 114.609 14.0962 114.588 14.086C114.39 13.9792 114.187 13.8877 114.004 13.7556C113.963 13.7352 113.923 13.7098 113.877 13.6895C113.689 13.5776 113.511 13.4556 113.343 13.3133C113.287 13.2625 113.226 13.2218 113.165 13.176C112.982 13.0286 112.794 12.871 112.636 12.6931C112.596 12.6474 112.555 12.6067 112.514 12.566C111.96 11.9916 111.528 11.2901 111.3 10.5275C111.081 9.92259 111.112 9.26173 111.086 8.62629C110.903 8.3467 110.517 8.18911 110.212 8.36195C110.085 8.45345 110.069 8.62121 109.973 8.73813C109.815 10.4157 110.532 12.0882 111.676 13.2981C111.676 13.3387 111.696 13.3641 111.732 13.3794C111.935 13.5675 112.133 13.7607 112.337 13.9437C112.372 13.9792 112.413 14.0148 112.459 14.0453C112.662 14.2131 112.881 14.3656 113.094 14.5232C113.135 14.5537 113.175 14.5791 113.221 14.6045C113.501 14.7672 113.765 14.9604 114.065 15.0722C114.085 15.0875 114.121 15.1129 114.141 15.123C115.107 15.5856 116.149 15.9008 117.217 16.0025C117.334 16.0025 117.451 16.0127 117.568 16.0381C118.076 16.0686 118.584 16.0533 119.093 16.0432C120.663 15.9059 122.285 15.5246 123.597 14.5994L123.612 14.6198C123.653 14.5842 123.688 14.5537 123.729 14.5232C123.937 14.3707 124.141 14.208 124.344 14.0402C124.39 14.0047 124.441 13.964 124.486 13.9182C124.71 13.6742 124.969 13.4506 125.157 13.171L125.188 13.1862C125.203 13.1608 125.229 13.11 125.244 13.0845C125.417 12.8507 125.574 12.6067 125.727 12.3627C125.737 12.3474 125.762 12.322 125.773 12.3068L125.752 12.2864C125.768 12.2661 125.803 12.2254 125.818 12.2051C126.098 11.6357 126.347 11.041 126.433 10.4106C126.469 10.3954 126.489 10.3649 126.489 10.3293C126.495 10.1259 126.566 9.93276 126.545 9.72942C126.591 9.48032 126.596 9.22615 126.586 8.97197Z" fill="white" stroke="white" stroke-width="0.0280253"/>
<mask id="mask0_25121_18811" style="mask-type:luminance" maskUnits="userSpaceOnUse" x="109" y="8" width="18" height="9">
<path d="M126.586 8.97197C126.545 8.89572 126.54 8.80421 126.54 8.71779L126.499 8.72288C126.438 8.4992 126.25 8.28569 126.006 8.27553C125.823 8.26028 125.594 8.26536 125.488 8.4382C125.284 8.71271 125.381 9.06347 125.371 9.37357C125.371 9.3939 125.376 9.42949 125.376 9.44982C125.376 9.65825 125.35 9.86159 125.315 10.0649C125.284 10.1259 125.269 10.192 125.269 10.2632C125.183 10.741 125.01 11.2138 124.776 11.6459C124.73 11.7069 124.695 11.773 124.679 11.8442C124.527 12.1085 124.344 12.3525 124.156 12.5965C124.125 12.6219 124.1 12.6524 124.074 12.6829C123.942 12.8456 123.8 12.9829 123.652 13.1252C123.617 13.1455 123.592 13.171 123.561 13.1913C123.388 13.3591 123.195 13.5166 122.987 13.6437C122.961 13.659 122.936 13.6793 122.905 13.6996C121.604 14.5588 120.023 14.9146 118.482 14.9299C117.176 14.9705 115.859 14.6909 114.68 14.1267C114.66 14.1165 114.609 14.0962 114.588 14.086C114.39 13.9792 114.187 13.8877 114.004 13.7556C113.963 13.7352 113.923 13.7098 113.877 13.6895C113.689 13.5776 113.511 13.4556 113.343 13.3133C113.287 13.2625 113.226 13.2218 113.165 13.176C112.982 13.0286 112.794 12.871 112.636 12.6931C112.596 12.6474 112.555 12.6067 112.514 12.566C111.96 11.9916 111.528 11.2901 111.3 10.5275C111.081 9.92259 111.112 9.26173 111.086 8.62629C110.903 8.3467 110.517 8.18911 110.212 8.36195C110.085 8.45345 110.069 8.62121 109.973 8.73813C109.815 10.4157 110.532 12.0882 111.676 13.2981C111.676 13.3387 111.696 13.3641 111.732 13.3794C111.935 13.5675 112.133 13.7607 112.337 13.9437C112.372 13.9792 112.413 14.0148 112.459 14.0453C112.662 14.2131 112.881 14.3656 113.094 14.5232C113.135 14.5537 113.175 14.5791 113.221 14.6045C113.501 14.7672 113.765 14.9604 114.065 15.0722C114.085 15.0875 114.121 15.1129 114.141 15.123C115.107 15.5856 116.149 15.9008 117.217 16.0025C117.334 16.0025 117.451 16.0127 117.568 16.0381C118.076 16.0686 118.584 16.0533 119.093 16.0432C120.663 15.9059 122.285 15.5246 123.597 14.5994L123.612 14.6198C123.653 14.5842 123.688 14.5537 123.729 14.5232C123.937 14.3707 124.141 14.208 124.344 14.0402C124.39 14.0047 124.441 13.964 124.486 13.9182C124.71 13.6742 124.969 13.4506 125.157 13.171L125.188 13.1862C125.203 13.1608 125.229 13.11 125.244 13.0845C125.417 12.8507 125.574 12.6067 125.727 12.3627C125.737 12.3474 125.762 12.322 125.773 12.3068L125.752 12.2864C125.768 12.2661 125.803 12.2254 125.818 12.2051C126.098 11.6357 126.347 11.041 126.433 10.4106C126.469 10.3954 126.489 10.3649 126.489 10.3293C126.495 10.1259 126.566 9.93276 126.545 9.72942C126.591 9.48032 126.596 9.22615 126.586 8.97197V8.97197Z" fill="white"/>
</mask>
<g mask="url(#mask0_25121_18811)">
<path d="M109.582 8.80025C109.994 8.92953 110.941 8.60428 111.209 8.90192M109.819 10.0542C110.214 9.91675 111.061 9.5914 111.412 9.78305M110.226 11.3081C110.417 11.3699 110.793 11.0346 110.98 10.9363C111.258 10.79 111.543 10.678 111.853 10.6303M110.836 12.6298C111.033 12.35 111.269 12.1177 111.553 11.9189C111.835 11.722 112.606 11.1958 112.937 11.3759M111.412 13.5788C111.636 13.4011 111.727 13.0868 111.961 12.9002C112.245 12.6744 112.68 12.6338 112.971 12.4942M112.369 14.2819C112.436 13.7904 112.935 13.1973 113.412 13.2398M113.107 14.9682C113.358 14.943 113.571 14.3798 113.741 14.1889C113.996 13.9029 114.26 13.815 114.598 13.7143M114.564 15.5783C114.548 15.2226 114.915 14.2029 115.343 14.2566M115.648 15.9172C115.631 15.4969 115.848 14.2327 116.36 14.1888M116.767 16.595C116.67 16.0072 116.676 15.1569 117.139 14.731M118.156 16.7306C118.105 16.2406 117.618 15.2502 118.156 14.8666M119.647 16.3916C119.415 16.1222 119.28 15.0592 119.376 14.7649M121.071 16.1544C120.892 15.8289 120.669 15.5232 120.601 15.1454C120.561 14.9195 120.632 14.5979 120.596 14.426M122.257 15.646C121.868 15.3917 121.76 14.4569 121.884 14.0532M123.409 15.1377C123.133 14.5444 122.838 14.0844 122.833 13.4093M124.528 14.0532C124.098 13.7641 123.549 13.2386 123.613 12.6637M125.714 13.1382C125.061 12.9935 124.277 12.4093 123.884 11.8842M126.256 12.0198C125.785 11.9188 124.228 11.3116 124.324 10.6981M126.764 10.8337C126.108 10.5931 125.153 10.3768 124.629 9.91863M127.103 9.74914C126.69 9.78452 126.098 9.58439 125.677 9.5119C125.211 9.43142 124.778 9.27419 124.324 9.17298M126.696 8.69858C125.899 8.74632 125.151 8.47348 124.426 8.22414" stroke="#D1D1D1" stroke-width="0.596284"/>
</g>
<path d="M24.6724 11.1428C25.4091 11.0317 26.2569 10.9622 26.8823 11.4208C27.2715 11.7126 27.4104 12.2407 27.3826 12.7134C27.4104 13.4917 27.0491 14.3256 26.3543 14.7288C25.7426 15.0623 25.0061 15.09 24.3249 15.0205C23.8663 14.965 23.4077 14.7149 23.1714 14.2979C22.6431 13.0887 23.2964 11.3791 24.6724 11.1428ZM2.62871 12.0185C2.67034 11.6015 3.04566 11.2262 3.47649 11.2402C6.68724 11.2402 9.88397 11.254 13.0807 11.2402C13.4282 11.2124 13.8035 11.3652 13.9702 11.671C14.2064 12.088 13.998 12.5466 13.9702 12.9775C13.873 13.5612 13.9007 14.3396 13.2198 14.5619C10.8847 14.6314 8.54965 14.5619 6.21458 14.5897C5.99223 16.0629 5.78375 17.5223 5.5613 18.9817C5.5613 19.0373 5.57527 19.1625 5.57527 19.2179C7.28481 19.2041 8.99436 19.2179 10.7039 19.2041C11.1765 19.1763 11.6768 19.5795 11.6351 20.0797C11.5935 20.594 11.4822 21.0943 11.4128 21.6086C11.3571 21.9561 11.0792 22.2758 10.7178 22.3452C8.81358 22.3869 6.88159 22.3036 4.97761 22.3869C4.67173 24.4857 4.31034 26.5843 3.99064 28.6831C3.94905 29.1001 3.61537 29.4615 3.19842 29.4752C2.40627 29.4892 1.61393 29.4892 0.821775 29.4752C0.307526 29.4892 -0.109479 28.9192 0.0294538 28.4328C0.877538 22.9569 1.75312 17.4947 2.62871 12.0185ZM16.7499 11.2678C17.4728 11.2123 18.2093 11.254 18.9321 11.2402C19.3769 11.2124 19.8217 11.5598 19.8633 12.0185C19.8633 12.3798 19.766 12.7412 19.7244 13.1025C19.1406 16.8275 18.5429 20.5524 17.9591 24.2773C17.8757 24.875 17.7229 25.5143 17.9036 26.1259C18.1121 26.7374 19.0432 26.4733 19.2656 27.1126C19.4046 27.6269 19.2516 28.1689 19.21 28.6971C19.1683 29.392 18.3761 29.5448 17.8341 29.698C16.6527 29.9203 15.221 29.7535 14.3732 28.7804C13.7616 28.0717 13.7199 27.0709 13.8451 26.1815C14.5817 21.4559 15.3183 16.7303 16.0689 11.9907C16.1107 11.6432 16.3886 11.3235 16.7499 11.2678ZM44.3393 12.0185C44.3809 11.6015 44.7562 11.2402 45.1732 11.2402H47.2859C47.814 11.2262 48.245 11.7961 48.1198 12.2964C47.6334 15.382 47.133 18.4676 46.6466 21.553C47.3832 21.4419 48.2172 21.3029 48.7315 20.7052C49.5931 19.7322 50.3021 18.6066 50.8301 17.4252C51.0108 16.9665 51.1081 16.2994 51.7058 16.2159C52.498 16.1881 53.3041 16.202 54.0964 16.2159C54.6385 16.202 55.0415 16.8136 54.8608 17.3139C54.6523 18.0507 54.3049 18.7316 53.9435 19.3849C53.1373 20.6914 52.2479 21.984 51.0803 23.0125C51.5945 24.5552 52.2479 26.0563 52.8177 27.5714C52.9844 28.0717 53.3877 28.6554 53.0123 29.142C52.5813 29.7257 51.7752 29.4337 51.1776 29.5032C50.5521 29.4337 49.6487 29.7534 49.3012 29.0446C48.6479 27.5295 48.106 25.973 47.4387 24.458C47.0496 24.4717 46.6466 24.4858 46.2573 24.4441C46.2297 24.4997 46.174 24.6108 46.1461 24.6665C45.9376 26.0563 45.7153 27.4463 45.4928 28.836C45.4094 29.1696 45.1453 29.4616 44.784 29.4894C44.0474 29.5172 43.2969 29.5032 42.5463 29.5032C42.2266 29.5032 41.9348 29.2947 41.7958 29.0168C41.6568 28.7386 41.7401 28.4191 41.782 28.1134C42.6436 22.7484 43.4914 17.3834 44.3393 12.0185ZM82.9643 13.5335C83.0617 13.1442 83.4368 12.8802 83.8261 12.894C84.3821 12.908 84.9519 12.8802 85.5217 12.908C85.9804 12.9218 86.3418 13.3805 86.2861 13.8253C86.2027 14.6175 86.0081 15.4098 85.9526 16.2019C86.4946 16.2019 87.0505 16.1881 87.5926 16.2019C88.0791 16.2019 88.4822 16.7023 88.3988 17.1748C88.3292 17.6058 88.2319 18.0228 88.1624 18.4535C88.0929 18.815 87.7873 19.1068 87.4398 19.1624C86.7726 19.2041 86.1194 19.1346 85.4661 19.2041C85.1882 21.0664 84.8824 22.9288 84.5905 24.7915C84.5487 25.2223 84.521 25.7087 84.7712 26.084C85.1465 26.5427 85.7996 26.3758 86.3279 26.4315C86.7448 26.5565 87.0089 27.0153 86.9393 27.4324C86.8698 27.9048 86.856 28.3774 86.7448 28.836C86.578 29.3502 85.9804 29.4476 85.5216 29.5726C84.2569 29.9063 82.7975 29.9063 81.6718 29.1696C80.6294 28.4607 80.4625 27.0847 80.5737 25.9172C80.8655 23.6655 81.3243 21.4279 81.5744 19.1623C81.1853 19.1762 80.7127 19.2318 80.4209 18.8843C80.0873 18.5369 80.2541 18.0226 80.3097 17.5916C80.3931 17.133 80.3791 16.5354 80.8796 16.2852C81.2825 16.1322 81.7413 16.2435 82.1722 16.1879C82.4362 15.2985 82.6864 14.409 82.9643 13.5335ZM75.1114 18.0366C75.9871 17.161 77.0433 16.4382 78.2526 16.077C78.7807 15.8406 79.4618 16.2854 79.4479 16.8692C79.3506 17.6336 79.1699 18.3841 79.0448 19.1346C78.9891 19.5099 78.6695 19.8296 78.2942 19.8713C76.9321 20.1075 75.7507 20.9274 74.8056 21.9004C74.5694 22.1924 74.2219 22.4704 74.1802 22.8734C73.8884 24.8192 73.5826 26.7651 73.2768 28.7109C73.2352 29.1278 72.8736 29.531 72.4428 29.5032H70.3301C69.8437 29.531 69.4129 29.0446 69.4685 28.5581C70.08 24.708 70.6917 20.872 71.2892 17.0219C71.3171 16.6328 71.5951 16.2576 71.998 16.2158C72.5123 16.188 73.0265 16.2019 73.5548 16.2019C73.9717 16.2019 74.3608 16.5772 74.3608 17.0081C74.3608 17.6057 74.3053 18.2172 74.2914 18.8288C74.625 18.6204 74.8335 18.2868 75.1114 18.0366ZM23.1574 16.2714C23.9079 16.1186 24.6862 16.2437 25.4368 16.202C25.8677 16.1464 26.3263 16.4244 26.3958 16.8553C26.4515 17.2444 26.3401 17.6197 26.2984 17.995C25.7287 21.5671 25.1587 25.139 24.6028 28.711C24.5611 29.1143 24.2276 29.5172 23.7967 29.5033C23.0462 29.5033 22.2956 29.5172 21.5312 29.4895C21.0586 29.4338 20.7111 28.8919 20.8363 28.4331C21.4339 24.7222 22.0039 21.025 22.6015 17.3139C22.6293 16.9109 22.7405 16.4382 23.1574 16.2714ZM68.1342 16.4523C66.0632 16.063 63.9507 15.785 61.8518 15.9935C59.9755 16.2298 58.0852 17.0777 56.9317 18.6204C55.3333 20.6496 54.7912 23.3739 55.1525 25.9036C55.3472 27.1127 55.8753 28.3358 56.8622 29.0863C57.7795 29.7952 59.0165 29.8924 60.1285 29.7117C61.685 29.4059 63.0054 28.4054 64.0896 27.2934C64.1451 27.7659 64.0339 28.2385 64.0618 28.6972C64.0896 29.1279 64.4787 29.531 64.9096 29.5032H66.3274C66.7443 29.5032 67.0918 29.1142 67.1196 28.711C67.7173 24.9444 68.3149 21.1916 68.8987 17.439C68.9819 16.9664 68.6068 16.5078 68.1342 16.4523ZM64.2287 22.9986C63.6727 24.041 62.8943 24.9861 62.0186 25.7921C61.5183 26.2091 60.8789 26.6401 60.198 26.5011C59.5308 26.3621 59.2111 25.6672 59.0583 25.0695C58.7108 23.5129 59.0305 21.8171 59.906 20.469C60.2952 19.8434 60.9206 19.371 61.6434 19.1763C62.658 18.9261 63.7283 19.0512 64.7152 19.3292L64.7707 19.3849C64.6456 20.594 64.4093 21.7894 64.2287 22.9986ZM40.8507 20.9138C40.8367 19.5238 40.4615 18.0645 39.4886 17.022C38.8215 16.2854 37.8207 15.9102 36.8479 15.9239C35.2355 15.8685 33.7206 16.6607 32.5392 17.7169C32.275 17.9255 32.0944 18.2313 31.8026 18.398C31.8026 17.9393 31.8442 17.4807 31.8303 17.0082C31.8442 16.5772 31.4411 16.202 31.0242 16.202H29.6064C29.1618 16.202 28.8003 16.5912 28.7725 17.022C27.8969 22.5816 27.0075 28.1411 26.1318 33.7007C26.0068 34.2149 26.4516 34.7432 26.9797 34.7292C27.758 34.7153 28.5503 34.7848 29.3147 34.6735C29.9263 34.5067 29.9123 33.7979 30.0096 33.2837C30.232 32.0605 30.385 30.8374 30.5239 29.6004C33.262 30.1285 36.4448 29.7673 38.4879 27.6963C40.1558 25.8757 40.934 23.3599 40.8507 20.9138ZM36.959 22.3175C36.8757 23.5962 36.417 24.8888 35.5275 25.8199C34.374 26.9181 32.6225 26.7651 31.2049 26.39C31.1772 26.3482 31.1354 26.2647 31.1215 26.2232C31.3439 25.0139 31.4551 23.7908 31.7331 22.5955C32.5115 21.3169 33.4565 20.0242 34.8047 19.3154C35.3051 19.0792 35.9861 19.1347 36.3475 19.5934C36.959 20.3578 37.0146 21.3863 36.959 22.3175Z" fill="#107BD4" stroke="#107BD4" stroke-width="0.0301123"/>
</g>
<defs>
<linearGradient id="paint0_linear_25121_18811" x1="118.269" y1="7.19543" x2="118.269" y2="37.0746" gradientUnits="userSpaceOnUse">
<stop stop-color="#F7E830"/>
<stop offset="1" stop-color="#FDCB06"/>
</linearGradient>
<radialGradient id="paint1_radial_25121_18811" cx="0" cy="0" r="1" gradientUnits="userSpaceOnUse" gradientTransform="translate(118.113 20.8233) scale(24.3033 24.3033)">
<stop offset="0.596" stop-color="#F29405"/>
<stop offset="0.736" stop-color="#F7D01E"/>
<stop offset="1" stop-color="#FDCB06"/>
</radialGradient>
<linearGradient id="paint2_linear_25121_18811" x1="126.583" y1="8.2738" x2="126.592" y2="9.6887" gradientUnits="userSpaceOnUse">
<stop stop-color="#FADA1C"/>
<stop offset="1" stop-color="#FDCB06"/>
</linearGradient>
<linearGradient id="paint3_linear_25121_18811" x1="109.941" y1="8.20604" x2="109.932" y2="9.62093" gradientUnits="userSpaceOnUse">
<stop stop-color="#FADA1C"/>
<stop offset="1" stop-color="#FDCB06"/>
</linearGradient>
<clipPath id="clip0_25121_18811">
<rect width="136.406" height="37" fill="white"/>
</clipPath>
</defs>
</svg>
