<svg width="134" height="37" viewBox="0 0 134 37" fill="none" xmlns="http://www.w3.org/2000/svg">
<mask id="mask0_25121_18157" style="mask-type:luminance" maskUnits="userSpaceOnUse" x="0" y="0" width="134" height="37">
<path d="M133.977 0H0V37H133.977V0Z" fill="white"/>
</mask>
<g mask="url(#mask0_25121_18157)">
<path d="M13.0182 23.0887H11.8013V27.7556H13.0182V23.0887Z" fill="#D5A62A"/>
<path d="M14.0676 23.0887H15.9991L16.9705 26.1925H16.9816L17.9976 23.0887H19.851V27.7556H18.6563L18.6787 24.1717H18.6563L17.4952 27.7556H16.3676L15.2511 24.1717H15.2399L15.2623 27.7556H14.0676V23.0887Z" fill="#D5A62A"/>
<path d="M21.3584 24.0042H20.2307V23.0887H23.7141V24.0042H22.5865V27.7556H21.3584V24.0042Z" fill="#D5A62A"/>
<mask id="mask1_25121_18157" style="mask-type:luminance" maskUnits="userSpaceOnUse" x="0" y="0" width="134" height="37">
<path d="M133.977 0H0V37H133.977V0Z" fill="white"/>
</mask>
<g mask="url(#mask1_25121_18157)">
<path d="M16.9817 5.2251C16.9817 5.2251 16.6691 5.0353 16.6244 5.01297C16.5128 4.93482 16.4011 4.8455 16.3118 4.74502C16.122 4.55522 15.9657 4.32076 15.8652 4.07513C15.6084 3.42758 15.7312 2.7242 15.921 2.07664C16.0662 1.57423 16.256 1.09414 16.4793 0.636386C16.5574 0.48008 16.6467 0.312608 16.7361 0.156301C16.7584 0.122807 16.8365 0.0334896 16.8365 -0.0111694C16.7919 0.602892 17.1603 1.1388 17.3501 1.68587C17.5623 2.28877 17.8079 2.98099 17.7297 3.63971C17.6627 4.17561 17.4283 4.87899 16.9817 5.21394" fill="#D5A62A"/>
<path d="M18.4556 7.71486C18.4332 7.30177 18.2099 6.93333 17.9866 6.58722C17.7633 6.24111 17.5959 5.83918 17.5289 5.42609C17.4619 4.99066 17.6182 4.55524 17.8303 4.1868C17.9531 3.97467 18.0983 3.78487 18.2657 3.60623C18.2881 3.5839 18.489 3.41643 18.489 3.38293C18.6788 4.67805 19.4492 5.07998 19.3041 6.18529C19.2482 6.59838 19.1143 7.01148 18.8575 7.33526C18.757 7.46924 18.6119 7.63671 18.4556 7.7037" fill="#D5A62A"/>
<path d="M17.4951 10.3944C17.4281 9.51237 16.7136 8.9318 16.0772 8.40706C15.6083 8.02746 15.184 7.55854 14.9495 6.97797C14.6927 6.35274 14.7262 5.59354 14.9495 4.96831C15.05 4.66686 15.2175 4.41007 15.3961 4.14212C15.3961 4.14212 15.5971 4.55522 16.5908 5.30326C17.4504 5.95081 18.0198 6.94448 18.1092 8.02746C18.1762 8.83132 17.9417 9.70217 17.5063 10.3832" fill="#D5A62A"/>
<path d="M16.7247 11.8793C17.2271 11.4439 18.0087 10.64 18.232 9.57934C18.3659 8.97644 18.4999 8.35121 18.8237 7.81531C19.1028 7.36872 19.5717 7.07843 20.063 6.93329C19.9737 7.40221 20.0072 7.88229 20.063 8.35121C20.13 8.85363 20.1746 9.45652 20.0407 9.94777C19.9178 10.4167 19.6499 10.8075 19.2926 11.1201C18.6339 11.723 17.3946 12.0244 16.7024 11.8793" fill="#D5A62A"/>
<path d="M14.369 6.56488C14.369 6.56488 14.7709 7.67019 15.4743 8.41823C15.8651 8.83133 16.3228 9.17743 16.7136 9.57937C17.1378 10.026 17.2718 10.6958 16.9592 11.2429C16.6801 11.7342 16.0549 11.8123 15.5524 11.723C14.9719 11.6114 14.5365 11.2764 14.2462 10.7517C13.9894 10.2716 13.8554 9.72451 13.7996 9.1886C13.6991 8.27309 14.0005 7.39107 14.369 6.56488Z" fill="#D5A62A"/>
<path d="M18.8461 12.3036H15.0613V13.0739H18.8461V12.3036Z" fill="#D5A62A"/>
<path d="M20.7554 13.3307H13.1746V14.3579H20.7554V13.3307Z" fill="#D5A62A"/>
<path d="M25.9135 13.0516C25.333 11.4662 24.8082 9.83615 24.2946 8.22842C23.7922 6.67652 23.3121 5.12462 22.8321 3.56155H20.7666C21.1797 4.99064 21.5928 6.40857 21.9947 7.83766C22.3296 8.99879 22.6534 10.1711 22.966 11.3322C23.1558 12.0244 23.3791 12.806 23.5019 13.5205C23.7587 15.0389 23.2563 15.8093 21.6933 15.8093H18.2322V14.8715H15.6643V15.8093H12.2032C10.6401 15.8093 10.1377 15.0501 10.3945 13.5205C10.5173 12.8171 10.7518 12.0356 10.9304 11.3322C11.243 10.1599 11.5668 8.99879 11.9018 7.83766C12.3037 6.40857 12.7168 4.99064 13.1299 3.56155H11.0644C10.5843 5.12462 10.0931 6.67652 9.60182 8.22842C9.08824 9.83615 8.5635 11.4662 7.98293 13.0516C6.93345 15.9098 8.82029 18.3102 11.779 18.3549C12.7503 18.366 13.7216 18.3883 14.693 18.3772C14.8939 18.3772 15.6643 18.3549 15.6643 18.3549V22.0616H18.1987V18.3549C18.1987 18.3549 18.9691 18.366 19.17 18.3772C20.1414 18.3772 21.1127 18.3772 22.084 18.3549C25.0427 18.3102 26.9295 15.9098 25.88 13.0516" fill="#D5A62A"/>
<path d="M3.08147 37C4.77851 37 6.16294 35.6156 6.16294 33.9185C6.16294 32.2215 4.77851 30.837 3.08147 30.837C1.38443 30.837 0 32.2215 0 33.9185C0 35.6156 1.38443 37 3.08147 37Z" fill="#263D8A"/>
<path d="M12.3371 37C14.0341 37 15.4186 35.6156 15.4186 33.9185C15.4186 32.2215 14.0341 30.837 12.3371 30.837C10.64 30.837 9.25562 32.2215 9.25562 33.9185C9.25562 35.6156 10.64 37 12.3371 37Z" fill="#263D8A"/>
<path d="M21.5815 37C23.2785 37 24.6629 35.6156 24.6629 33.9185C24.6629 32.2215 23.2785 30.837 21.5815 30.837C19.8844 30.837 18.5 32.2215 18.5 33.9185C18.5 35.6156 19.8844 37 21.5815 37Z" fill="#263D8A"/>
<path d="M30.8371 37C32.5341 37 33.9186 35.6156 33.9186 33.9185C33.9186 32.2215 32.5341 30.837 30.8371 30.837C29.14 30.837 27.7556 32.2215 27.7556 33.9185C27.7556 35.6156 29.14 37 30.8371 37Z" fill="#263D8A"/>
<path d="M44.2571 3.87418H43.1741V9.25559H44.2571V3.87418Z" fill="#050508"/>
<path d="M45.3066 5.2809H46.2891V5.81681H46.3003C46.6241 5.35906 47.0595 5.18042 47.6066 5.18042C48.5444 5.18042 48.9575 5.83914 48.9575 6.73232V9.23323H47.9304V7.11192C47.9304 6.62067 47.9304 5.97312 47.2605 5.97312C46.5124 5.97312 46.3561 6.77698 46.3561 7.29056V9.23323H45.329V5.25857L45.3066 5.2809Z" fill="#050508"/>
<path d="M52.385 6.1183C52.0724 6.00665 51.8379 5.95083 51.4583 5.95083C51.1792 5.95083 50.8443 6.05131 50.8443 6.38625C50.8443 7.02264 52.6418 6.62071 52.6418 8.0498C52.6418 8.97648 51.8156 9.34491 50.9783 9.34491C50.5875 9.34491 50.1856 9.27792 49.806 9.17744L49.8729 8.32892C50.1967 8.49639 50.5317 8.58571 50.8889 8.58571C51.1457 8.58571 51.57 8.48523 51.57 8.10563C51.57 7.32409 49.7725 7.86 49.7725 6.43091C49.7725 5.57123 50.5205 5.20279 51.3244 5.20279C51.8044 5.20279 52.1282 5.28094 52.452 5.34793L52.385 6.12946V6.1183Z" fill="#050508"/>
<path d="M53.7807 6.04013H53.0215V5.28093H53.7807V4.48823L54.8078 4.15329V5.28093H55.7234V6.04013H54.8078V7.89348C54.8078 8.22843 54.8972 8.5522 55.2991 8.5522C55.4889 8.5522 55.6564 8.51871 55.768 8.44056L55.8015 9.25558C55.5894 9.31141 55.3438 9.3449 55.0423 9.3449C54.2384 9.3449 53.7807 8.84249 53.7807 8.06095V6.04013Z" fill="#050508"/>
<path d="M56.4714 5.2809H57.5098V9.25555H56.4714V5.2809ZM56.4714 3.57269H57.5098V4.55519H56.4714V3.57269Z" fill="#050508"/>
<path d="M58.8495 6.04013H58.0903V5.28093H58.8495V4.48823L59.8767 4.15329V5.28093H60.7922V6.04013H59.8767V7.89348C59.8767 8.22843 59.966 8.5522 60.3679 8.5522C60.5577 8.5522 60.7252 8.51871 60.8369 8.44056L60.8704 9.25558C60.6582 9.31141 60.4126 9.3449 60.1112 9.3449C59.3073 9.3449 58.8495 8.84249 58.8495 8.06095V6.04013Z" fill="#050508"/>
<path d="M65.1577 9.24441H64.1752V8.7085H64.164C63.8514 9.0881 63.4048 9.34489 62.8578 9.34489C61.9199 9.34489 61.5068 8.68617 61.5068 7.79299V5.29208H62.534V7.41339C62.534 7.89347 62.534 8.55219 63.2039 8.55219C63.9519 8.55219 64.1082 7.73716 64.1082 7.23475V5.29208H65.1354V9.26674L65.1577 9.24441Z" fill="#050508"/>
<path d="M66.5531 6.04013H65.7939V5.28093H66.5531V4.48823L67.5803 4.15329V5.28093H68.4958V6.04013H67.5803V7.89348C67.5803 8.22843 67.6696 8.5522 68.0716 8.5522C68.2614 8.5522 68.4288 8.51871 68.5405 8.44056L68.574 9.25558C68.3618 9.31141 68.1162 9.3449 67.8148 9.3449C67.0109 9.3449 66.5531 8.84249 66.5531 8.06095V6.04013Z" fill="#050508"/>
<path d="M71.7 6.87746C71.6665 6.37505 71.4432 5.93962 70.8626 5.93962C70.282 5.93962 69.9918 6.34156 69.9471 6.87746H71.7ZM72.4033 9.0211C72.0237 9.23323 71.5995 9.33371 71.0412 9.33371C69.735 9.33371 68.9646 8.57451 68.9646 7.2794C68.9646 6.12943 69.5787 5.18042 70.8068 5.18042C72.2805 5.18042 72.6936 6.18525 72.6936 7.58084H69.9471C69.9918 8.21723 70.4383 8.58567 71.0747 8.58567C71.5772 8.58567 72.0126 8.39587 72.3922 8.18374V9.0211H72.4033Z" fill="#050508"/>
<path d="M77.4612 8.54102C78.2539 8.54102 78.466 7.82647 78.466 7.16775C78.466 6.55369 78.1422 5.98429 77.4612 5.98429C76.7801 5.98429 76.4675 6.56485 76.4675 7.16775C76.4675 7.82647 76.6796 8.54102 77.4612 8.54102ZM77.4612 5.19159C78.6446 5.19159 79.5378 5.98429 79.5378 7.29056C79.5378 8.42937 78.7786 9.34488 77.4612 9.34488C76.1437 9.34488 75.3845 8.44053 75.3845 7.29056C75.3845 5.98429 76.2889 5.19159 77.4612 5.19159Z" fill="#050508"/>
<path d="M80.7321 6.04011H79.9729V5.28091H80.7321V4.72267C80.7321 3.92997 81.1787 3.37173 81.9937 3.37173C82.2505 3.37173 82.552 3.40523 82.7529 3.46105L82.6636 4.32074C82.5743 4.26491 82.4403 4.18676 82.217 4.18676C81.8709 4.18676 81.7593 4.48821 81.7593 4.80082V5.29207H82.6636V6.05128H81.7593V9.26672H80.7321V6.05128V6.04011Z" fill="#050508"/>
<path d="M43.1853 13.1186H44.9158L46.1886 17.1937H46.1998L47.4837 13.1186H49.2143V18.5H48.1759V14.0564H48.1648L46.7134 18.5H45.6862L44.2348 14.0564L44.2125 14.0788V18.5H43.1853V13.1186Z" fill="#050508"/>
<path d="M51.7485 17.8413C52.0611 17.8413 52.3067 17.7073 52.4742 17.484C52.6416 17.2607 52.6863 16.9704 52.6863 16.669H52.2397C51.782 16.669 51.0897 16.7471 51.0897 17.35C51.0897 17.685 51.38 17.8301 51.7485 17.8301M50.5427 14.7375C50.9446 14.5477 51.4805 14.436 51.9271 14.436C53.1329 14.436 53.6353 14.9384 53.6353 16.1107V16.6243C53.6353 17.0263 53.6353 17.3277 53.6465 17.618C53.6465 17.9194 53.6688 18.1986 53.6911 18.5H52.7868C52.7533 18.2879 52.7533 18.0311 52.7421 17.9083H52.731C52.4965 18.3437 51.9718 18.5893 51.5028 18.5893C50.7995 18.5893 50.1184 18.1651 50.1184 17.4059C50.1184 16.8141 50.4087 16.468 50.7995 16.2782C51.1902 16.0884 51.7038 16.0438 52.1281 16.0438H52.6975C52.6975 15.4074 52.4072 15.1841 51.8043 15.1841C51.3689 15.1841 50.9223 15.3515 50.5762 15.6195L50.5427 14.7375Z" fill="#050508"/>
<path d="M54.6514 14.5253H55.6339V15.0612H55.645C55.9688 14.6035 56.4042 14.4248 56.9513 14.4248C57.8891 14.4248 58.3022 15.0836 58.3022 15.9767V18.4776H57.2751V16.3563C57.2751 15.8651 57.2751 15.2175 56.6052 15.2175C55.8572 15.2175 55.7009 16.0214 55.7009 16.535V18.4776H54.6737V14.503L54.6514 14.5253Z" fill="#050508"/>
<path d="M60.7474 17.8413C61.06 17.8413 61.3057 17.7073 61.4731 17.484C61.6406 17.2607 61.6853 16.9704 61.6853 16.669H61.2387C60.7809 16.669 60.0887 16.7471 60.0887 17.35C60.0887 17.685 60.379 17.8301 60.7474 17.8301M59.5305 14.7375C59.9324 14.5477 60.4683 14.436 60.9149 14.436C62.1207 14.436 62.6231 14.9384 62.6231 16.1107V16.6243C62.6231 17.0263 62.6231 17.3277 62.6343 17.618C62.6343 17.9194 62.6566 18.1986 62.6789 18.5H61.7746C61.7411 18.2879 61.7411 18.0311 61.7299 17.9083H61.7188C61.4843 18.3437 60.9596 18.5893 60.4906 18.5893C59.7873 18.5893 59.1062 18.1651 59.1062 17.4059C59.1062 16.8141 59.3965 16.468 59.7873 16.2782C60.178 16.0884 60.6916 16.0438 61.1159 16.0438H61.6853C61.6853 15.4074 61.395 15.1841 60.7921 15.1841C60.3567 15.1841 59.9101 15.3515 59.564 15.6195L59.5305 14.7375Z" fill="#050508"/>
<path d="M66.2518 16.468C66.2518 15.787 65.995 15.2399 65.3921 15.2399C64.6887 15.2399 64.4654 15.8875 64.4654 16.5015C64.4654 17.0374 64.7557 17.7073 65.3475 17.7073C65.995 17.7073 66.2518 17.1491 66.2518 16.4792M67.2901 14.5254V18.1092C67.2901 19.1922 66.8547 20.2082 65.1911 20.2082C64.778 20.2082 64.3091 20.1412 63.8179 19.9403L63.9072 19.0582C64.2198 19.2257 64.7446 19.4044 65.0683 19.4044C66.2071 19.4044 66.263 18.5447 66.263 17.8636H66.2518C66.062 18.1986 65.5931 18.5 65.0237 18.5C63.8514 18.5 63.4048 17.5622 63.4048 16.5015C63.4048 15.5413 63.896 14.4472 65.0795 14.4472C65.6042 14.4472 66.0173 14.6258 66.2965 15.0836H66.3076V14.5477H67.2901V14.5254Z" fill="#050508"/>
<path d="M70.8403 16.1219C70.8068 15.6195 70.5835 15.1841 70.0029 15.1841C69.4224 15.1841 69.1321 15.586 69.0874 16.1219H70.8403ZM71.5325 18.2767C71.1529 18.4888 70.7286 18.5893 70.1704 18.5893C68.8641 18.5893 68.0938 17.8301 68.0938 16.535C68.0938 15.385 68.7078 14.436 69.9359 14.436C71.4097 14.436 71.8228 15.4409 71.8228 16.8365H69.0762C69.1209 17.4728 69.5675 17.8413 70.2151 17.8413C70.7175 17.8413 71.1417 17.6515 71.5325 17.4394V18.2767Z" fill="#050508"/>
<path d="M72.6267 14.5254H73.5869V15.0836H73.598C73.9218 14.5923 74.3907 14.436 74.7815 14.436C75.3397 14.436 75.7305 14.6482 75.9538 15.1394C76.1883 14.6593 76.713 14.436 77.1931 14.436C78.1756 14.436 78.4547 15.1059 78.4547 15.9879V18.4888H77.4164V16.1219C77.4164 15.7535 77.4164 15.2287 76.8247 15.2287C76.1436 15.2287 76.0543 16.0438 76.0543 16.5573V18.4888H75.0271V16.1219C75.0271 15.7535 75.0271 15.2287 74.4354 15.2287C73.7543 15.2287 73.665 16.0438 73.665 16.5573V18.4888H72.6379V14.5142L72.6267 14.5254Z" fill="#050508"/>
<path d="M81.9829 16.1219C81.9494 15.6195 81.7261 15.1841 81.1455 15.1841C80.5649 15.1841 80.2746 15.586 80.23 16.1219H81.9829ZM82.6751 18.2767C82.2955 18.4888 81.8712 18.5893 81.313 18.5893C80.0067 18.5893 79.2363 17.8301 79.2363 16.535C79.2363 15.385 79.8504 14.436 81.0785 14.436C82.5523 14.436 82.9654 15.4409 82.9654 16.8365H80.2188C80.2635 17.4728 80.7101 17.8413 81.3465 17.8413C81.8489 17.8413 82.2843 17.6515 82.6639 17.4394V18.2767H82.6751Z" fill="#050508"/>
<path d="M83.7693 14.5253H84.7518V15.0612H84.7629C85.0867 14.6035 85.5222 14.4248 86.0692 14.4248C87.0071 14.4248 87.4202 15.0836 87.4202 15.9767V18.4776H86.393V16.3563C86.393 15.8651 86.393 15.2175 85.7231 15.2175C84.9751 15.2175 84.8188 16.0214 84.8188 16.535V18.4776H83.7805V14.503L83.7693 14.5253Z" fill="#050508"/>
<path d="M88.8158 15.2845H88.0566V14.5253H88.8158V13.7326L89.8542 13.3977V14.5253H90.7697V15.2845H89.8542V17.1379C89.8542 17.4728 89.9435 17.7966 90.3343 17.7966C90.5241 17.7966 90.6915 17.7631 90.8032 17.685L90.8367 18.5C90.6245 18.5558 90.3789 18.5893 90.0775 18.5893C89.2736 18.5893 88.8158 18.0869 88.8158 17.3054V15.2845Z" fill="#050508"/>
<path d="M94.6882 13.9671H93.1475V13.1186H97.3119V13.9671H95.7712V18.5H94.6882V13.9671Z" fill="#050508"/>
<path d="M99.5449 16.1219C99.5114 15.6195 99.2881 15.1841 98.7075 15.1841C98.127 15.1841 97.8367 15.586 97.792 16.1219H99.5449ZM100.237 18.2767C99.8575 18.4888 99.4332 18.5893 98.875 18.5893C97.5687 18.5893 96.7983 17.8301 96.7983 16.535C96.7983 15.385 97.4124 14.436 98.6405 14.436C100.114 14.436 100.527 15.4409 100.527 16.8365H97.7808C97.8255 17.4728 98.2721 17.8413 98.9196 17.8413C99.4221 17.8413 99.8575 17.6515 100.237 17.4394V18.2767Z" fill="#050508"/>
<path d="M103.91 15.385C103.721 15.2957 103.531 15.2399 103.207 15.2399C102.571 15.2399 102.158 15.7535 102.158 16.5015C102.158 17.2496 102.504 17.7966 103.229 17.7966C103.52 17.7966 103.843 17.685 104.022 17.6068L104.067 18.4665C103.765 18.5558 103.453 18.6005 103.04 18.6005C101.733 18.6005 101.086 17.7185 101.086 16.5015C101.086 15.3515 101.767 14.4472 103.006 14.4472C103.419 14.4472 103.721 14.4919 104.011 14.5812L103.922 15.3962L103.91 15.385Z" fill="#050508"/>
<path d="M104.759 12.7167H105.797V15.0724H105.809C106.065 14.6817 106.512 14.436 107.059 14.436C107.997 14.436 108.41 15.0948 108.41 15.9879V18.4888H107.372V16.3675C107.372 15.8875 107.372 15.2287 106.702 15.2287C105.954 15.2287 105.797 16.0326 105.797 16.5462V18.4888H104.759V12.7055V12.7167Z" fill="#050508"/>
<path d="M109.392 14.5253H110.375V15.0612H110.386C110.71 14.6035 111.145 14.4248 111.692 14.4248C112.63 14.4248 113.043 15.0836 113.043 15.9767V18.4776H112.016V16.3563C112.016 15.8651 112.016 15.2175 111.346 15.2175C110.598 15.2175 110.442 16.0214 110.442 16.535V18.4776H109.403V14.503L109.392 14.5253Z" fill="#050508"/>
<path d="M115.924 17.7966C116.716 17.7966 116.928 17.0821 116.928 16.4234C116.928 15.8093 116.605 15.2399 115.924 15.2399C115.243 15.2399 114.93 15.8205 114.93 16.4234C114.93 17.0821 115.142 17.7966 115.924 17.7966ZM115.924 14.436C117.107 14.436 118 15.2287 118 16.535C118 17.6738 117.241 18.5893 115.924 18.5893C114.606 18.5893 113.847 17.685 113.847 16.535C113.847 15.2287 114.751 14.436 115.924 14.436Z" fill="#050508"/>
<path d="M119.865 12.7166H118.838V18.5H119.865V12.7166Z" fill="#050508"/>
<path d="M122.701 17.7966C123.493 17.7966 123.705 17.0821 123.705 16.4234C123.705 15.8093 123.382 15.2399 122.701 15.2399C122.02 15.2399 121.707 15.8205 121.707 16.4234C121.707 17.0821 121.919 17.7966 122.701 17.7966ZM122.701 14.436C123.884 14.436 124.777 15.2287 124.777 16.535C124.777 17.6738 124.018 18.5893 122.701 18.5893C121.383 18.5893 120.624 17.685 120.624 16.535C120.624 15.2287 121.528 14.436 122.701 14.436Z" fill="#050508"/>
<path d="M128.205 16.468C128.205 15.787 127.948 15.2399 127.345 15.2399C126.642 15.2399 126.419 15.8875 126.419 16.5015C126.419 17.0374 126.709 17.7073 127.301 17.7073C127.948 17.7073 128.205 17.1491 128.205 16.4792M129.232 14.5254V18.1092C129.232 19.1922 128.797 20.2082 127.133 20.2082C126.72 20.2082 126.251 20.1412 125.76 19.9403L125.849 19.0582C126.162 19.2257 126.686 19.4044 127.01 19.4044C128.149 19.4044 128.205 18.5447 128.205 17.8636H128.194C128.004 18.1986 127.535 18.5 126.966 18.5C125.793 18.5 125.347 17.5622 125.347 16.5015C125.347 15.5413 125.838 14.4472 127.021 14.4472C127.546 14.4472 127.959 14.6258 128.238 15.0836H128.25V14.5477H129.232V14.5254Z" fill="#050508"/>
<path d="M131.956 17.4282H131.968L132.928 14.5253H133.977L132.492 18.4665C132.157 19.3485 131.923 20.2082 130.84 20.2082C130.594 20.2082 130.349 20.1747 130.103 20.0965L130.17 19.3373C130.304 19.382 130.449 19.4043 130.706 19.4043C131.119 19.4043 131.376 19.1252 131.376 18.7009L129.857 14.5365H130.996L131.956 17.4393V17.4282Z" fill="#050508"/>
<path d="M45.7644 25.9804H44.8601V25.6454H46.144V27.5769C45.7532 27.7444 45.3625 27.8114 44.9382 27.8114C43.7212 27.8114 42.9844 27.0075 42.9844 25.8017C42.9844 24.5959 43.7436 23.7921 44.9382 23.7921C45.2285 23.7921 45.7197 23.8479 45.9765 23.9707L45.9319 24.328C45.6304 24.1605 45.2731 24.127 44.9382 24.127C43.9334 24.127 43.364 24.8416 43.364 25.8017C43.364 26.7619 43.911 27.4765 44.9382 27.4765C45.1727 27.4765 45.5746 27.4541 45.7644 27.3425V25.9804Z" fill="#050508"/>
<path d="M47.0818 23.5911H47.4279V25.3998C47.573 25.0872 47.8968 24.8527 48.3099 24.8527C49.0691 24.8527 49.2812 25.3552 49.2812 26.0585V27.7556H48.9351V26.0697C48.9351 25.5784 48.8458 25.1542 48.2653 25.1542C47.64 25.1542 47.4279 25.7459 47.4279 26.2372V27.7556H47.0818V23.5911Z" fill="#050508"/>
<path d="M51.7598 26.3265H51.6593C51.0564 26.3265 50.3307 26.3823 50.3307 27.0075C50.3307 27.376 50.5987 27.5211 50.9224 27.5211C51.7486 27.5211 51.7598 26.8066 51.7598 26.4939V26.3265ZM51.7933 27.2978H51.7821C51.6258 27.6328 51.2351 27.8225 50.8778 27.8225C50.0739 27.8225 49.9399 27.2755 49.9399 27.0187C49.9399 26.0697 50.9559 26.025 51.6816 26.025H51.7486V25.8799C51.7486 25.3998 51.5812 25.1542 51.1011 25.1542C50.8108 25.1542 50.5317 25.2212 50.2637 25.3886V25.0537C50.4759 24.9532 50.8443 24.8639 51.1011 24.8639C51.8045 24.8639 52.0947 25.1765 52.0947 25.9245V27.175C52.0947 27.3983 52.0947 27.5769 52.1282 27.7667H51.7821V27.309L51.7933 27.2978Z" fill="#050508"/>
<path d="M52.6865 27.4541L54.3836 25.2212H52.7535V24.9197H54.7967V25.2212L53.0885 27.4541H54.7967V27.7556H52.6865V27.4541Z" fill="#050508"/>
<path d="M55.4106 24.9197H55.7567V27.7556H55.4106V24.9197ZM55.7567 24.1605H55.4106V23.6916H55.7567V24.1605Z" fill="#050508"/>
<path d="M58.2354 26.3265H58.1349C57.532 26.3265 56.8063 26.3823 56.8063 27.0075C56.8063 27.376 57.0742 27.5211 57.398 27.5211C58.2242 27.5211 58.2354 26.8066 58.2354 26.4939V26.3265ZM58.2689 27.2978H58.2577C58.1014 27.6328 57.7106 27.8225 57.3534 27.8225C56.5495 27.8225 56.4155 27.2755 56.4155 27.0187C56.4155 26.0697 57.4315 26.025 58.1572 26.025H58.2242V25.8799C58.2242 25.3998 58.0567 25.1542 57.5767 25.1542C57.2864 25.1542 57.0073 25.2212 56.7393 25.3886V25.0537C56.9514 24.9532 57.3199 24.8639 57.5767 24.8639C58.28 24.8639 58.5703 25.1765 58.5703 25.9245V27.175C58.5703 27.3983 58.5703 27.5769 58.6038 27.7667H58.2577V27.309L58.2689 27.2978Z" fill="#050508"/>
<path d="M60.5687 25.1542C59.9323 25.1542 59.7314 25.8241 59.7314 26.3377C59.7314 26.8512 59.9435 27.5211 60.5687 27.5211C61.2386 27.5211 61.4061 26.8847 61.4061 26.3377C61.4061 25.7906 61.2386 25.1542 60.5687 25.1542ZM59.3853 23.5911H59.7314V25.3998C59.776 25.2658 60.0551 24.8527 60.6134 24.8527C61.4507 24.8527 61.7745 25.478 61.7745 26.3377C61.7745 27.1973 61.3837 27.8226 60.6134 27.8226C60.2114 27.8226 59.9212 27.6663 59.7314 27.309V27.7556H59.3853V23.5911Z" fill="#050508"/>
<path d="M64.097 26.3265H63.9965C63.3936 26.3265 62.6679 26.3823 62.6679 27.0075C62.6679 27.376 62.9358 27.5211 63.2596 27.5211C64.0858 27.5211 64.097 26.8066 64.097 26.4939V26.3265ZM64.1304 27.2978H64.1193C63.963 27.6328 63.5722 27.8225 63.2149 27.8225C62.4111 27.8225 62.2771 27.2755 62.2771 27.0187C62.2771 26.0697 63.2931 26.025 64.0188 26.025H64.0858V25.8799C64.0858 25.3998 63.9183 25.1542 63.4382 25.1542C63.148 25.1542 62.8688 25.2212 62.6009 25.3886V25.0537C62.813 24.9532 63.1814 24.8639 63.4382 24.8639C64.1416 24.8639 64.4319 25.1765 64.4319 25.9245V27.175C64.4319 27.3983 64.4319 27.5769 64.4654 27.7667H64.1193V27.309L64.1304 27.2978Z" fill="#050508"/>
<path d="M66.3299 27.5211C66.9551 27.5211 67.1672 26.8512 67.1672 26.3377C67.1672 25.8241 66.9551 25.1542 66.3299 25.1542C65.66 25.1542 65.4925 25.7906 65.4925 26.3377C65.4925 26.8847 65.66 27.5211 66.3299 27.5211ZM67.5245 27.7556H67.1784V27.309C66.9886 27.6663 66.6983 27.8226 66.2964 27.8226C65.5149 27.8226 65.1353 27.175 65.1353 26.3377C65.1353 25.5003 65.4702 24.8527 66.2964 24.8527C66.8546 24.8527 67.1337 25.2547 67.1784 25.3998V23.5911H67.5245V27.7556Z" fill="#050508"/>
<path d="M68.5406 27.2867H69.0096L68.5741 28.4924H68.228L68.5406 27.2867Z" fill="#050508"/>
<path d="M71.8339 27.4206H72.1466C73.2407 27.4206 73.9664 26.974 73.9664 25.7906C73.9664 24.6071 73.263 24.2163 72.3922 24.2163H71.8339V27.4206ZM71.4543 23.8702H72.4145C73.7989 23.8702 74.3572 24.6741 74.3572 25.8017C74.3572 27.2085 73.4193 27.7444 72.1354 27.7444H71.4543V23.8702Z" fill="#050508"/>
<path d="M76.8807 26.1367C76.8807 25.6454 76.6797 25.1542 76.1549 25.1542C75.6302 25.1542 75.3176 25.6678 75.3176 26.1367H76.8695H76.8807ZM77.0481 27.6662C76.8025 27.7667 76.4899 27.8225 76.2219 27.8225C75.2841 27.8225 74.938 27.1862 74.938 26.3376C74.938 25.4891 75.4181 24.8527 76.1326 24.8527C76.9365 24.8527 77.2603 25.5003 77.2603 26.2595V26.4381H75.3176C75.3176 27.041 75.6414 27.5211 76.2554 27.5211C76.5122 27.5211 76.8807 27.4206 77.0481 27.309V27.6662Z" fill="#050508"/>
<path d="M78.276 23.5911H77.9299V27.7556H78.276V23.5911Z" fill="#050508"/>
<path d="M79.158 23.5911H79.5041V25.3998C79.6492 25.0872 79.973 24.8527 80.3861 24.8527C81.1453 24.8527 81.3574 25.3552 81.3574 26.0585V27.7556H81.0113V26.0697C81.0113 25.5784 80.922 25.1542 80.3414 25.1542C79.7162 25.1542 79.5041 25.7459 79.5041 26.2372V27.7556H79.158V23.5911Z" fill="#050508"/>
<path d="M82.2395 24.9197H82.5856V27.7556H82.2395V24.9197ZM82.5968 24.1605H82.2507V23.6916H82.5968V24.1605Z" fill="#050508"/>
<path d="M85.0083 23.8702H85.4884L87.4645 27.2867H87.4757V23.8702H87.8553V27.7556H87.3417L85.3991 24.4061H85.3879V27.7556H85.0083V23.8702Z" fill="#050508"/>
<path d="M91.4172 24.3056C91.1716 24.1828 90.8255 24.1382 90.5464 24.1382C89.5415 24.1382 88.9721 24.8527 88.9721 25.8129C88.9721 26.773 89.5192 27.4876 90.5464 27.4876C90.8032 27.4876 91.1939 27.4541 91.4172 27.3201L91.4395 27.6551C91.2274 27.7779 90.792 27.8225 90.5464 27.8225C89.3294 27.8225 88.5925 27.0187 88.5925 25.8129C88.5925 24.6071 89.3517 23.8032 90.5464 23.8032C90.7697 23.8032 91.2386 23.8367 91.4395 23.9484L91.4172 24.3056Z" fill="#050508"/>
<path d="M92.8574 25.5896H93.2593C93.7059 25.5896 94.2306 25.4221 94.2306 24.8751C94.2306 24.2387 93.7841 24.2052 93.2481 24.2052H92.8574V25.5896ZM92.4778 23.8702H93.4826C94.1748 23.8702 94.6214 24.1605 94.6214 24.8751C94.6214 25.3775 94.2418 25.7124 93.7617 25.7682C94.0743 25.8241 94.1413 25.9804 94.2641 26.2483L94.9229 27.7444H94.4986L93.9404 26.4381C93.7171 25.9357 93.5496 25.9246 93.1812 25.9246H92.8685V27.7556H92.4889V23.8814L92.4778 23.8702Z" fill="#050508"/>
<path d="M37.1564 3.56155H36.8438V28.2245H37.1564V3.56155Z" fill="#929497"/>
</g>
</g>
</svg>
