<svg width="93" height="37" viewBox="0 0 93 37" fill="none" xmlns="http://www.w3.org/2000/svg">
<g clip-path="url(#clip0_25121_18786)">
<path d="M67.345 17.1546H66.763V12.594H67.345V17.1546ZM38.2222 28.8189L39.7663 33.3795H39.1517L38.7174 31.9875H37.0539L36.6195 33.3795H36.0266L37.5729 28.8189H38.2222ZM38.3547 30.8343C38.1897 30.3239 38.0442 29.8223 37.8965 29.2945H37.8704C37.7271 29.8244 37.5816 30.3239 37.4165 30.8343L37.1994 31.5314H38.5741L38.3547 30.8343ZM39.332 23.4005C39.332 24.4863 38.8542 24.8425 38.2461 24.8425C37.6381 24.8425 37.1863 24.4972 37.1863 23.4005V20.701H36.6043V23.3853C36.6043 24.8512 37.3145 25.355 38.2461 25.355C39.1778 25.355 39.8858 24.8512 39.8858 23.3853V20.701H39.3298L39.332 23.4005ZM63.8811 17.1546H64.4631V13.0805H65.8443V12.5875H62.4999V13.0805H63.8811V17.1546ZM66.4242 25.2617V21.194H67.8076V20.701H64.4609V21.1919H65.8443V25.2617H66.4242ZM49.6911 16.6638H47.5606V15.0025H49.298V14.5116H47.5606V13.0805H49.6129V12.5875H46.9895V17.1481H49.6911V16.6638ZM73.9731 14.7657C73.9731 14.288 73.9275 13.7993 73.8992 13.3389H73.9275L74.4204 14.2814L76.0731 17.1546H76.6725V12.594H76.1209V14.9525C76.1209 15.4303 76.1643 15.945 76.1947 16.4054H76.1665L75.6735 15.4585L74.0209 12.5875H73.4193V17.1481H73.9731V14.7657ZM43.4973 30.1632C43.4973 31.1253 42.8111 31.5748 41.8099 31.5748H41.0607V33.3861H40.4787V28.8254H41.7817C42.8067 28.8189 43.4973 29.1707 43.4973 30.1632ZM42.9175 30.1632C42.9175 29.5117 42.5114 29.2945 41.71 29.2945H41.0585V31.1057H41.7339C42.5353 31.1014 42.9175 30.8126 42.9175 30.1632ZM43.9078 23.066C43.9078 23.5438 43.9534 24.0585 43.9838 24.5211H43.9556L43.4626 23.5742L41.8078 20.701H41.2084V25.2617H41.76V22.8728C41.76 22.395 41.7165 21.9085 41.6861 21.4459H41.7144L42.2073 22.3906L43.8687 25.2617H44.4703V20.701H43.9165L43.9078 23.066ZM84.4603 16.6638H82.4667V12.5875H81.8846V17.1481H84.4603V16.6638ZM48.944 24.6818H48.9158C48.7464 24.1454 48.6356 23.7089 48.4814 23.1616L47.7387 20.701H47.1263L48.5857 25.2617H49.2589L50.7096 20.701H50.1167L49.3849 23.1703C49.2263 23.7089 49.1134 24.1454 48.944 24.6818ZM55.3788 14.7657C55.3788 14.288 55.3354 13.7993 55.305 13.3389H55.3332L55.8132 14.2814L57.4658 17.1546H58.0674V12.594H57.5158V14.9525C57.5158 15.4303 57.5592 15.945 57.5896 16.4054H57.5614L57.0684 15.4585L55.4223 12.5875H54.8207V17.1481H55.3788V14.7657ZM45.8233 25.2617H46.4053V20.701H45.8233V25.2617ZM44.1076 17.1546H44.6875V13.0805H46.0708V12.5875H42.7242V13.0805H44.1076V17.1546ZM39.1127 14.7657C39.1127 14.288 39.067 13.7993 39.0388 13.3389H39.067L39.56 14.2814L41.2127 17.1546H41.8121V12.594H41.2627V14.9525C41.2627 15.4303 41.3061 15.945 41.3365 16.4054H41.3083L40.8153 15.4585L39.1626 12.5875H38.561V17.1481H39.1148L39.1127 14.7657ZM3.56596 3.11012C1.49849 3.11012 0 4.44139 0 6.33078C0 8.22018 1.49849 9.55144 3.56596 9.55144C5.63344 9.55144 7.13192 8.20497 7.13192 6.33078C7.13192 4.45659 5.63344 3.11012 3.56596 3.11012ZM47.5389 30.1632C47.5389 31.1253 46.8505 31.5748 45.8515 31.5748H45.1001V33.3861H44.5202V28.8254H45.8233C46.8483 28.8189 47.5389 29.1707 47.5389 30.1632ZM46.9591 30.1632C46.9591 29.5117 46.553 29.2945 45.7494 29.2945H45.0979V31.1057H45.7755C46.5768 31.1014 46.9591 30.8126 46.9591 30.1632ZM0.477778 33.3882H6.63894V12.5918H0.477778V33.3882ZM37.1994 12.5875H36.6173V17.1481H37.1994V12.5875ZM24.2885 26.3475C23.0854 27.985 22.1385 28.6343 20.5966 28.6343C18.8179 28.6343 18.0122 27.6983 18.0122 24.7057V12.5918H11.8489V25.5027C11.8489 30.6996 13.7752 33.8899 18.2989 33.8899C21.1221 33.8899 23.0897 32.5738 24.8271 30.502H24.9791L25.4134 33.3882H30.441V12.5918H24.2885V26.3475ZM77.096 22.9705C77.096 24.4321 76.2903 25.3594 75.1415 25.3594C73.9926 25.3594 73.1869 24.4364 73.1869 22.9705C73.1869 21.5046 73.9904 20.6185 75.1415 20.6185C76.2925 20.6185 77.096 21.5111 77.096 22.9705ZM76.4944 22.9705C76.4944 21.8325 75.958 21.131 75.1436 21.131C74.3292 21.131 73.7907 21.8325 73.7907 22.9705C73.7907 24.1085 74.3271 24.8425 75.1436 24.8425C75.9602 24.8425 76.501 24.1085 76.501 22.9705H76.4944ZM74.0361 31.2339H75.7734V30.7409H74.0361V29.3097H76.0883V28.8189H73.4562V33.3795H76.1578V32.8866H74.0361V31.2339ZM79.9258 31.1818C79.9258 31.6595 79.9714 32.1742 79.9996 32.6346H79.9714L79.4849 31.6899L77.8322 28.8189H77.2263V33.3795H77.7779V30.9906C77.7779 30.5129 77.7323 30.0264 77.7041 29.5638H77.7323L78.2253 30.5085L79.878 33.3817H80.4774V28.8211H79.9192L79.9258 31.1818ZM49.1416 28.8189H48.5596V33.3795H51.1353V32.8866H49.1416V28.8189ZM71.5103 33.3795H72.1011V28.8189H71.519L71.5103 33.3795ZM79.6087 12.581L81.1549 17.1416H80.549L80.1147 15.7517H78.4512L78.0168 17.1416H77.4261L78.9702 12.581H79.6087ZM79.7433 14.5985C79.5783 14.0882 79.4328 13.5865 79.2851 13.0588H79.2677C79.1266 13.5887 78.9811 14.0882 78.816 14.5985L78.5988 15.2935H79.9735L79.7433 14.5985ZM78.1819 25.2617H78.7617V23.2268H80.4991V22.7359H78.7617V21.194H80.8162V20.701H78.1819V25.2617ZM91.5531 30.9407L90.9016 30.6605C90.5433 30.5085 90.1437 30.3435 90.1437 29.9048C90.1437 29.4661 90.4847 29.2381 90.9972 29.2381C91.19 29.2383 91.3808 29.2769 91.5587 29.3514C91.7365 29.426 91.8977 29.5351 92.0331 29.6724L92.3415 29.2989C92.1658 29.1202 91.9562 28.9785 91.7249 28.8819C91.4937 28.7853 91.2456 28.7358 90.995 28.7364C90.1654 28.7364 89.5552 29.2511 89.5552 29.9482C89.5552 30.6453 90.0547 30.9429 90.4803 31.1253L91.1318 31.4141C91.5662 31.6031 91.8941 31.7507 91.8941 32.2177C91.8941 32.6846 91.5401 32.9604 90.9407 32.9604C90.7033 32.9544 90.4695 32.9011 90.2528 32.8038C90.0362 32.7065 89.8411 32.5671 89.6789 32.3936L89.3315 32.7932C89.5377 33.009 89.7858 33.1805 90.0607 33.297C90.3356 33.4135 90.6313 33.4726 90.9299 33.4707C91.8898 33.4707 92.487 32.8952 92.487 32.1677C92.5 31.4923 92.0809 31.1774 91.5575 30.9494L91.5531 30.9407ZM86.4843 31.2252H88.2217V30.7322H86.4843V29.301H88.5345V28.8102H85.9067V33.3708H88.6061V32.8779H86.4865L86.4843 31.2252ZM70.1313 22.0041C69.9923 22.3407 69.8338 22.6556 69.6752 22.9987H69.647C69.4907 22.6578 69.3517 22.3472 69.2127 22.0041L68.6263 20.701H67.9965L69.369 23.4982V25.2617H69.9511V23.5004L71.3236 20.701H70.7198L70.1313 22.0041ZM83.5786 32.9691C82.7099 32.9691 82.1648 32.2502 82.1648 31.1014C82.1648 29.9526 82.7381 29.2576 83.6025 29.2576C83.779 29.2601 83.953 29.3001 84.1129 29.375C84.2728 29.4499 84.4149 29.5579 84.5298 29.692L84.849 29.3141C84.6903 29.1376 84.4965 28.9962 84.2799 28.899C84.0634 28.8018 83.829 28.7508 83.5916 28.7494C82.4319 28.7494 81.5654 29.6485 81.5654 31.1209C81.5654 32.5934 82.4167 33.4838 83.5547 33.4838C83.8224 33.4889 84.0877 33.4329 84.3304 33.32C84.5732 33.2071 84.7869 33.0403 84.9555 32.8323L84.6384 32.4674C84.5089 32.6224 84.3467 32.7467 84.1635 32.8316C83.9803 32.9164 83.7805 32.9597 83.5786 32.9582V32.9691ZM72.3378 14.8548C72.3378 16.3185 71.5321 17.2437 70.3832 17.2437C69.2344 17.2437 68.4287 16.3229 68.4287 14.8548C68.4287 13.3867 69.2344 12.505 70.3832 12.505C71.5321 12.505 72.3378 13.3954 72.3378 14.8548ZM71.7362 14.8548C71.7362 13.7168 71.1998 13.0153 70.3854 13.0153C69.571 13.0153 69.0324 13.7168 69.0324 14.8548C69.0324 15.9928 69.5688 16.729 70.3854 16.729C71.202 16.729 71.7362 15.9928 71.7362 14.8548ZM52.0452 33.3861H52.6273V28.8254H52.0452V33.3861ZM69.2018 32.9517C68.3331 32.9517 67.788 32.2329 67.788 31.084C67.788 29.9352 68.3614 29.2402 69.2235 29.2402C69.4001 29.2423 69.5743 29.2821 69.7342 29.357C69.8942 29.4319 70.0362 29.5402 70.1508 29.6746L70.4701 29.2967C70.3119 29.1201 70.1185 28.9786 69.9023 28.8813C69.6861 28.7841 69.4519 28.7332 69.2148 28.7321C68.0551 28.7321 67.1865 29.6311 67.1865 31.1036C67.1865 32.576 68.0399 33.4664 69.1779 33.4664C69.4456 33.4716 69.7109 33.4155 69.9536 33.3026C70.1964 33.1897 70.4102 33.0229 70.5787 32.8149L70.2594 32.45C70.1314 32.609 69.9693 32.7371 69.7851 32.8251C69.601 32.913 69.3994 32.9585 69.1953 32.9582L69.2018 32.9517ZM54.5666 31.2274H56.304V30.7344H54.5666V29.3032H56.6189V28.8124H53.9802V33.373H56.6819V32.88H54.5601L54.5666 31.2274ZM54.1149 24.773H51.9931V23.1182H53.7305V22.6252H51.9931V21.194H54.0454V20.701H51.4067V25.2617H54.1084L54.1149 24.773ZM52.1603 15.2175H51.3351V17.1481H50.7552V12.5875H52.1842C53.1159 12.5875 53.7826 12.9219 53.7826 13.8732C53.7985 14.1762 53.7024 14.4744 53.5126 14.7111C53.3227 14.9478 53.0524 15.1064 52.7532 15.1566L53.9194 17.1546H53.2679L52.1603 15.2175ZM52.1017 14.7462C52.8119 14.7462 53.2028 14.4595 53.2028 13.8775C53.2028 13.2955 52.8119 13.0631 52.1017 13.0631H51.3394V14.757L52.1017 14.7462ZM58.341 25.2617H57.6895L56.5885 23.331H55.7632V25.2617H55.1834V20.701H56.6124C57.544 20.701 58.2107 21.0355 58.2107 21.9867C58.2262 22.2896 58.1299 22.5876 57.9401 22.8242C57.7504 23.0608 57.4804 23.2195 57.1813 23.2702L58.341 25.2617ZM57.6244 21.9802C57.6244 21.3786 57.2335 21.1658 56.5233 21.1658H55.7567V22.8728H56.5233C57.2335 22.8728 57.6244 22.5796 57.6244 21.9889V21.9802ZM63.5401 20.701H62.9603V25.2617H63.5401V20.701ZM65.5099 30.9472L64.8584 30.6671C64.5 30.515 64.1026 30.35 64.1026 29.9113C64.1026 29.4726 64.4414 29.2446 64.9539 29.2446C65.1467 29.2448 65.3376 29.2834 65.5154 29.3579C65.6932 29.4325 65.8545 29.5416 65.9898 29.6789L66.2982 29.3054C66.1231 29.1262 65.914 28.9838 65.6832 28.8865C65.4524 28.7892 65.2044 28.7389 64.9539 28.7386C64.1243 28.7386 63.5163 29.2533 63.5163 29.9504C63.5163 30.6475 64.0157 30.945 64.4414 31.1275L65.0929 31.4163C65.5273 31.6052 65.8552 31.7529 65.8552 32.2198C65.8552 32.6868 65.499 32.9626 64.8996 32.9626C64.6625 32.9567 64.4289 32.9036 64.2126 32.8063C63.9963 32.7089 63.8017 32.5694 63.64 32.3957L63.2904 32.7953C63.4966 33.0112 63.7448 33.1827 64.0196 33.2992C64.2945 33.4157 64.5902 33.4748 64.8888 33.4729C65.8487 33.4729 66.4459 32.8974 66.4459 32.1699C66.4546 31.4923 66.0376 31.1774 65.5099 30.9494V30.9472ZM61.0253 22.8358L60.3738 22.5535C60.0154 22.4015 59.618 22.2364 59.618 21.7978C59.618 21.3591 59.9546 21.1354 60.4672 21.1354C60.66 21.1356 60.8508 21.1742 61.0286 21.2487C61.2065 21.3233 61.3677 21.4324 61.5031 21.5697L61.8115 21.1962C61.6364 21.017 61.4273 20.8746 61.1964 20.7773C60.9656 20.68 60.7177 20.6297 60.4672 20.6294C59.6376 20.6294 59.0295 21.1441 59.0295 21.8434C59.0295 22.5427 59.529 22.838 59.9546 23.0183L60.6061 23.3071C61.0405 23.496 61.3684 23.6459 61.3684 24.1106C61.3684 24.5754 61.0123 24.8534 60.4129 24.8534C60.1759 24.8479 59.9424 24.7952 59.7261 24.6982C59.5097 24.6013 59.315 24.462 59.1533 24.2887L58.8058 24.6861C59.0113 24.9025 59.2589 25.0745 59.5335 25.1914C59.808 25.3084 60.1036 25.3677 60.402 25.3659C61.3641 25.3659 61.9591 24.7882 61.9591 24.0629C61.9635 23.3766 61.5508 23.0617 61.0253 22.8358ZM61.0253 12.5875L62.5694 17.1481H61.9548L61.5204 15.7582H59.8547L59.4204 17.1481H58.8275L60.3738 12.5875H61.0253ZM61.1578 14.605C60.9927 14.0947 60.8472 13.593 60.6995 13.0653H60.6735C60.5323 13.5952 60.3846 14.0947 60.2218 14.605L60.0046 15.3H61.3793L61.1578 14.605ZM61.0535 31.0862C61.0535 32.5369 60.2999 33.3861 58.9231 33.3861H57.7547V28.8254H58.897C60.2956 28.8189 61.0492 29.6355 61.0492 31.0862H61.0535ZM60.4541 31.0862C60.4541 29.9308 59.9199 29.2945 58.8536 29.2945H58.3345V32.9083H58.8536C59.9155 32.9083 60.4498 32.2394 60.4498 31.0862H60.4541Z" fill="black"/>
</g>
<defs>
<clipPath id="clip0_25121_18786">
<rect width="92.5" height="37" fill="white"/>
</clipPath>
</defs>
</svg>
