<svg width="173" height="37" viewBox="0 0 173 37" fill="none" xmlns="http://www.w3.org/2000/svg">
<g clip-path="url(#clip0_25121_17919)">
<path d="M172.093 16.6205V13.594H168.335V8.88894L168.208 8.92788L164.678 10.008L164.608 10.0291V13.5942H159.037V11.6081C159.037 10.6834 159.243 9.97567 159.651 9.50375C160.056 9.03742 160.634 8.80036 161.373 8.80036C161.903 8.80036 162.453 8.92538 163.006 9.17195L163.145 9.23386V6.04653L163.079 6.02256C162.563 5.83713 161.862 5.74373 160.992 5.74373C159.896 5.74373 158.9 5.98229 158.031 6.45508C157.162 6.9285 156.478 7.6044 155.999 8.46375C155.522 9.3221 155.28 10.3134 155.28 11.4105V13.594H152.663V16.6205H155.28V29.3707H159.037V16.6205H164.608V24.7231C164.608 28.0601 166.183 29.7511 169.287 29.7511C169.797 29.7511 170.333 29.6913 170.882 29.5743C171.44 29.4541 171.82 29.3341 172.044 29.2059L172.093 29.1766V26.1221L171.94 26.2231C171.736 26.359 171.483 26.4701 171.185 26.5526C170.886 26.6367 170.636 26.6788 170.443 26.6788C169.716 26.6788 169.177 26.4829 168.844 26.0961C168.506 25.7059 168.335 25.0235 168.335 24.069V16.6205H172.093ZM144.273 26.6793C142.91 26.6793 141.834 26.2271 141.077 25.3365C140.314 24.4414 139.928 23.1652 139.928 21.5437C139.928 19.8708 140.314 18.5615 141.077 17.6505C141.835 16.7455 142.9 16.2863 144.242 16.2863C145.545 16.2863 146.582 16.7249 147.325 17.5907C148.071 18.4611 148.45 19.7599 148.45 21.4523C148.45 23.1655 148.094 24.4815 147.392 25.3618C146.694 26.2355 145.645 26.6793 144.273 26.6793ZM144.44 13.2139C141.839 13.2139 139.772 13.9763 138.299 15.4797C136.826 16.9833 136.08 19.0641 136.08 21.6647C136.08 24.1349 136.809 26.1218 138.246 27.5693C139.684 29.0173 141.639 29.7508 144.06 29.7508C146.582 29.7508 148.607 28.9778 150.079 27.4536C151.552 25.931 152.298 23.8699 152.298 21.33C152.298 18.8212 151.598 16.8195 150.217 15.3816C148.835 13.9431 146.891 13.2139 144.44 13.2139ZM130.023 13.2139C128.253 13.2139 126.79 13.6666 125.671 14.5591C124.546 15.4569 123.975 16.6344 123.975 18.0592C123.975 18.7999 124.099 19.4578 124.341 20.0158C124.585 20.5757 124.962 21.0686 125.464 21.4823C125.961 21.8926 126.73 22.3225 127.747 22.7598C128.603 23.1119 129.241 23.4097 129.647 23.6445C130.043 23.8745 130.324 24.1058 130.483 24.331C130.637 24.5514 130.715 24.8531 130.715 25.2253C130.715 26.2853 129.922 26.801 128.289 26.801C127.682 26.801 126.991 26.6745 126.235 26.4251C125.483 26.1795 124.774 25.8198 124.131 25.3587L123.975 25.2468V28.8638L124.033 28.8904C124.564 29.1358 125.234 29.3428 126.024 29.5056C126.813 29.6685 127.529 29.7514 128.151 29.7514C130.071 29.7514 131.618 29.2966 132.746 28.3988C133.882 27.4949 134.457 26.2896 134.457 24.8155C134.457 23.752 134.147 22.8401 133.537 22.1046C132.93 21.3751 131.878 20.7053 130.41 20.1134C129.24 19.6439 128.491 19.2542 128.181 18.955C127.884 18.666 127.732 18.2573 127.732 17.7398C127.732 17.2809 127.919 16.9134 128.302 16.6157C128.689 16.3166 129.227 16.1644 129.901 16.1644C130.527 16.1644 131.168 16.2633 131.804 16.4571C132.441 16.6509 133 16.9104 133.467 17.2278L133.62 17.3327V13.9017L133.561 13.8764C133.131 13.6918 132.563 13.5338 131.874 13.4056C131.187 13.2782 130.564 13.2139 130.023 13.2139ZM114.182 26.6793C112.819 26.6793 111.743 26.2271 110.985 25.3365C110.223 24.4414 109.838 23.1655 109.838 21.5437C109.838 19.8708 110.223 18.5615 110.986 17.6505C111.744 16.7455 112.808 16.2863 114.151 16.2863C115.454 16.2863 116.491 16.7249 117.234 17.5907C117.98 18.4611 118.359 19.7599 118.359 21.4523C118.359 23.1655 118.003 24.4815 117.3 25.3618C116.603 26.2355 115.554 26.6793 114.182 26.6793ZM114.349 13.2139C111.747 13.2139 109.681 13.9763 108.208 15.4797C106.736 16.9833 105.989 19.0641 105.989 21.6647C105.989 24.1359 106.718 26.1218 108.155 27.5693C109.593 29.0173 111.549 29.7508 113.969 29.7508C116.49 29.7508 118.516 28.9778 119.988 27.4536C121.46 25.931 122.207 23.8699 122.207 21.33C122.207 18.8212 121.507 16.8195 120.125 15.3816C118.743 13.9431 116.799 13.2139 114.349 13.2139ZM100.286 16.3262V13.594H96.5748V29.3704H100.286V21.3002C100.286 19.9279 100.597 18.8006 101.211 17.949C101.817 17.1076 102.625 16.6813 103.611 16.6813C103.946 16.6813 104.321 16.7364 104.727 16.8454C105.129 16.9538 105.421 17.0715 105.592 17.1954L105.748 17.3084V13.567L105.688 13.5413C105.342 13.3944 104.854 13.3203 104.235 13.3203C103.302 13.3203 102.468 13.62 101.753 14.21C101.126 14.7285 100.672 15.4396 100.326 16.3262H100.286ZM89.929 13.2139C88.2265 13.2139 86.7078 13.579 85.4163 14.2987C84.1221 15.0201 83.121 16.0499 82.4399 17.3594C81.7619 18.6657 81.4177 20.1916 81.4177 21.8933C81.4177 23.3839 81.7515 24.7518 82.4111 25.9575C83.0711 27.1651 84.0055 28.1098 85.1882 28.7651C86.3692 29.4195 87.7339 29.7513 89.2453 29.7513C91.0089 29.7513 92.5147 29.3987 93.7219 28.7033L93.7705 28.6753V25.2754L93.6148 25.3893C93.068 25.7877 92.4566 26.1056 91.7992 26.3347C91.1431 26.5636 90.5451 26.6793 90.0206 26.6793C88.5647 26.6793 87.3958 26.2237 86.5473 25.3254C85.6968 24.4259 85.2657 23.1629 85.2657 21.5735C85.2657 19.9742 85.7153 18.6787 86.6016 17.7228C87.4848 16.7697 88.6559 16.2863 90.0821 16.2863C91.3018 16.2863 92.4906 16.6993 93.6152 17.515L93.7705 17.628V14.0457L93.7202 14.0174C93.2973 13.7805 92.7199 13.5848 92.0036 13.4365C91.2902 13.2885 90.592 13.2139 89.929 13.2139ZM78.8617 13.5942H75.1505V29.3704H78.8617V13.5942ZM77.0439 6.87343C76.4334 6.87343 75.9004 7.08136 75.4628 7.49336C75.0236 7.90655 74.8007 8.42679 74.8007 9.04077C74.8007 9.64508 75.0206 10.1558 75.456 10.558C75.8888 10.9591 76.4231 11.1623 77.0444 11.1623C77.6652 11.1623 78.2017 10.9591 78.6392 10.5587C79.0798 10.1558 79.3035 9.64525 79.3035 9.04077C79.3035 8.44826 79.0858 7.93335 78.6577 7.51001C78.2297 7.08752 77.6867 6.87343 77.0439 6.87343ZM67.7849 12.4302V29.3704H71.5722V7.35637H66.3303L59.6677 23.7077L53.2017 7.35637H47.7468V29.3702H51.3057V12.4285H51.4279L58.2557 29.3704H60.9416L67.6627 12.4302H67.7849Z" fill="#706D6E"/>
<path d="M17.4579 17.4579H0V0H17.4579V17.4579Z" fill="#F1511B"/>
<path d="M36.734 17.4579H19.2764V0H36.734V17.4579Z" fill="#80CC28"/>
<path d="M17.4574 36.7402H0V19.2825H17.4574V36.7402Z" fill="#00ADEF"/>
<path d="M36.734 36.7402H19.2764V19.2825H36.734V36.7402Z" fill="#FBBC09"/>
</g>
<defs>
<clipPath id="clip0_25121_17919">
<rect width="172.093" height="37" fill="white"/>
</clipPath>
</defs>
</svg>
