<svg width="136" height="37" viewBox="0 0 136 37" fill="none" xmlns="http://www.w3.org/2000/svg">
<g clip-path="url(#clip0_25121_17925)">
<path d="M126.019 14.0379C128.418 13.2281 131.088 12.7031 133.577 13.498C135.002 13.9779 135.767 15.4926 135.752 16.9324C135.782 19.8868 135.812 22.8413 135.707 25.7958C134.852 25.7958 133.997 25.7958 133.157 25.7808C133.052 25.3159 132.962 24.851 132.857 24.386C131.268 25.6458 129.153 26.5456 127.114 25.7958C124.804 24.8809 124.519 21.4166 126.258 19.8119C128.013 18.1921 130.533 18.1772 132.737 17.6823C132.602 16.9324 132.482 15.9726 131.598 15.7626C129.828 15.2377 128.043 16.0326 126.348 16.5125C126.214 15.7026 126.108 14.8778 126.019 14.0379ZM128.838 20.8917C128.013 21.5515 127.968 23.1563 129.048 23.5762C130.353 24.0711 131.613 23.1863 132.632 22.4814C132.632 21.5215 132.632 20.5617 132.617 19.6019C131.327 19.8269 129.873 19.9768 128.838 20.8917Z" fill="#231F20"/>
<path d="M59.4906 8.129C60.9153 8.03901 62.3549 8.03901 63.7949 8.06902C65.4894 12.3732 66.5845 16.9174 68.4141 21.1766C69.9287 16.8274 71.3235 12.4482 72.8083 8.09899C74.2329 8.05402 75.6576 8.05402 77.0823 8.09899C77.5022 14.0079 78.1023 19.9169 78.3572 25.8258C77.2472 25.8258 76.1525 25.8258 75.0578 25.8258C74.6678 21.6115 74.4879 17.3673 74.068 13.1531C72.3731 17.2923 71.1735 21.6415 69.6286 25.8408C68.594 25.8858 67.559 25.8708 66.5244 25.8258C65.0396 21.6265 63.8397 17.3073 62.0701 13.2131C61.7103 17.4123 61.5453 21.6415 61.1553 25.8408C60.1655 25.8408 59.1756 25.8408 58.1858 25.8258C58.4709 19.9019 59.0857 14.0229 59.4906 8.129Z" fill="#231F20"/>
<path d="M108.487 9.46376C109.477 9.25381 110.496 9.11884 111.501 9.02885C111.531 10.4536 111.531 11.8783 111.531 13.3181C112.356 13.333 113.196 13.3781 114.036 13.3931C114.201 14.2029 114.336 15.0277 114.456 15.8526C113.481 15.8976 112.521 15.9426 111.561 15.9576C111.576 18.1172 111.411 20.2918 111.636 22.4514C111.951 23.5012 113.316 23.2012 114.141 23.3962C114.306 24.2211 114.426 25.0609 114.516 25.9008C112.941 26.0657 111.172 26.2757 109.762 25.3759C108.832 24.761 108.547 23.6062 108.502 22.5714C108.382 20.3818 108.532 18.1922 108.442 16.0026C107.872 15.9426 107.287 15.8826 106.717 15.8226C106.732 15.0277 106.762 14.2479 106.792 13.453C107.347 13.4081 107.902 13.348 108.472 13.3031C108.442 12.0133 108.457 10.7385 108.487 9.46376Z" fill="#231F20"/>
<path d="M80.2312 13.648C81.2961 13.438 82.3758 13.3181 83.4556 13.2581C84.4305 16.1076 85.2853 19.002 86.2904 21.8365C87.3101 19.077 88.1051 16.2275 89.0046 13.423C90.0396 13.363 91.0593 13.333 92.0943 13.348C90.9395 17.1274 89.4398 20.7867 88.1648 24.536C87.49 26.2607 87.0701 28.2103 85.6604 29.5151C84.5056 30.5649 82.8409 30.6099 81.386 30.3549C81.2512 29.5301 81.1161 28.7053 80.981 27.8954C81.701 27.8804 82.421 27.9254 83.1257 27.8054C84.0857 27.4755 84.9255 26.3207 84.4906 25.3009C83.0958 21.4016 81.5663 17.5623 80.2312 13.648Z" fill="#231F20"/>
<path d="M94.1043 13.363C94.974 13.363 95.844 13.378 96.6987 13.393C96.8189 13.9329 96.9238 14.4728 97.0436 15.0127C98.3783 13.9179 99.9683 12.8531 101.798 13.1531C103.388 13.2131 104.647 14.6528 104.677 16.1975C104.752 19.3919 104.707 22.6014 104.692 25.7958C103.703 25.8108 102.713 25.8258 101.738 25.8408C101.453 22.9313 101.798 20.0068 101.588 17.1124C101.453 15.9126 99.9683 15.6126 99.0382 16.0925C98.2435 16.4825 97.1787 17.0374 97.2388 18.0722C97.1787 20.6517 97.2686 23.2312 97.2238 25.8108C96.1739 25.8258 95.1389 25.8258 94.0894 25.7958C94.1043 21.6415 94.0894 17.5023 94.1043 13.363Z" fill="#231F20"/>
<path d="M116.84 13.363C117.725 13.363 118.61 13.363 119.495 13.378C119.6 14.0979 119.72 14.8178 119.84 15.5527C120.935 14.4129 122.134 13.2281 123.814 13.0931C124.084 14.0829 124.234 15.1027 124.264 16.1226C122.614 16.4975 120.74 17.1873 120.005 18.8221C119.855 21.1466 120.035 23.4862 119.945 25.8108C118.91 25.8258 117.875 25.8258 116.84 25.7958C116.84 21.6415 116.84 17.5023 116.84 13.363Z" fill="#231F20"/>
<path d="M11.1543 3.26989C12.2041 2.01012 13.3439 0.660365 14.9636 0.150457C16.7782 -0.329455 18.323 1.09528 19.4627 2.31006C22.4472 5.72943 24.6218 9.76369 26.6464 13.8129C27.7412 11.3534 29.106 9.01385 30.5157 6.73427C31.8655 4.66465 33.2602 2.56502 35.2097 0.990304C36.1096 0.30043 37.3544 -0.35945 38.4793 0.225444C40.069 1.06529 41.2689 2.46004 42.3935 3.82478C44.7781 6.89921 46.6529 10.3336 48.3475 13.828C50.4622 18.3272 52.2919 23.0213 53.0566 27.9554C53.2817 30.235 53.4915 32.7995 52.112 34.7943C51.0471 36.3537 49.0223 36.8938 47.2225 36.5787C45.6631 36.0237 44.2982 35.004 43.2785 33.7143C40.849 30.7149 39.4091 27.0855 38.0744 23.5012C37.8795 22.8713 37.6395 22.2564 37.4294 21.6415C37.2946 22.2714 37.1144 22.9013 36.9046 23.5162C35.5397 27.1455 34.0851 30.8499 31.5806 33.8643C30.5757 35.094 29.256 36.039 27.7562 36.5787C25.5966 37.0289 23.512 35.9039 22.1173 34.3143C19.3878 31.3448 17.873 27.5055 16.4783 23.7711C16.2083 23.0063 15.9384 22.2414 15.7434 21.4466C15.5185 22.2414 15.2485 23.0363 14.9636 23.8011C13.7038 27.2355 12.2641 30.6999 9.9845 33.5944C8.7397 35.0791 7.12002 36.5339 5.09538 36.6388C3.22072 36.8038 1.40605 35.5889 0.686184 33.8793C-0.333632 31.5097 -0.0336867 28.8402 0.41623 26.3657C1.39105 21.6415 3.19072 17.1274 5.32033 12.8231C6.95505 9.47875 8.81469 6.20935 11.1543 3.26989ZM12.2191 4.3197C9.90948 7.25916 8.06485 10.5585 6.41512 13.9029C4.3605 18.2372 2.50085 22.7513 1.706 27.5055C1.42105 28.8252 1.42105 30.19 1.55602 31.5247C1.72099 32.7845 2.2159 34.1344 3.37069 34.779C4.4805 35.4239 5.90523 35.169 6.91004 34.449C8.70973 33.1894 9.90948 31.2698 10.9443 29.3651C13.1639 25.1209 14.6186 20.5167 15.7134 15.8826C16.8832 20.6367 18.3529 25.3759 20.6925 29.7101C21.6224 31.3148 22.5972 32.9795 24.1119 34.0892C24.8768 34.779 25.8816 35.259 26.9314 35.1391C28.1012 35.019 29.076 34.2691 29.9009 33.4744C31.2956 32.0346 32.3154 30.2649 33.2152 28.4953C35.1347 24.566 36.4545 20.3668 37.4895 16.1375C38.7794 21.2666 40.384 26.4107 43.1434 30.9698C44.1783 32.5596 45.3929 34.2094 47.2076 34.9592C48.4826 35.484 50.1021 35.019 50.837 33.8343C51.7219 32.4096 51.7969 30.6399 51.6618 29.0202C51.4819 26.3957 50.7172 23.8461 49.8774 21.3566C48.1974 16.5575 45.993 11.9383 43.3083 7.63408C42.0636 5.71443 40.774 3.7798 39.0343 2.25008C38.4192 1.71017 37.5044 1.18527 36.7247 1.72517C35.225 2.64 34.19 4.09475 33.1403 5.47447C30.5907 9.10383 28.4911 13.0631 26.7664 17.1424C26.7214 17.2024 26.6014 17.3223 26.5565 17.3823C26.4065 16.9174 26.2565 16.4675 26.0615 16.0176C24.2919 12.1933 22.3272 8.42894 19.8227 5.03957C18.9678 3.91477 18.083 2.77498 16.9282 1.95013C16.4333 1.60519 15.7734 1.29025 15.1885 1.5902C13.9438 2.16009 13.0739 3.28488 12.2191 4.3197Z" fill="#FEFEFE"/>
<path d="M12.2193 4.31969C13.0741 3.28488 13.959 2.17508 15.2037 1.60519C15.7886 1.30524 16.4485 1.60519 16.9434 1.96512C18.0982 2.78997 18.983 3.94477 19.8379 5.05457C22.3274 8.45894 24.3071 12.2083 26.0768 16.0326C26.2867 16.4675 26.4367 16.9324 26.5716 17.3973C24.2621 13.483 22.1625 9.41877 19.283 5.87939C18.4432 4.88959 17.5583 3.83978 16.3435 3.31487C15.6537 3.01493 14.9488 3.40484 14.3789 3.7798C12.3093 5.51948 10.7795 7.78405 9.33979 10.0336C5.95042 15.4327 3.40089 21.3566 1.72119 27.5055C2.51605 22.7513 4.36071 18.2372 6.43034 13.9029C8.06502 10.5585 9.9097 7.25915 12.2193 4.31969Z" fill="#9E242E"/>
<path d="M36.7243 1.71018C37.5041 1.17028 38.4189 1.69518 39.034 2.23508C40.7736 3.7498 42.0632 5.68446 43.308 7.61909C45.9927 11.9383 48.2123 16.5425 49.877 21.3416C50.7168 23.8311 51.4816 26.3657 51.6615 29.0052C51.3767 27.1755 50.8967 25.3759 50.282 23.6362C48.692 18.852 46.4876 14.2629 43.8182 9.98868C42.6481 8.15902 41.4033 6.34432 39.9036 4.78462C39.3038 4.18474 38.6589 3.55486 37.834 3.28489C37.189 3.08993 36.6042 3.53985 36.0794 3.8548C34.6846 4.94959 33.6049 6.35932 32.5701 7.78406C30.7404 10.3786 29.1057 13.1081 27.636 15.9126C27.396 16.3625 27.096 16.7824 26.7661 17.1573C28.4908 13.0631 30.5904 9.11881 33.1399 5.48948C34.1897 4.09475 35.2396 2.62501 36.7243 1.71018Z" fill="#9E242E"/>
<path d="M14.3788 3.7798C14.9487 3.40484 15.6536 3.01493 16.3435 3.31488C17.5583 3.83978 18.4431 4.8896 19.283 5.8794C22.1624 9.41877 24.262 13.483 26.5566 17.3973C25.1169 21.4916 23.4072 25.6008 23.3022 29.995C23.2272 31.4047 23.6022 32.7845 24.1271 34.0892C22.6124 32.9795 21.6225 31.3148 20.7077 29.71C18.3831 25.3759 16.8984 20.6517 15.7286 15.8826C14.8888 11.9233 14.1089 7.87404 14.3788 3.7798Z" fill="#FF912E"/>
<path d="M36.0948 3.83979C36.6199 3.52485 37.2048 3.07493 37.8497 3.26989C38.6742 3.53985 39.3192 4.16973 39.919 4.76961C41.419 6.34431 42.6638 8.14401 43.8335 9.97367C46.503 14.2479 48.7077 18.837 50.2973 23.6212C50.927 25.3609 51.3921 27.1605 51.6769 28.9902C51.812 30.6099 51.7369 32.3796 50.8523 33.8043C50.1174 35.004 48.5125 35.4541 47.2229 34.929C45.4082 34.1941 44.1934 32.5296 43.1587 30.9398C40.399 26.3957 38.7944 21.2516 37.5045 16.1076C36.6348 12.1033 35.8249 7.99404 36.0948 3.83979Z" fill="#F41CB2"/>
<path d="M9.33935 10.0336C10.7791 7.78405 12.3088 5.51948 14.3784 3.7798C14.1085 7.85903 14.8883 11.9233 15.7432 15.8826C14.6484 20.5317 13.1787 25.1209 10.974 29.3651C9.93923 31.2698 8.73945 33.1894 6.93979 34.449C5.93498 35.169 4.51024 35.4239 3.40045 34.779C2.24565 34.1344 1.75074 32.7695 1.58577 31.5247C1.43579 30.19 1.45079 28.8252 1.73574 27.5055C3.38544 21.3566 5.94998 15.4327 9.33935 10.0336Z" fill="#F41CB2"/>
<path d="M32.5852 7.76908C33.62 6.34431 34.6999 4.93458 36.0947 3.83978C35.8245 7.97903 36.6344 12.1033 37.5194 16.1225C36.4844 20.3668 35.1497 24.551 33.2451 28.4803C32.3453 30.2649 31.3255 32.0196 29.9307 33.4594C29.1209 34.2542 28.131 35.004 26.9613 35.1242C25.9114 35.244 24.9066 34.764 24.1418 34.0743C23.6169 32.7695 23.2419 31.3897 23.3169 29.98C23.4219 25.5858 25.1316 21.4616 26.5713 17.3823C26.6163 17.3223 26.7363 17.2023 26.7813 17.1424C27.1112 16.7524 27.4112 16.3475 27.6511 15.8976C29.1358 13.0931 30.7556 10.3636 32.5852 7.76908Z" fill="#F25511"/>
</g>
<defs>
<clipPath id="clip0_25121_17925">
<rect width="135.78" height="37" fill="white"/>
</clipPath>
</defs>
</svg>
