<svg width="114" height="37" viewBox="0 0 114 37" fill="none" xmlns="http://www.w3.org/2000/svg">
<g clip-path="url(#clip0_25121_17943)">
<path d="M49.333 36.3135H40.1108L45.8791 0.64653H55.101L49.333 36.3135Z" fill="#00579F"/>
<path d="M82.7647 1.51848C80.9457 0.796812 78.0606 0 74.4929 0C65.3858 0 58.9723 4.85651 58.933 11.7999C58.8573 16.9227 63.5247 19.768 67.0155 21.4761C70.5837 23.2215 71.7965 24.3607 71.7965 25.9165C71.7603 28.306 68.9133 29.4073 66.2581 29.4073C62.5761 29.4073 60.6034 28.8395 57.6052 27.5102L56.3908 26.9403L55.1003 34.9468C57.2631 35.9321 61.2483 36.8067 65.3858 36.8449C75.0624 36.8449 81.3624 32.0636 81.4369 24.6643C81.4737 20.6041 79.0092 17.493 73.6957 14.9508C70.4701 13.3189 68.4946 12.2185 68.4946 10.5487C68.5325 9.0307 70.1656 7.47591 73.8067 7.47591C76.8048 7.39974 79.0078 8.12042 80.6765 8.84158L81.5104 9.22031L82.7647 1.51848Z" fill="#00579F"/>
<path d="M95.0225 23.6779C95.7819 21.6289 98.7046 13.6986 98.7046 13.6986C98.6662 13.7748 99.4625 11.6118 99.9179 10.2839L100.562 13.3572C100.562 13.3572 102.309 21.8947 102.688 23.6779C101.247 23.6779 96.8441 23.6779 95.0225 23.6779ZM106.406 0.64653H99.273C97.0729 0.64653 95.4016 1.29104 94.4527 3.60582L80.7539 36.3129H90.4308C90.4308 36.3129 92.0238 31.9108 92.3662 30.9627C93.4278 30.9627 102.841 30.9627 104.207 30.9627C104.472 32.2148 105.307 36.3129 105.307 36.3129H113.846L106.406 0.64653Z" fill="#00579F"/>
<path d="M32.4083 0.64653L23.3766 24.9679L22.3896 20.0353C20.7199 14.3436 15.4831 8.15976 9.63916 5.08497L17.9119 36.2757H27.6642L42.1601 0.64653H32.4083Z" fill="#00579F"/>
<path d="M14.9896 0.64653H0.151797L0 1.36719C11.5744 4.32698 19.24 11.4615 22.3894 20.0368L19.1638 3.64465C18.6328 1.36669 17.0008 0.721674 14.9896 0.64653Z" fill="#FAA61A"/>
</g>
<defs>
<clipPath id="clip0_25121_17943">
<rect width="113.846" height="37" fill="white"/>
</clipPath>
</defs>
</svg>
