<svg width="160" height="12" viewBox="0 0 160 12" fill="none" xmlns="http://www.w3.org/2000/svg">
<path d="M0.666667 6C0.666667 8.94552 3.05448 11.3333 6 11.3333C8.94552 11.3333 11.3333 8.94552 11.3333 6C11.3333 3.05448 8.94552 0.666667 6 0.666667C3.05448 0.666667 0.666667 3.05448 0.666667 6ZM159 7C159.552 7 160 6.55228 160 6C160 5.44772 159.552 5 159 5V7ZM9.825 7C10.3773 7 10.825 6.55228 10.825 6C10.825 5.44772 10.3773 5 9.825 5V7ZM17.475 5C16.9227 5 16.475 5.44772 16.475 6C16.475 6.55228 16.9227 7 17.475 7V5ZM25.125 7C25.6773 7 26.125 6.55228 26.125 6C26.125 5.44772 25.6773 5 25.125 5V7ZM32.775 5C32.2227 5 31.775 5.44772 31.775 6C31.775 6.55228 32.2227 7 32.775 7V5ZM40.425 7C40.9773 7 41.425 6.55228 41.425 6C41.425 5.44772 40.9773 5 40.425 5V7ZM48.075 5C47.5227 5 47.075 5.44772 47.075 6C47.075 6.55228 47.5227 7 48.075 7V5ZM55.725 7C56.2773 7 56.725 6.55228 56.725 6C56.725 5.44772 56.2773 5 55.725 5V7ZM63.375 5C62.8227 5 62.375 5.44772 62.375 6C62.375 6.55228 62.8227 7 63.375 7V5ZM71.025 7C71.5773 7 72.025 6.55228 72.025 6C72.025 5.44772 71.5773 5 71.025 5V7ZM78.675 5C78.1227 5 77.675 5.44772 77.675 6C77.675 6.55228 78.1227 7 78.675 7V5ZM86.325 7C86.8773 7 87.325 6.55228 87.325 6C87.325 5.44772 86.8773 5 86.325 5V7ZM93.975 5C93.4227 5 92.975 5.44772 92.975 6C92.975 6.55228 93.4227 7 93.975 7V5ZM101.625 7C102.177 7 102.625 6.55228 102.625 6C102.625 5.44772 102.177 5 101.625 5V7ZM109.275 5C108.723 5 108.275 5.44772 108.275 6C108.275 6.55228 108.723 7 109.275 7V5ZM116.925 7C117.477 7 117.925 6.55228 117.925 6C117.925 5.44772 117.477 5 116.925 5V7ZM124.575 5C124.023 5 123.575 5.44772 123.575 6C123.575 6.55228 124.023 7 124.575 7V5ZM132.225 7C132.777 7 133.225 6.55228 133.225 6C133.225 5.44772 132.777 5 132.225 5V7ZM139.875 5C139.323 5 138.875 5.44772 138.875 6C138.875 6.55228 139.323 7 139.875 7V5ZM147.525 7C148.077 7 148.525 6.55228 148.525 6C148.525 5.44772 148.077 5 147.525 5V7ZM155.175 5C154.623 5 154.175 5.44772 154.175 6C154.175 6.55228 154.623 7 155.175 7V5ZM6 7H9.825V5H6V7ZM17.475 7H25.125V5H17.475V7ZM32.775 7H40.425V5H32.775V7ZM48.075 7H55.725V5H48.075V7ZM63.375 7H71.025V5H63.375V7ZM78.675 7H86.325V5H78.675V7ZM93.975 7H101.625V5H93.975V7ZM109.275 7H116.925V5H109.275V7ZM124.575 7H132.225V5H124.575V7ZM139.875 7H147.525V5H139.875V7ZM155.175 7H159V5H155.175V7Z" fill="#EE2C3C"/>
</svg>
