<svg width="154" height="12" viewBox="0 0 154 12" fill="none" xmlns="http://www.w3.org/2000/svg">
<path d="M1 5C0.447715 5 0 5.44772 0 6C0 6.55228 0.447715 7 1 7V5ZM154 6L144 0.226497V11.7735L154 6ZM4.825 7C5.37728 7 5.825 6.55228 5.825 6C5.825 5.44772 5.37728 5 4.825 5V7ZM12.475 5C11.9227 5 11.475 5.44772 11.475 6C11.475 6.55228 11.9227 7 12.475 7V5ZM20.125 7C20.6773 7 21.125 6.55228 21.125 6C21.125 5.44772 20.6773 5 20.125 5V7ZM27.775 5C27.2227 5 26.775 5.44772 26.775 6C26.775 6.55228 27.2227 7 27.775 7V5ZM35.425 7C35.9773 7 36.425 6.55228 36.425 6C36.425 5.44772 35.9773 5 35.425 5V7ZM43.075 5C42.5227 5 42.075 5.44772 42.075 6C42.075 6.55228 42.5227 7 43.075 7V5ZM50.725 7C51.2773 7 51.725 6.55228 51.725 6C51.725 5.44772 51.2773 5 50.725 5V7ZM58.375 5C57.8227 5 57.375 5.44772 57.375 6C57.375 6.55228 57.8227 7 58.375 7V5ZM66.025 7C66.5773 7 67.025 6.55228 67.025 6C67.025 5.44772 66.5773 5 66.025 5V7ZM73.675 5C73.1227 5 72.675 5.44772 72.675 6C72.675 6.55228 73.1227 7 73.675 7V5ZM81.325 7C81.8773 7 82.325 6.55228 82.325 6C82.325 5.44772 81.8773 5 81.325 5V7ZM88.975 5C88.4227 5 87.975 5.44772 87.975 6C87.975 6.55228 88.4227 7 88.975 7V5ZM96.625 7C97.1773 7 97.625 6.55228 97.625 6C97.625 5.44772 97.1773 5 96.625 5V7ZM104.275 5C103.723 5 103.275 5.44772 103.275 6C103.275 6.55228 103.723 7 104.275 7V5ZM111.925 7C112.477 7 112.925 6.55228 112.925 6C112.925 5.44772 112.477 5 111.925 5V7ZM119.575 5C119.023 5 118.575 5.44772 118.575 6C118.575 6.55228 119.023 7 119.575 7V5ZM127.225 7C127.777 7 128.225 6.55228 128.225 6C128.225 5.44772 127.777 5 127.225 5V7ZM134.875 5C134.323 5 133.875 5.44772 133.875 6C133.875 6.55228 134.323 7 134.875 7V5ZM142.525 7C143.077 7 143.525 6.55228 143.525 6C143.525 5.44772 143.077 5 142.525 5V7ZM150.175 5C149.623 5 149.175 5.44772 149.175 6C149.175 6.55228 149.623 7 150.175 7V5ZM1 7H4.825V5H1V7ZM12.475 7H20.125V5H12.475V7ZM27.775 7H35.425V5H27.775V7ZM43.075 7H50.725V5H43.075V7ZM58.375 7H66.025V5H58.375V7ZM73.675 7H81.325V5H73.675V7ZM88.975 7H96.625V5H88.975V7ZM104.275 7H111.925V5H104.275V7ZM119.575 7H127.225V5H119.575V7ZM134.875 7H142.525V5H134.875V7Z" fill="#EE2C3C"/>
</svg>
