<svg width="158" height="1088" viewBox="0 0 158 1088" fill="none" xmlns="http://www.w3.org/2000/svg">
<g clip-path="url(#clip0_127_34)">
<rect width="158" height="1088" fill="white"/>
<path d="M35 37C20.5 235.5 126 145.5 126 292" stroke="#7805B1" stroke-width="2.51852" stroke-dasharray="5.04 5.04"/>
<path d="M35 531C20.5 729.5 126 639.5 126 786" stroke="#7805B1" stroke-width="2.51852" stroke-dasharray="5.04 5.04"/>
<path d="M124.63 304C139.13 502.5 33.6299 412.5 33.6299 559" stroke="#7805B1" stroke-width="2.51852" stroke-dasharray="5.04 5.04"/>
<path d="M124.63 798C139.13 996.5 33.6299 906.5 33.6299 1053" stroke="#7805B1" stroke-width="2.51852" stroke-dasharray="5.04 5.04"/>
<circle cx="33.5818" cy="33.5818" r="33.5818" transform="matrix(-1 0 0 1 68.8291 0)" fill="#7805B1"/>
<path d="M31.704 45V24.52L33.944 26.76H27.224V22.6H36.888V45H31.704Z" fill="white"/>
<circle cx="33.5818" cy="33.5818" r="33.5818" transform="matrix(-1 0 0 1 158 255)" fill="#7805B1"/>
<path d="M117.056 300V296.64L125.696 288.48C126.379 287.861 126.88 287.307 127.2 286.816C127.52 286.325 127.733 285.877 127.84 285.472C127.968 285.067 128.032 284.693 128.032 284.352C128.032 283.456 127.723 282.773 127.104 282.304C126.507 281.813 125.621 281.568 124.448 281.568C123.509 281.568 122.635 281.749 121.824 282.112C121.035 282.475 120.363 283.04 119.808 283.808L116.032 281.376C116.885 280.096 118.08 279.083 119.616 278.336C121.152 277.589 122.923 277.216 124.928 277.216C126.592 277.216 128.043 277.493 129.28 278.048C130.539 278.581 131.509 279.339 132.192 280.32C132.896 281.301 133.248 282.475 133.248 283.84C133.248 284.565 133.152 285.291 132.96 286.016C132.789 286.72 132.427 287.467 131.872 288.256C131.339 289.045 130.549 289.931 129.504 290.912L122.336 297.664L121.344 295.776H133.984V300H117.056Z" fill="white"/>
<circle cx="33.5818" cy="33.5818" r="33.5818" transform="matrix(-1 0 0 1 67.1641 510)" fill="#7805B1"/>
<path d="M32.512 555.384C30.9547 555.384 29.408 555.181 27.872 554.776C26.336 554.349 25.0347 553.752 23.968 552.984L25.984 549.016C26.8373 549.635 27.8293 550.125 28.96 550.488C30.0907 550.851 31.232 551.032 32.384 551.032C33.6853 551.032 34.7093 550.776 35.456 550.264C36.2027 549.752 36.576 549.048 36.576 548.152C36.576 547.299 36.2453 546.627 35.584 546.136C34.9227 545.645 33.856 545.4 32.384 545.4H30.016V541.976L36.256 534.904L36.832 536.76H25.088V532.6H40.768V535.96L34.56 543.032L31.936 541.528H33.44C36.192 541.528 38.272 542.147 39.68 543.384C41.088 544.621 41.792 546.211 41.792 548.152C41.792 549.411 41.4613 550.595 40.8 551.704C40.1387 552.792 39.1253 553.677 37.76 554.36C36.3947 555.043 34.6453 555.384 32.512 555.384Z" fill="white"/>
<circle cx="33.5818" cy="33.5818" r="33.5818" transform="matrix(-1 0 0 1 158 765)" fill="#7805B1"/>
<path d="M112.992 804.296V800.808L123.552 786.6H128.992L118.656 800.808L116.128 800.072H133.76V804.296H112.992ZM125.056 809V804.296L125.216 800.072V795.88H130.112V809H125.056Z" fill="white"/>
<circle cx="33.5818" cy="33.5818" r="33.5818" transform="matrix(-1 0 0 1 67.1641 1020)" fill="#7805B1"/>
<path d="M32.864 1064.38C31.3067 1064.38 29.76 1064.18 28.224 1063.78C26.7093 1063.35 25.408 1062.75 24.32 1061.98L26.368 1058.02C27.2213 1058.63 28.2027 1059.13 29.312 1059.49C30.4427 1059.85 31.584 1060.03 32.736 1060.03C34.0373 1060.03 35.0613 1059.78 35.808 1059.26C36.5547 1058.75 36.928 1058.04 36.928 1057.12C36.928 1056.54 36.7787 1056.03 36.48 1055.58C36.1813 1055.14 35.648 1054.79 34.88 1054.56C34.1333 1054.33 33.0773 1054.21 31.712 1054.21H25.984L27.136 1041.6H40.8V1045.76H28.992L31.68 1043.39L30.88 1052.38L28.192 1050.02H32.928C35.1467 1050.02 36.928 1050.33 38.272 1050.94C39.6373 1051.54 40.6293 1052.36 41.248 1053.41C41.8667 1054.45 42.176 1055.64 42.176 1056.96C42.176 1058.28 41.8453 1059.51 41.184 1060.64C40.5227 1061.75 39.4987 1062.66 38.112 1063.36C36.7467 1064.04 34.9973 1064.38 32.864 1064.38Z" fill="white"/>
</g>
<defs>
<clipPath id="clip0_127_34">
<rect width="158" height="1088" fill="white"/>
</clipPath>
</defs>
</svg>
