<svg width="503" height="328" viewBox="0 0 503 328" fill="none" xmlns="http://www.w3.org/2000/svg">
<g opacity="0.8">
<path d="M492.136 199.73C499.942 197.675 504.614 189.771 502.08 182.229C482.447 123.8 441.608 74.2934 387.096 43.3604C328.348 10.0236 258.532 0.989699 193.007 18.2461C127.482 35.5025 71.615 77.6357 37.6967 135.377C6.22423 188.954 -3.95889 251.897 8.76271 312.147C10.4048 319.924 18.4723 324.472 26.2781 322.417L492.136 199.73Z" fill="#FFEFEF"/>
<path d="M427.465 175.985L499.682 174.115L445.561 292.435L374.477 292.435L427.465 175.985Z" fill="black"/>
<path d="M287.294 292.435H445.712L440.153 296.309H281.735L287.294 292.435Z" fill="#666666"/>
<path d="M51.4402 56.2739C41.8807 52.1444 30.627 56.4135 27.486 66.2213C15.4778 103.716 16.7275 144.331 31.3756 181.3C48.3264 224.08 81.8306 258.473 124.518 276.913C167.205 295.353 215.578 296.33 258.996 279.628C296.516 265.195 327.68 238.582 347.531 204.476C352.724 195.555 348.286 184.507 338.726 180.377L51.4402 56.2739Z" fill="#BE2330"/>
<path d="M236.956 227.528L224.977 148.945L212.716 163.079L216.032 258.169L309.961 237.481L311.062 242.91C311.543 245.28 312.769 247.44 314.565 249.086L326.148 259.698C330.426 263.617 339.62 263.786 335.933 259.308L327.448 249.004C326.539 247.901 327.161 246.241 328.58 245.983L336.799 244.491C338.371 244.206 339.953 244.939 340.732 246.314L349.825 262.365C352.786 267.59 358.111 262.35 356.515 256.56L353.057 244.014L366.629 260.388C369.463 263.807 373.705 265.79 378.185 265.79H382.157L375.539 250.208C371.48 240.651 362.958 233.636 352.691 231.401L314.549 223.098L236.956 227.528Z" fill="#FF7581"/>
<path fill-rule="evenodd" clip-rule="evenodd" d="M351.642 234.766C351.859 234.421 352.319 234.316 352.669 234.53L363.406 241.117L378.084 264.1C378.304 264.443 378.199 264.897 377.85 265.113C377.502 265.329 377.041 265.226 376.822 264.883L362.326 242.186L351.881 235.778C351.531 235.564 351.424 235.11 351.642 234.766ZM343.45 236.929C343.67 236.585 344.13 236.482 344.479 236.698L351.473 241.029C351.822 241.245 351.927 241.699 351.708 242.043C351.488 242.387 351.028 242.49 350.679 242.274L343.685 237.943C343.336 237.726 343.231 237.273 343.45 236.929Z" fill="black"/>
<path d="M226.678 150.368L214.417 164.502L215.58 197.866L235.934 190.086L226.678 150.368Z" fill="#280154"/>
<path d="M163.492 60.8482L227.102 57.816V92.8349C227.102 106.009 214.314 115.527 201.453 111.926L172.907 103.933L163.492 60.8482Z" fill="#F8ABB1"/>
<path d="M234.96 287.304L227.345 153.749C226.943 146.694 222.004 140.684 215.083 138.829L141.5 119.108L107.266 269.669C112.429 272.547 117.758 275.178 123.24 277.546C158.595 292.819 197.85 296.112 234.96 287.304Z" fill="#EE2C3C"/>
<path d="M108.058 254.613L143.005 157.579L133.685 257.506L173.699 268.069L108.058 254.613Z" fill="#280154"/>
<path d="M168.32 130.805L173.111 102.117H199.01L193.196 134.959C192.02 141.604 185.681 146.112 178.91 145.118C171.944 144.096 167.176 137.652 168.32 130.805Z" fill="#F8ABB1"/>
<path d="M55.8527 258.443L126.868 125.472C130.224 119.187 138.152 116.827 144.479 120.227C150.019 123.204 152.563 129.69 150.496 135.565L111.401 246.655L221.593 249.767L272.961 241.461C277.553 240.719 282.262 241.628 286.231 244.022L315.058 258.443L329.406 275.05C334.633 281.1 329.987 288.44 324.572 282.559L306.747 264.334L280.079 252.409L296.146 269.569L301.045 288.206L276.874 286.711C274.104 286.711 271.537 285.28 270.11 282.941L266.159 276.462L247.035 266.546L225.904 272.437L80.3163 292.688C61.0417 295.369 46.7878 275.416 55.8527 258.443Z" fill="#F8ABB1"/>
<path fill-rule="evenodd" clip-rule="evenodd" d="M92.6699 245.629C92.685 245.223 93.0311 244.906 93.4428 244.921L219.652 249.493C220.063 249.508 220.385 249.849 220.37 250.255C220.355 250.66 220.009 250.977 219.597 250.962L93.388 246.39C92.9763 246.375 92.6547 246.034 92.6699 245.629Z" fill="black"/>
<path d="M150.76 135.636L138.914 172.227L108.058 158.212L126.598 125.344C130.127 119.088 138.116 116.807 144.493 120.234C150.057 123.225 152.686 129.685 150.76 135.636Z" fill="#EE2C3C"/>
<path d="M158.715 74.8229L172.962 102.543L173.782 91.3507C173.912 89.5776 173.671 87.7971 173.074 86.1195L170.062 77.6553C169.265 75.4138 170.049 72.922 171.994 71.5186C175.182 69.2181 179.719 70.9018 180.574 74.7033L182.28 82.2848L191.768 64.0292H227.036V71.5981L239.576 62.195C242.481 60.017 244.386 56.7896 244.872 53.2253C246.158 43.7959 237.43 36.0361 228.042 38.2617L221.82 39.7368L222.564 35.911C223.602 30.5792 219.454 25.6353 213.945 25.6353C211.731 25.6353 209.6 26.4591 207.977 27.9419L195.068 39.7368V35.149C195.068 29.8947 190.745 25.6353 185.412 25.6353C181.501 25.6353 177.975 27.9606 176.485 31.524C170.845 45.0075 154.189 56.7222 157.332 70.9957C157.618 72.2924 158.075 73.5775 158.715 74.8229Z" fill="#280154"/>
<path d="M184.307 103.208L197.266 110.481L194.313 128.26L184.307 103.208Z" fill="#FF7581"/>
<path fill-rule="evenodd" clip-rule="evenodd" d="M201.489 77.8688C199.784 78.4633 198.548 79.7847 197.945 80.8187C197.739 81.1707 197.283 81.292 196.926 81.0898C196.569 80.8875 196.446 80.4382 196.651 80.0862C197.384 78.8282 198.871 77.2222 200.991 76.4829C203.162 75.7259 205.879 75.9195 208.926 78.0844C209.26 78.3218 209.335 78.7813 209.094 79.1105C208.853 79.4398 208.387 79.5142 208.053 79.2767C205.354 77.3584 203.143 77.292 201.489 77.8688Z" fill="black"/>
<path fill-rule="evenodd" clip-rule="evenodd" d="M222.551 75.8375C220.964 76.0161 219.631 76.9132 218.902 77.6866C218.622 77.9842 218.15 78.0016 217.848 77.7255C217.546 77.4494 217.528 76.9843 217.809 76.6867C218.715 75.7238 220.357 74.6046 222.382 74.3769C224.46 74.143 226.818 74.8629 229.05 77.3733C229.321 77.6786 229.29 78.143 228.98 78.4106C228.671 78.6781 228.199 78.6475 227.928 78.3421C225.977 76.1487 224.085 75.665 222.551 75.8375Z" fill="black"/>
<path fill-rule="evenodd" clip-rule="evenodd" d="M210.928 100.628C211.951 100.445 212.787 99.8016 213.229 99.2648C213.489 98.9496 213.959 98.9016 214.279 99.1575C214.599 99.4135 214.647 99.8764 214.388 100.192C213.78 100.929 212.651 101.814 211.195 102.075C209.685 102.345 207.948 101.921 206.241 100.24C205.95 99.9525 205.95 99.487 206.241 99.2C206.532 98.9129 207.005 98.9129 207.296 99.2C208.7 100.584 209.958 100.802 210.928 100.628Z" fill="black"/>
<path d="M206.321 84.8248C206.321 86.5595 205.55 87.9658 204.598 87.9658C203.647 87.9658 202.876 86.5595 202.876 84.8248C202.876 83.09 203.647 81.6837 204.598 81.6837C205.55 81.6837 206.321 83.09 206.321 84.8248Z" fill="black"/>
<path d="M225.137 84.825C225.137 86.5598 224.366 87.966 223.415 87.966C222.463 87.966 221.692 86.5598 221.692 84.825C221.692 83.0903 222.463 81.684 223.415 81.684C224.366 81.684 225.137 83.0903 225.137 84.825Z" fill="black"/>
<path fill-rule="evenodd" clip-rule="evenodd" d="M214.223 82.8472C214.56 82.6134 215.025 82.6929 215.262 83.0248C216.29 84.4627 217.578 86.7206 218.016 88.7894C218.234 89.8223 218.263 90.9076 217.836 91.833C217.387 92.8055 216.499 93.4698 215.182 93.7394C214.779 93.822 214.384 93.5668 214.3 93.1693C214.216 92.7719 214.475 92.3827 214.878 92.3C215.818 92.1077 216.26 91.6951 216.477 91.2247C216.716 90.7072 216.744 89.9833 216.555 89.0895C216.177 87.3049 215.02 85.2391 214.043 83.8715C213.805 83.5396 213.886 83.081 214.223 82.8472Z" fill="black"/>
<path fill-rule="evenodd" clip-rule="evenodd" d="M268.343 254.506C268.633 254.218 269.106 254.216 269.398 254.501L286.543 271.241L293.844 286.898C294.016 287.267 293.852 287.703 293.478 287.873C293.103 288.042 292.66 287.881 292.488 287.512L285.3 272.097L268.348 255.546C268.055 255.26 268.053 254.794 268.343 254.506ZM258.755 259.25C259.024 258.942 259.495 258.908 259.807 259.172L276.711 273.51L284.021 286.856C284.217 287.213 284.081 287.659 283.719 287.852C283.356 288.045 282.904 287.911 282.708 287.554L275.529 274.447L258.834 260.287C258.522 260.022 258.486 259.558 258.755 259.25Z" fill="black"/>
<path fill-rule="evenodd" clip-rule="evenodd" d="M175.872 76.6305C175.738 76.0352 175.134 75.6644 174.532 75.8081C173.936 75.9505 173.571 76.5444 173.72 77.1311L173.931 77.9616C174.031 78.3555 173.788 78.7546 173.388 78.853C172.988 78.9515 172.583 78.7121 172.483 78.3183L172.273 77.4877C171.923 76.1094 172.779 74.714 174.181 74.3793C175.594 74.0418 177.013 74.9129 177.329 76.3116L178.908 83.316C178.998 83.7123 178.744 84.1049 178.342 84.193C177.94 84.2811 177.541 84.0312 177.452 83.6349L175.872 76.6305Z" fill="black"/>
</g>
</svg>
