<?xml version="1.0" encoding="UTF-8"?>
<svg id="Layer_1" data-name="Layer 1" xmlns="http://www.w3.org/2000/svg" viewBox="0 0 78 58">
  <defs>
    <style>
      .cls-1 {
        fill: #f6b88e;
      }

      .cls-1, .cls-2, .cls-3, .cls-4, .cls-5, .cls-6, .cls-7, .cls-8, .cls-9, .cls-10 {
        stroke-width: 0px;
      }

      .cls-2 {
        fill: #ec732c;
      }

      .cls-11 {
        fill: #464845;
        font-family: ProximaNovaCond-Semibold, 'Proxima Nova Condensed';
        font-size: 3.36px;
        letter-spacing: .06em;
      }

      .cls-11, .cls-12 {
        font-weight: 600;
      }

      .cls-13 {
        fill: #fff;
        font-family: ProximaNova-Bold, 'Proxima Nova';
        font-size: 2.74px;
        font-weight: 700;
        letter-spacing: 0em;
      }

      .cls-14 {
        letter-spacing: .27em;
      }

      .cls-3 {
        fill-rule: evenodd;
      }

      .cls-3, .cls-15, .cls-10, .cls-16 {
        fill: #f8dab3;
      }

      .cls-4 {
        fill: #fbefd5;
      }

      .cls-5, .cls-12 {
        fill: #fdf6de;
      }

      .cls-17 {
        letter-spacing: .4em;
      }

      .cls-15 {
        letter-spacing: .05em;
      }

      .cls-15, .cls-16 {
        font-family: ProximaNova-Extrabld, 'Proxima Nova';
        font-size: 3.16px;
      }

      .cls-6 {
        fill: #f6e7da;
      }

      .cls-12 {
        font-family: ProximaNova-Semibold, 'Proxima Nova';
        font-size: 2.11px;
      }

      .cls-7 {
        fill: #ef702b;
      }

      .cls-8 {
        fill: #d8804c;
      }

      .cls-9 {
        fill: #ee702b;
      }

      .cls-16 {
        letter-spacing: .05em;
      }
    </style>
  </defs>
  <rect class="cls-7" x=".32" y=".5" width="77.36" height="57"/>
  <g>
    <path class="cls-3" d="m24.07,15.61s0,.04.02.06c.02.02.04.04.04.07s0,.07-.01.1c-.09,0-.18.02-.27.05-.02-.02-.05-.06-.05-.08,0-.01,0-.03,0-.04.01-.03.02-.08,0-.11-.03-.07-.22,0-.19.08,0,.02.03.04.05.05.03.02.05.02.07.05s.02.07.03.09c-.08.04-.15.09-.21.15-.02,0-.07-.04-.08-.06,0-.01,0-.03,0-.04,0-.03,0-.08-.04-.11-.06-.05-.2.09-.15.15.02.02.04.02.06.03.03,0,.05,0,.08.02s.05.05.06.08c-.06.07-.11.14-.14.22-.02,0-.08-.01-.09-.02-.01,0-.02-.02-.02-.03-.01-.03-.04-.07-.07-.08-.08-.03-.15.16-.08.2.02,0,.04,0,.07,0,.03,0,.05-.02.08-.01s.06.03.09.05c-.03.08-.05.17-.05.26-.02,0-.08.02-.09.01-.01,0-.02-.01-.03-.02-.02-.02-.07-.05-.1-.05-.08,0-.08.21,0,.21.02,0,.04,0,.06-.02.02-.02.04-.04.07-.04s.07,0,.1.01c0,.09.02.17.05.26-.02.02-.06.05-.08.05-.01,0-.03,0-.04,0-.03-.01-.08-.02-.11,0-.07.03,0,.22.08.19.02,0,.04-.03.05-.05.02-.03.02-.05.05-.07s.07-.02.09-.03c.04.08.09.15.15.21,0,.02-.04.07-.06.08-.01,0-.03,0-.04,0-.03,0-.08,0-.11.04-.05.06.09.2.15.15.01-.02.02-.04.03-.06,0-.03,0-.05.02-.08s.05-.05.08-.06c.07.06.14.11.22.14,0,.02-.01.08-.02.09,0,.01-.02.02-.03.02-.03.01-.07.04-.08.07-.03.08.16.15.2.08,0-.02,0-.04,0-.07,0-.03-.02-.05-.01-.08s.03-.06.05-.09c.08.03.17.05.26.05,0,.02.02.08.01.09,0,.01-.01.02-.02.03-.02.02-.05.07-.05.1,0,.08.21.08.21,0,0-.02,0-.04-.02-.06-.02-.02-.04-.04-.04-.07s0-.07.01-.1c.09,0,.17-.02.26-.05.02.02.05.06.05.08,0,.01,0,.03,0,.04-.01.03-.02.08,0,.11.03.07.22,0,.19-.08,0-.02-.03-.04-.04-.05-.03-.02-.05-.02-.07-.05s-.02-.07-.03-.09c.08-.04.15-.09.22-.15.02,0,.07.04.08.06,0,.01,0,.03,0,.04,0,.03,0,.08.03.11.06.05.2-.09.15-.15-.02-.01-.04-.02-.06-.03-.03,0-.05,0-.08-.02s-.04-.05-.06-.08c.06-.06.11-.14.15-.22.02,0,.08.01.09.02.01,0,.02.02.02.03.01.03.04.07.07.08.08.03.15-.16.08-.2-.02,0-.04,0-.07,0-.03,0-.05.02-.08.01s-.06-.03-.09-.05c.03-.08.05-.17.05-.25.02,0,.08-.02.09-.01.01,0,.02.01.03.02.02.02.07.05.1.05.08,0,.08-.21,0-.21-.02,0-.04,0-.06.02-.02.02-.04.04-.07.04s-.07,0-.1-.01c0-.09-.02-.17-.05-.26.02-.02.06-.05.08-.05.01,0,.03,0,.04,0,.03.01.08.02.11,0,.07-.03,0-.22-.08-.2-.02,0-.04.03-.05.04-.02.03-.02.05-.05.07s-.07.02-.09.03c-.04-.08-.09-.15-.14-.22,0-.02.04-.07.06-.08.01,0,.03,0,.04,0,.03,0,.08,0,.11-.03.05-.06-.09-.2-.15-.15-.02.02-.02.04-.03.06,0,.03,0,.05-.02.08s-.05.04-.08.06c-.06-.06-.14-.11-.22-.15,0-.02.01-.08.02-.09,0-.01.02-.02.03-.02.03-.01.07-.04.09-.07.03-.08-.16-.15-.2-.08,0,.02,0,.04,0,.07,0,.03.02.05.01.08s-.03.06-.05.09c-.08-.03-.17-.05-.26-.05,0-.02-.02-.08-.01-.09,0-.01.01-.02.02-.03.02-.02.05-.07.05-.1,0-.08-.21-.08-.21,0Zm.21.44c.08,0,.14.06.14.14s-.06.14-.14.14-.14-.06-.14-.14h0c0-.08.06-.14.14-.14Zm.36.29s.04.02.04.04-.02.04-.04.04-.04-.02-.04-.04c0,0,0,0,0,0,0-.02.02-.04.04-.04Zm-.32,1.03s.04.02.04.04-.02.04-.04.04-.04-.02-.04-.04.02-.04.04-.04h0Zm-.61-.23s.04.02.04.04-.02.04-.04.04-.04-.02-.04-.04c0-.02.02-.04.04-.04Zm.92-.07s.04.02.04.04-.02.04-.04.04-.04-.02-.04-.04.02-.04.04-.04h0Zm-.19.08s.07.03.07.07c0,.04-.03.07-.07.07-.04,0-.07-.03-.07-.07,0,0,0,0,0,0,0-.04.03-.07.07-.07Zm-.4-.1c.05,0,.09.04.09.09s-.04.09-.09.09-.09-.04-.09-.09.04-.09.09-.09h0Zm0-.25s.04.02.04.04c0,.02-.02.04-.04.04s-.04-.02-.04-.04c0,0,0,0,0,0,0-.02.02-.04.04-.04Zm-.58-.41s.04.02.04.04c0,.02-.02.04-.04.04s-.04-.02-.04-.04.02-.04.04-.04h0Zm.43.08s.04.02.04.04-.02.04-.04.04-.04-.02-.04-.04c0,0,0,0,0,0,0-.02.02-.04.04-.04,0,0,0,0,0,0Zm.32.04s.07.03.07.07-.03.07-.07.07c-.04,0-.07-.03-.07-.07,0,0,0,0,0,0,0-.04.03-.07.07-.07Zm.62.02s.07.03.07.07-.03.07-.07.07c-.04,0-.07-.03-.07-.07h0s.03-.07.07-.07Zm-.32.12c.05,0,.09.04.09.09,0,.05-.04.09-.09.09-.05,0-.09-.04-.09-.09,0-.05.04-.09.09-.09h0Zm-.91,0c.08,0,.14.06.14.14,0,.08-.06.14-.14.14-.08,0-.14-.06-.14-.14h0c0-.08.06-.14.14-.14Zm.23-.47c.05,0,.09.04.09.09s-.04.09-.09.09-.09-.04-.09-.09c0,0,0,0,0,0,0-.05.04-.09.09-.09h0Z"/>
    <g>
      <path class="cls-4" d="m65.66,39.65H29.37v-2.67c.32-.22.62-.43.89-.62h34.7s.7.62.7.62v2.67Z"/>
      <path class="cls-6" d="m20.31,32.09c.41.04.88-.21,1.16.38.09.2.35-.07.52-.18.77-.5,1.54-.49,2.22.12.31.28.48.19.76,0,1.49-.96,2.68-.44,2.85,1.31.11,1.16.04,2.34.06,3.51,0,.47-.23.63-.67.62-.42,0-.72-.12-.72-.59-.01-.9,0-1.8,0-2.7,0-.55.01-1.14-.69-1.28-.47-.09-.99.65-.99,1.36,0,.72.01,1.44-.01,2.16-.01.47.18,1.06-.68,1.06-.9,0-.72-.61-.73-1.12-.01-.78,0-1.56-.01-2.34,0-.5-.1-1.05-.72-1.05-.62,0-.98.45-1.01,1.06-.04.84-.03,1.68-.02,2.52,0,.54-.04.94-.75.93-.69,0-.68-.41-.68-.89,0-1.14-.02-2.28-.03-3.42.12-.48-.11-.99.16-1.45Z"/>
      <path class="cls-10" d="m11.08,19.34c-1.55-.18-2.9.29-4.24,1.08-2.83,1.66-3.38,6.23.12,8.41,1.85,1.15,3.79,1.41,5.86.79.23-.07.46-.13.7-.16.15-.02.3.05.37.2.09.18.05.38-.11.49-.22.15-.46.33-.71.36-3.61.55-7.11.08-8.94-3.83-1.05-2.25-.15-5.36,2.11-6.92,2.01-1.39,4.24-1.75,6.61-1.11.28.08.67.12.55.55-.1.34-.45.22-.7.21-.54-.02-1.08-.05-1.62-.08Z"/>
      <path class="cls-6" d="m7.82,25.61c0-.19-.05-.61-.04-1.03,0-.59-.03-1.03-.83-.7-.33.13-.64-.06-.8-.41-.16-.37.07-.56.34-.73.73-.43,1.19-1.29,2.22-1.25.4.02.55.1.54.48-.02,1.28.14,2.56,0,3.85-.07.61.32,1.18.02,1.83-.26.56-.63.35-.97.31-.34-.05-.71-.13-.6-.69.1-.47.07-.96.11-1.66Z"/>
      <path class="cls-10" d="m17.86,24.86c.17.75-.13,1.42-.42,2.06-.43.96-.51,1.87.06,2.81.16.27.42.6.08.98-.34.39-.58,0-.87-.04-.84-.13-1.62-.33-2.06-1.16-.09-.17-.32-.36-.11-.55.2-.19.44-.13.64.07.1.1.22.21.34.28.17.09.31.34.55.22.25-.12.15-.36.13-.56-.08-.73-.02-1.43.3-2.1.5-1.03.57-2.12.41-3.24-.04-.29-.21-.74.24-.84.42-.1.35.38.51.6.34.47.12.99.19,1.48Z"/>
      <path class="cls-4" d="m38.2,23.82c.6.06,1.16.19,1.21.93.04.49.03,1.03-.56,1.18-.48.12-1.07.26-1.37-.31-.28-.53-.35-1.1.21-1.54.12-.09.25-.16.38-.25.05.02.09.02.13-.01Z"/>
      <path class="cls-10" d="m27.37,29.01c.23-1.03.78-2.02.37-3.12-.06-.16-.15-.31-.23-.47.23-.24-.59-.83.29-.85.28.75.57,1.5.63,2.3-.02.04-.02.09,0,.13-.24.62-.35,1.28-.72,1.85-.03.03-.04.06-.03.09-.1.02-.2.04-.31.07h0Z"/>
      <path class="cls-1" d="m26.61,25.26c.25.97.65,1.93.05,2.93-.15.25-.21.56-.58.6-.22-.25.1-.43.07-.65.42-.61.36-1.29.23-1.96-.08-.43-.34-.82-.27-1.28.1.02.2.04.3.06.07.1.13.2.2.3h0Z"/>
      <path class="cls-1" d="m21.91,24.9c-.32,1.3-.62,2.59.03,3.89-1.14-1.05-.95-2.26-.49-3.51.13-.15.16-.43.46-.38Z"/>
      <path class="cls-1" d="m23.76,25.98c.06.83-.23,1.68.2,2.58-.86-.64-.92-1.29-.35-2.55.05-.02.1-.03.15-.03Z"/>
      <path class="cls-2" d="m65.3,40.41c.24,0,.48,0,.72,0,0,.12,0,.25,0,.37-.14.01-.28.02-.42.03-.1,0-.19,0-.29.01,0-.14,0-.27-.01-.41Z"/>
      <path class="cls-2" d="m66.01,40.4c0-.12,0-.24,0-.36.12,0,.24,0,.36,0,0,0,0,0,0,0-.01.24-.13.36-.37.35Z"/>
      <path class="cls-8" d="m26.61,25.25c-.07-.1-.13-.2-.2-.3.04-.03.11-.11.12-.1.14.11.07.26.07.39Z"/>
      <path class="cls-4" d="m29.52,24.5c1.38,0,2.77,0,4.15,0,2.04.95,2.44,2.38,1.16,4.25-.19.27-.23.39.09.6,1.26.86,1.36,2.1.97,3.35-.4,1.28-1.46,1.87-2.75,1.93-1.19.06-2.39,0-3.59-.02-.19-.39-.19-.8-.19-1.23,0-2.27,0-4.55,0-6.82,0-.69-.06-1.38.15-2.05h.02Zm1.76,7.04q0,1.49,1,1.5c1.2,0,1.75-.4,1.76-1.29.02-1.08-.59-1.54-1.9-1.61-1.35-.07-.69.92-.86,1.4Zm0-4.4q0,1.39.82,1.39c1.15,0,1.43-.24,1.43-1.22,0-.95-.41-1.26-1.5-1.34-1.11-.07-.62.75-.74,1.17Z"/>
      <path class="cls-5" d="m41.08,25.06c.09-.08,0-1.11.69-1.25.45-.09,1.08.36,1.08.36,0,0,.02,6.4.03,9.6,0,.51.02.96-.71.94-.61-.02-1.16,0-1.16-.85,0-.19.09-.49.09-.49v-.54s0-2.17,0-2.17l-.05-4.32.04-.74s0-.36,0-.54Z"/>
      <path class="cls-5" d="m46.46,34.08c0-2.83,0-5.65,0-8.48-.02-.04-.04-.09-.05-.13,0-.01.04-.04.06-.05,0-.3,0-.6,0-.9-.22-.21-.14-.47-.15-.72,0,0,0,0,0,0-1.4.01-1.57.13-1.43,1.54.09.92.17,1.84.15,2.77-.04,1.61-.07,3.23-.19,4.83-.03.45-.02,1.34-.02,1.34-.01.17.77.67,1.31.34.2-.15.32-.33.32-.54"/>
      <path class="cls-4" d="m39.26,34.6c-.24.05-.47.11-.71.14-.71.08-1.13-.08-1.11-.95.05-1.98.05-3.96,0-5.94-.02-.81.44-.83,1.03-.85.65-.03.82.25.82.85-.03,2.25-.03,4.5-.04,6.76,0,0,0,0,0,0Z"/>
      <path class="cls-4" d="m49.12,25.97c-.77.08-.99-.34-.99-1.03,0-.75.34-1.08,1.09-1.1.8-.02.98.48,1.01,1.09.04.74-.35,1.12-1.12,1.04Z"/>
      <path class="cls-10" d="m46.39,34.3c.02-.07.05-.14.07-.22-.02.07-.05.14-.07.22Z"/>
      <path class="cls-10" d="m46.47,25.6s-.04-.09-.05-.13c0-.01.04-.04.06-.05,0,.06,0,.13,0,.19Z"/>
      <path class="cls-10" d="m72.86,32.5c.45.15.78.42.21,1.59-.06,0-.12,0-.18,0,.09-.38-.09-.61-.43-.76-.94-.41-1.88-.84-2.82-1.26-.07-.12-.14-.23-.21-.35.07-.1.14-.21.21-.31.09-.16.36-.12.7-.02h0s2.52,1.1,2.52,1.1h0Z"/>
      <path class="cls-1" d="m69.44,31.72c.07.12.14.23.21.35-.73,1.58-1.47,3.16-2.2,4.74-.26-.02-.5.43-.69.52.08-.58.52-1.21.74-1.7.61-1.32,1.29-2.61,1.94-3.91Z"/>
      <path class="cls-5" d="m63.89,29.55c-.06-.49-.23-.85-.81-.87-.54-.02-1.01.03-1.24.63-.08.22-.22.42-.34.63-.32.29-.39.63-.29,1.06.23.92.04,1.85.11,2.78.03.48-.32.55-.63.6-.43.06-.46-.29-.46-.6,0-1.94,0-3.88,0-5.82,0-.49.33-.78.64-.4.45.53.99.35,1.28.16.91-.58,1.82-.57,2.79-.31.46.29.69.72.72,1.26,0,1.98-.01,3.96-.02,5.93-1.48.24-1.58.14-1.63-1.32-.04-1.24.17-2.49-.14-3.73Z"/>
      <path class="cls-6" d="m69.88,22.41c1.22-.17,1.22-.16,1.23,1.04,0,.12,0,.24,0,.36-.06.76-.07,1.29,1,.79.87-.4,1.77.29,1.86,1.37.09,1.13.06,2.28.04,3.42-.02.84-.67.43-1.08.5-.18-.95,0-1.91-.09-2.87-.05-.55,0-1.28-.81-1.23-.7.04-.95.59-.92,1.29.03.72,0,1.44,0,2.16,0,.43-.13.71-.61.68-.42-.03-.66-.21-.65-.67.02-2.28.02-4.55.03-6.83Z"/>
      <path class="cls-6" d="m66.61,23.46c.63-.16,1.24-.39,1.26.69.01.67.61.35.97.4,0,.44.47,1.09-.36,1.2-.59.08-.68.34-.66.81.02.42.03.84,0,1.25-.04.78.31,1.11,1.08,1.01.02.04.05.07.1.09,0,.6-.11,1.06-.87,1.07-.81.01-1.38-.31-1.48-1.12-.1-.77-.06-1.56-.08-2.33,0-.32.05-.62-.37-.81-.47-.21-.47-.72-.09-.93.6-.34.47-.83.5-1.32Z"/>
      <path class="cls-4" d="m56.75,27.11c1.83,1.5,1.83,3.48,1.3,5.5-.45,1.69-1.98,2.47-3.93,2.19-1.56-.22-2.54-1.36-2.56-3.09,0-.94-.16-1.9.29-2.83.77-1.57,2.1-2.29,3.81-1.97.35.07.71.11,1.07.17,0,0,.02.01.02.01Zm-3.4,3.73c.04.36.05.72.12,1.07.15.74.5,1.27,1.36,1.29.86.02,1.23-.51,1.44-1.22.26-.86.21-1.73-.09-2.57-.19-.55-.57-.9-1.2-.92-.62-.02-1.02.26-1.31.78-.28.49-.32,1.03-.32,1.58Z"/>
      <path class="cls-6" d="m13.8,24.82c0,.69,0,1.38,0,2.07,0,.4.14.89-.56.87-.71-.02-.47-.54-.53-.91-.15-1.01.21-2,.03-3.03-.13-.71-.29-.86-.85-.35-.18.17-.41.45-.68.13-.22-.26.07-.43.19-.62.37-.64,1.05-.9,1.62-1.24.55-.33.74.2.76.64.04.81.01,1.62.01,2.43h0Z"/>
      <path class="cls-10" d="m20.13,24.88c.17-.05.17-.34.55-.26-.74,1.41-.64,2.84-.08,4.27-1.13-1.23-1.01-2.6-.46-4.01,0,0,0,0,0,0Z"/>
      <path class="cls-1" d="m22.98,25.58c-.47.99-.38,1.96.04,3.01-.95-.66-.97-2.11-.04-3.01Z"/>
      <path class="cls-1" d="m24.89,26.35c.2,1.34.2,1.35-.46,2.29.16-.94.27-1.73.03-2.51.08,0,.16,0,.25.01.06.07.12.14.18.21Z"/>
      <path class="cls-9" d="m24.6,26.35c-.06-.07-.12-.14-.18-.21q.28.02.18.21Z"/>
      <path class="cls-9" d="m21.08,25.48s0,.05,0,.06c-.02.01-.04.01-.07.02,0-.03,0-.07,0-.1.02,0,.04.02.06.02Z"/>
      <path class="cls-4" d="m48.34,27.07s.06,0,.09,0q1.66-.15,1.66,1.51c0,1.74-.04,3.48.02,5.22.03.84-.45.94-1.06.96-.65.02-.78-.37-.77-.94.04-2.25.04-4.5.06-6.75,0,0,0,0,0,0Z"/>
      <path class="cls-9" d="m25.71,17.66l-.07-.09s.06.05.09.07c0,0-.02.02-.02.02Z"/>
      <path class="cls-6" d="m66.78,37.23s.36-.48.65-.42c.36.07,2.28,1.23,3.08,1.5.14.1.28.21.42.31-.51.98-.61,1.02-1.64.53-.32-.15-1.11-.59-1.11-.59,0,0-.72-.42-1.37-.79-.21-.2-.05-.54-.04-.53Z"/>
      <path class="cls-1" d="m70.94,38.61c-.14-.1-.28-.21-.42-.31.37-.09.45-.43.62-.71.75-1.08,1.09-2.37,1.75-3.51.06,0,.12,0,.18,0-.54,1.59-1.29,3.08-2.13,4.53Z"/>
      <text class="cls-13" transform="translate(20.39 21.09) scale(.95 1)"><tspan x="0" y="0">Saluting Mobile Innovations for Development</tspan></text>
      <text class="cls-11" transform="translate(32.4 39.04) scale(1.06 1)"><tspan x="0" y="0">awards south asia</tspan></text>
      <text class="cls-12" transform="translate(33.63 42.35) scale(1.24 1)"><tspan class="cls-17" x="0" y="0" xml:space="preserve">awards  </tspan><tspan class="cls-14" x="14.62" y="0">2020-21</tspan></text>
      <path class="cls-6" d="m15.8,19.24c.41-.06.41-.05.41.35,0,.04,0,.08,0,.12-.02.25-.02.43.33.26.29-.13.59.1.62.46.03.38.02.76.01,1.14,0,.28-.22.14-.36.17-.06-.32,0-.64-.03-.96-.02-.18,0-.43-.27-.41-.23.01-.32.2-.31.43.01.24,0,.48,0,.72,0,.14-.04.24-.2.23-.14,0-.22-.07-.22-.23,0-.76,0-1.52.01-2.28Z"/>
      <path class="cls-6" d="m14.71,19.59c.21-.05.41-.13.42.23,0,.22.2.12.32.13,0,.15.16.36-.12.4-.2.03-.23.11-.22.27,0,.14,0,.28,0,.42-.01.26.1.37.36.34,0,.01.02.02.03.03,0,.2-.04.35-.29.36-.27,0-.46-.1-.5-.37-.03-.26-.02-.52-.03-.78,0-.11.02-.21-.12-.27-.16-.07-.16-.24-.03-.31.2-.11.16-.28.17-.44Z"/>
      <text class="cls-16" transform="translate(20.67 17.85) scale(.95 1)"><tspan x="0" y="0">C</tspan></text>
      <text class="cls-15" transform="translate(25.49 17.85) scale(.95 1)"><tspan x="0" y="0">VID-19</tspan></text>
    </g>
  </g>
</svg>